<svg width="173" height="176" viewBox="0 0 173 176" fill="none" xmlns="http://www.w3.org/2000/svg">
<path d="M172.45 100.233C172.45 144.201 129 175.31 84.9287 175.31C40.857 175.31 0 144.304 0 100.233C0 56.1609 26.3393 8.56348 70.411 8.56348C114.483 8.56348 172.45 56.1609 172.45 100.233Z" fill="url(#paint0_linear_3_28947)"/>
<g opacity="0.1">
<path opacity="0.02439" d="M38.1609 84.6779L4.0442 103.344L112.201 167.222L146.422 147.312L38.1609 84.6779Z" fill="#3C5185"/>
<path opacity="0.04878" d="M38.1609 84.6779L4.7701 102.929L113.031 166.807L146.422 147.312L38.1609 84.6779Z" fill="#3C5185"/>
<path opacity="0.073171" d="M38.1609 84.6779L5.59968 102.514L113.757 166.392L146.422 147.312L38.1609 84.6779Z" fill="#3C5185"/>
<path opacity="0.097561" d="M38.1609 84.6779L6.42928 101.995L114.586 165.873L146.422 147.312L38.1609 84.6779Z" fill="#3C5185"/>
<path opacity="0.122" d="M38.1609 84.6779L7.25885 101.581L115.312 165.459L146.422 147.312L38.1609 84.6779Z" fill="#3C5185"/>
<path opacity="0.1463" d="M38.1609 84.6779L7.98475 101.166L116.142 164.94L146.422 147.312L38.1609 84.6779Z" fill="#3C5185"/>
<path opacity="0.1707" d="M38.1609 84.6779L8.81432 100.647L116.868 164.525L146.422 147.312L38.1609 84.6779Z" fill="#3C5185"/>
<path opacity="0.1951" d="M38.1609 84.6779L9.6439 100.233L117.697 164.007L146.422 147.312L38.1609 84.6779Z" fill="#3C5185"/>
<path opacity="0.2195" d="M38.1609 84.6779L10.3698 99.8178L118.423 163.592L146.422 147.312L38.1609 84.6779Z" fill="#3C5185"/>
<path opacity="0.2439" d="M38.1609 84.6779L11.1994 99.403L119.253 163.177L146.422 147.312L38.1609 84.6779Z" fill="#3C5185"/>
<path opacity="0.2683" d="M38.1609 84.6779L12.029 98.8845L119.979 162.659L146.422 147.312L38.1609 84.6779Z" fill="#3C5185"/>
<path opacity="0.2927" d="M38.1609 84.6779L12.7548 98.4697L120.705 162.244L146.422 147.312L38.1609 84.6779Z" fill="#3C5185"/>
<path opacity="0.3171" d="M38.1609 84.6779L13.5844 98.0549L121.534 161.726L146.422 147.312L38.1609 84.6779Z" fill="#3C5185"/>
<path opacity="0.3415" d="M38.1609 84.6779L14.414 97.6401L122.26 161.311L146.422 147.312L38.1609 84.6779Z" fill="#3C5185"/>
<path opacity="0.3659" d="M38.1609 84.6779L15.2436 97.1216L123.09 160.896L146.422 147.312L38.1609 84.6779Z" fill="#3C5185"/>
<path opacity="0.3902" d="M38.1609 84.6779L15.9695 96.7068L123.816 160.377L146.422 147.312L38.1609 84.6779Z" fill="#3C5185"/>
<path opacity="0.4146" d="M38.1609 84.6779L16.7991 96.292L124.645 159.963L146.422 147.312L38.1609 84.6779Z" fill="#3C5185"/>
<path opacity="0.439" d="M38.1609 84.6779L17.6287 95.7736L125.371 159.444L146.422 147.312L38.1609 84.6779Z" fill="#3C5185"/>
<path opacity="0.4634" d="M38.1609 84.6779L18.3546 95.3588L126.201 159.029L146.422 147.312L38.1609 84.6779Z" fill="#3C5185"/>
<path opacity="0.4878" d="M38.1609 84.6779L19.1841 94.944L126.926 158.511L146.422 147.312L38.1609 84.6779Z" fill="#3C5185"/>
<path opacity="0.5122" d="M38.1609 84.6779L20.0137 94.5292L127.756 158.096L146.422 147.312L38.1609 84.6779Z" fill="#3C5185"/>
<path opacity="0.5366" d="M38.1609 84.6779L20.8433 94.0107L128.482 157.681L146.422 147.312L38.1609 84.6779Z" fill="#3C5185"/>
<path opacity="0.561" d="M38.1609 84.6779L21.5692 93.5959L129.312 157.163L146.422 147.312L38.1609 84.6779Z" fill="#3C5185"/>
<path opacity="0.5854" d="M38.1609 84.6779L22.3988 93.1811L130.037 156.748L146.422 147.312L38.1609 84.6779Z" fill="#3C5185"/>
<path opacity="0.6098" d="M38.1609 84.6779L23.2284 92.6626L130.763 156.23L146.422 147.312L38.1609 84.6779Z" fill="#3C5185"/>
<path opacity="0.6341" d="M38.1609 84.6779L23.9543 92.2478L131.593 155.815L146.422 147.312L38.1609 84.6779Z" fill="#3C5185"/>
<path opacity="0.6585" d="M38.1609 84.6779L24.7838 91.833L132.319 155.4L146.422 147.312L38.1609 84.6779Z" fill="#3C5185"/>
<path opacity="0.6829" d="M38.1609 84.6779L25.6134 91.4182L133.148 154.881L146.422 147.312L38.1609 84.6779Z" fill="#3C5185"/>
<path opacity="0.7073" d="M38.1609 84.6779L26.3393 90.8997L133.874 154.467L146.422 147.312L38.1609 84.6779Z" fill="#3C5185"/>
<path opacity="0.7317" d="M38.1609 84.6779L27.1689 90.485L134.704 153.948L146.422 147.312L38.1609 84.6779Z" fill="#3C5185"/>
<path opacity="0.7561" d="M38.1609 84.6779L27.9985 90.0702L135.43 153.533L146.422 147.312L38.1609 84.6779Z" fill="#3C5185"/>
<path opacity="0.7805" d="M38.1609 84.6779L28.828 89.6554L136.259 153.015L146.422 147.312L38.1609 84.6779Z" fill="#3C5185"/>
<path opacity="0.8049" d="M38.1609 84.6779L29.554 89.1369L136.985 152.6L146.422 147.312L38.1609 84.6779Z" fill="#3C5185"/>
<path opacity="0.8293" d="M38.1609 84.6779L30.3835 88.7221L137.815 152.185L146.422 147.312L38.1609 84.6779Z" fill="#3C5185"/>
<path opacity="0.8537" d="M38.1609 84.6779L31.2131 88.3073L138.541 151.667L146.422 147.312L38.1609 84.6779Z" fill="#3C5185"/>
<path opacity="0.878" d="M38.1609 84.6779L31.939 87.7888L139.37 151.252L146.422 147.312L38.1609 84.6779Z" fill="#3C5185"/>
<path opacity="0.9024" d="M38.1609 84.6779L32.7686 87.374L140.096 150.734L146.422 147.312L38.1609 84.6779Z" fill="#3C5185"/>
<path opacity="0.9268" d="M38.1609 84.6779L33.5982 86.9592L140.822 150.319L146.422 147.312L38.1609 84.6779Z" fill="#3C5185"/>
<path opacity="0.9512" d="M38.1609 84.6779L34.3241 86.5444L141.652 149.904L146.422 147.312L38.1609 84.6779Z" fill="#3C5185"/>
<path opacity="0.9756" d="M38.1609 84.6779L35.1536 86.0259L142.377 149.385L146.422 147.312L38.1609 84.6779Z" fill="#3C5185"/>
<path opacity="0.1" d="M38.1609 84.6779L35.9832 85.6111L143.207 148.971L146.422 147.312L38.1609 84.6779Z" fill="#3C5185"/>
</g>
<path d="M53.5082 1.09717C57.4488 -0.561996 61.9078 -0.354599 65.6409 1.82306L148.807 50.0427C153.266 52.6351 156.066 57.4053 156.066 62.5902V123.668C156.066 128.024 153.784 132.068 149.947 134.349L137.089 141.919L59.7301 84.4705C55.0637 81.878 52.2639 77.0042 52.2639 71.7156L39.509 7.11167L53.5082 1.09717Z" fill="#3C5185"/>
<path d="M141.859 53.5684L52.4713 1.51196L50.3973 2.44525L140.2 54.8128C144.659 57.4052 147.459 62.1754 147.459 67.3603V135.697L149.118 134.764V66.2196C149.118 61.0347 146.318 56.1609 141.859 53.5684Z" fill="#2D3D64"/>
<path d="M44.2791 7.31907L132.526 58.0275C136.985 60.6199 139.785 65.39 139.785 70.5749V137.149C139.785 141.193 135.43 143.682 131.904 141.712L43.3458 92.3515C38.6794 89.7591 35.8795 84.8853 35.8795 79.5967L36.398 11.8818C36.398 7.83756 40.8571 5.34881 44.2791 7.31907Z" fill="#4A65A3"/>
<path d="M60.0412 12.1928L69.374 6.69678L74.0404 9.49663L64.7076 14.8889L60.0412 12.1928Z" fill="url(#paint1_linear_3_28947)"/>
<path d="M60.0412 12.1929V13.3336L64.7076 15.926V14.889L60.0412 12.1929Z" fill="url(#paint2_linear_3_28947)"/>
<path d="M74.0404 9.49658V10.6373L64.6039 15.9259V14.8889L74.0404 9.49658Z" fill="url(#paint3_linear_3_28947)"/>
<path d="M120.186 46.6206L129.623 41.1246L134.289 43.8208L124.956 49.3168L120.186 46.6206Z" fill="url(#paint4_linear_3_28947)"/>
<path d="M120.186 46.6207V47.7614L124.956 50.3539V49.3169L120.186 46.6207Z" fill="url(#paint5_linear_3_28947)"/>
<path d="M134.289 43.8208V44.9615L124.853 50.3538V49.3168L134.289 43.8208Z" fill="url(#paint6_linear_3_28947)"/>
<path d="M112.098 34.4879C110.75 34.4879 109.713 33.4509 109.713 32.1029V21.6294C109.713 20.4887 109.09 19.348 108.053 18.7258L93.432 10.2226C92.6024 9.70407 91.8765 10.0152 91.5654 10.2226C91.2543 10.43 90.6321 10.8448 90.6321 11.8817V18.311C90.6321 19.6591 89.5952 20.6961 88.2471 20.6961C86.899 20.6961 85.862 19.6591 85.862 18.311V11.8817C85.862 9.49668 87.1064 7.31902 89.1804 6.07464C91.2543 4.83026 93.7431 4.83026 95.9208 6.07464L110.542 14.5779C113.031 16.0297 114.586 18.7258 114.586 21.6294V32.1029C114.586 33.4509 113.446 34.4879 112.098 34.4879Z" fill="#4A65A3"/>
<path d="M117.905 84.7815L118.216 84.4704C118.838 83.9519 119.668 83.9519 120.393 84.3667L143.726 97.9512C144.244 98.2623 144.866 98.2623 145.385 97.9512L150.155 95.255C150.777 94.8402 151.607 94.8402 152.229 95.255L161.976 100.855C163.013 101.477 163.843 102.929 163.843 104.173L152.125 144.304C152.125 144.719 151.814 145.549 151.192 145.652L147.251 146.067L107.535 121.698C106.498 121.076 105.668 119.624 105.668 118.38L117.386 85.9222C117.49 85.4037 117.594 85.0926 117.905 84.7815Z" fill="url(#paint7_linear_3_28947)"/>
<path d="M114.275 86.2334C114.275 84.989 115.105 84.5742 116.142 85.0927L139.474 98.5735C139.992 98.8846 140.615 98.8846 141.133 98.5735L145.903 95.8773C146.525 95.4625 147.355 95.4625 147.977 95.8773L157.725 101.477C158.762 102.099 159.591 103.551 159.591 104.795L147.977 144.615C147.977 145.86 147.148 146.275 146.111 145.756L104.424 121.802C103.387 121.18 102.557 119.728 102.557 118.484L114.275 86.2334Z" fill="url(#paint8_linear_3_28947)"/>
<path d="M113.238 56.2645C112.098 55.6423 111.164 56.1608 111.164 57.5089V118.38C111.164 119.728 112.098 121.283 113.238 122.009L151.71 144.201C152.851 144.823 153.784 144.304 153.784 142.956V82.0853C153.784 80.7373 152.851 79.1818 151.71 78.4559L113.238 56.2645Z" fill="#F6F9FC"/>
<path d="M151.71 78.4559L113.238 56.2645C112.098 55.6423 111.164 56.1608 111.164 57.5089V57.9237L149.533 80.1151C150.673 80.7373 151.607 82.3964 151.607 83.7445V144.097H151.71C152.851 144.719 153.784 144.201 153.784 142.852V81.9816C153.784 80.7373 152.851 79.1818 151.71 78.4559Z" fill="url(#paint9_linear_3_28947)"/>
<path d="M107.95 48.1761C106.809 47.554 105.876 48.0724 105.876 49.4205V110.291C105.876 111.639 106.809 113.195 107.95 113.921L146.422 136.112C147.562 136.734 148.496 136.216 148.496 134.868V73.997C148.496 72.6489 147.562 71.0934 146.422 70.3675L107.95 48.1761Z" fill="#F6F9FC"/>
<path d="M146.422 70.3675L107.95 48.1761C106.809 47.5539 105.979 47.9687 105.876 49.2131C105.979 49.2131 106.083 49.3168 106.187 49.3168L144.659 71.5082C145.8 72.1304 146.733 73.7895 146.733 75.1376V136.008C146.733 136.112 146.733 136.112 146.733 136.216C147.77 136.631 148.496 136.112 148.496 134.868V73.9969C148.496 72.6489 147.562 70.9897 146.422 70.3675Z" fill="url(#paint10_linear_3_28947)"/>
<path d="M143.933 81.0483L108.468 60.5161V59.0643L143.933 79.5966V81.0483Z" fill="#D1E1F2"/>
<path d="M143.933 86.5444L108.468 66.0122V64.5604L143.933 84.9889V86.5444Z" fill="#D1E1F2"/>
<path d="M143.933 91.9366L108.468 71.4044V69.9526L143.933 90.4849V91.9366Z" fill="#D1E1F2"/>
<path d="M143.933 97.4327L108.468 76.9005V75.4487L143.933 95.8773V97.4327Z" fill="#D1E1F2"/>
<path d="M143.933 102.825L108.468 82.3964V80.8409L143.933 101.373V102.825Z" fill="#D1E1F2"/>
<path d="M100.172 86.1296C101.209 85.7148 102.246 85.8185 103.18 86.337L126.201 99.8178C126.719 100.129 127.963 98.2623 128.482 98.0549L132.111 96.9142C133.148 96.6031 134.185 96.7068 135.119 97.2253L144.555 102.721C145.592 103.343 146.422 104.795 146.422 106.04V146.067C146.422 147.311 145.592 148.348 144.348 148.556L140.407 149.282L101.728 124.394C100.691 123.772 99.8613 122.32 99.8613 121.076L96.6466 87.5814L100.172 86.1296Z" fill="url(#paint11_linear_3_28947)"/>
<path d="M96.1281 88.7222C96.1281 87.4778 96.9577 87.063 97.9947 87.5815L121.327 101.062C121.845 101.373 122.467 101.373 122.986 101.062L127.756 98.3661C128.378 97.9513 129.208 97.9513 129.83 98.3661L139.578 103.966C140.615 104.588 141.444 106.04 141.444 107.284V147.934C141.444 149.178 140.615 149.593 139.578 149.074L97.891 125.12C96.854 124.498 96.0244 123.046 96.0244 121.802L96.1281 88.7222Z" fill="url(#paint12_linear_3_28947)"/>
<path opacity="0.3" d="M119.253 62.9013L105.876 55.3313V82.3965L117.801 89.2406C118.216 89.448 118.631 89.5517 119.045 89.448H119.149C120.082 89.3443 120.705 88.5147 120.705 87.5814V65.39C120.705 64.4567 120.082 63.4197 119.253 62.9013Z" fill="#2D3D64"/>
<path d="M86.899 49.1094L86.7953 49.3168C86.5879 49.6279 86.4842 49.939 86.4842 50.3538V72.2341C86.4842 73.1674 87.1064 74.308 87.936 74.7228L115.831 90.796C116.246 91.0034 116.66 91.1071 117.075 91.0034H117.179C118.112 90.8997 118.734 90.0701 118.734 89.1369V66.9455C118.734 66.0122 118.112 64.8715 117.283 64.4567L89.3877 48.5909C88.4544 48.0724 87.4175 48.2798 86.899 49.1094Z" fill="url(#paint13_linear_3_28947)"/>
<path d="M87.8323 49.3167C87.0027 48.9019 86.3805 49.213 86.3805 50.1463V72.1303C86.3805 73.0636 87.0027 74.2043 87.8323 74.6191L115.831 90.796C116.66 91.2108 117.283 90.8997 117.283 89.9664V67.8787C117.283 66.9454 116.66 65.8047 115.831 65.3899L87.8323 49.3167Z" fill="url(#paint14_linear_3_28947)"/>
<path d="M96.5429 60.1013C95.1948 59.2717 94.0542 59.8939 94.0542 61.5531C94.0542 63.1086 95.1948 65.0788 96.5429 66.0121C97.891 66.8417 99.0317 66.2195 99.0317 64.5604C99.0317 62.9012 97.891 60.9309 96.5429 60.1013Z" fill="url(#paint15_linear_3_28947)"/>
<path d="M111.268 70.0564L104.424 75.1376L101.52 69.7453L94.6763 72.6488L86.3805 68.1898V72.234C86.3805 73.1673 87.0027 74.308 87.8323 74.7228L115.831 90.8997C116.66 91.3145 117.283 91.0034 117.283 90.0701V86.5444V80.841L111.268 70.0564Z" fill="url(#paint16_linear_3_28947)"/>
<path opacity="0.3" d="M111.268 70.0565V76.9006L109.609 74.5155L107.224 76.1747V75.5525L104.32 75.1377L111.268 70.0565Z" fill="#2D3D64"/>
<path opacity="0.3" d="M101.52 69.6416V71.3008H100.069L99.7575 72.5452L99.0317 71.7156L94.6763 72.5452L101.52 69.6416Z" fill="#2D3D64"/>
<g opacity="0.7">
<path opacity="0.02439" d="M94.0542 169.088C95.506 168.259 95.506 167.014 94.0542 166.185L21.5692 124.291C20.2212 123.461 17.9398 123.461 16.488 124.291L9.64395 128.335C8.29587 129.164 8.29587 130.512 9.64395 131.342L81.8178 173.029C83.1659 173.858 85.551 173.858 86.899 173.029L94.0542 169.088Z" fill="#3C5185"/>
<path opacity="0.04878" d="M93.9505 169.088C95.2986 168.258 95.2986 167.014 93.9505 166.185L21.5692 124.394C20.2212 123.565 17.9398 123.565 16.488 124.394L9.74766 128.438C8.39958 129.268 8.39958 130.616 9.74766 131.342L81.8178 173.029C83.1659 173.858 85.4473 173.858 86.8991 173.029L93.9505 169.088Z" fill="#3C5185"/>
<path opacity="0.073171" d="M93.8468 168.984C95.1949 168.155 95.1949 166.91 93.8468 166.081L21.5692 124.291C20.2212 123.461 17.9398 123.461 16.5917 124.291L9.85136 128.335C8.50328 129.164 8.50328 130.512 9.85136 131.238L81.8178 172.821C83.1659 173.651 85.4473 173.651 86.8991 172.821L93.8468 168.984Z" fill="#3C5185"/>
<path opacity="0.097561" d="M93.8468 168.984C95.1949 168.155 95.1949 166.91 93.8468 166.081L21.6729 124.394C20.3248 123.565 18.0435 123.565 16.6954 124.394L9.95503 128.438C8.60696 129.268 8.60696 130.616 9.95503 131.342L81.8178 172.821C83.1659 173.651 85.4473 173.651 86.7953 172.821L93.8468 168.984Z" fill="#3C5185"/>
<path opacity="0.122" d="M93.7431 168.984C95.0912 168.155 95.0912 166.91 93.7431 166.081L21.7766 124.394C20.4286 123.565 18.1472 123.668 16.7991 124.394L10.0587 128.438C8.71066 129.268 8.71066 130.616 10.0587 131.342L81.8178 172.821C83.1659 173.651 85.4473 173.651 86.7953 172.821L93.7431 168.984Z" fill="#3C5185"/>
<path opacity="0.1463" d="M93.6394 168.881C94.9875 168.051 94.9875 166.807 93.6394 165.977L21.7766 124.394C20.4286 123.565 18.1472 123.668 16.7991 124.394L10.1624 128.335C8.81436 129.164 8.81436 130.409 10.1624 131.238L81.8178 172.614C83.1659 173.443 85.4473 173.443 86.7953 172.614L93.6394 168.881Z" fill="#3C5185"/>
<path opacity="0.1707" d="M93.5357 168.881C94.8838 168.051 94.8838 166.807 93.5357 166.081L21.7766 124.602C20.4286 123.772 18.1472 123.876 16.7991 124.602L10.1624 128.542C8.81436 129.372 8.81436 130.616 10.1624 131.446L81.7141 172.821C83.0622 173.651 85.3436 173.651 86.6916 172.821L93.5357 168.881Z" fill="#3C5185"/>
<path opacity="0.1951" d="M93.5357 168.881C94.8838 168.155 94.8838 166.807 93.5357 166.081L21.8803 124.602C20.5323 123.772 18.3546 123.876 17.0065 124.602L10.3699 128.542C9.02178 129.372 9.02178 130.616 10.3699 131.446L81.8178 172.718C83.1659 173.547 85.4473 173.547 86.7954 172.718L93.5357 168.881Z" fill="#3C5185"/>
<path opacity="0.2195" d="M93.432 168.777C94.7801 168.051 94.7801 166.703 93.432 165.977L21.8803 124.602C20.5323 123.772 18.3546 123.876 17.0065 124.602L10.3699 128.542C9.02178 129.372 9.02178 130.616 10.3699 131.446L81.6105 172.718C82.9585 173.547 85.1362 173.547 86.588 172.718L93.432 168.777Z" fill="#3C5185"/>
<path opacity="0.2439" d="M93.3283 168.777C94.6764 168.051 94.6764 166.703 93.3283 165.977L21.8803 124.602C20.5322 123.772 18.3546 123.876 17.0065 124.602L10.4735 128.542C9.12545 129.372 9.12545 130.616 10.4735 131.446L81.6104 172.614C82.9585 173.443 85.1362 173.443 86.4842 172.614L93.3283 168.777Z" fill="#3C5185"/>
<path opacity="0.2683" d="M93.2246 168.673C94.5727 167.947 94.5727 166.599 93.2246 165.874L21.984 124.602C20.6359 123.876 18.4583 123.876 17.1102 124.602L10.5772 128.542C9.22915 129.372 9.22915 130.616 10.5772 131.446L81.6104 172.614C82.9585 173.34 85.1362 173.443 86.4842 172.614L93.2246 168.673Z" fill="#3C5185"/>
<path opacity="0.2927" d="M93.2246 168.673C94.5727 167.947 94.5727 166.599 93.2246 165.874L21.984 124.602C20.6359 123.876 18.4583 123.876 17.1102 124.602L10.5772 128.542C9.22915 129.372 9.22915 130.616 10.5772 131.342L81.5067 172.407C82.8548 173.132 85.0325 173.236 86.3805 172.407L93.2246 168.673Z" fill="#3C5185"/>
<path opacity="0.3171" d="M93.1209 168.673C94.469 167.947 94.469 166.703 93.1209 165.874L21.984 124.602C20.6359 123.876 18.4583 123.876 17.1102 124.602L10.5772 128.438C9.22915 129.268 9.22915 130.512 10.5772 131.238L81.403 172.303C82.7511 173.029 84.9288 173.029 86.2768 172.303L93.1209 168.673Z" fill="#3C5185"/>
<path opacity="0.3415" d="M93.0172 168.57C94.3653 167.844 94.3653 166.599 93.0172 165.77L21.984 124.602C20.636 123.876 18.4583 123.876 17.2139 124.602L10.7846 128.438C9.43656 129.268 9.43656 130.512 10.7846 131.238L81.5068 172.199C82.8548 172.925 85.0325 172.925 86.3806 172.199L93.0172 168.57Z" fill="#3C5185"/>
<path opacity="0.3659" d="M92.9135 168.57C94.2616 167.844 94.2616 166.599 92.9135 165.77L21.984 124.705C20.636 123.979 18.4583 123.979 17.2139 124.705L10.7846 128.542C9.43656 129.372 9.43656 130.616 10.7846 131.342L81.4031 172.303C82.7511 173.029 84.9288 173.029 86.1732 172.303L92.9135 168.57Z" fill="#3C5185"/>
<path opacity="0.3902" d="M92.9135 168.57C94.2616 167.844 94.2616 166.599 92.9135 165.77L22.1914 124.705C20.8433 123.979 18.7694 123.979 17.4213 124.705L10.992 128.542C9.64394 129.372 9.64394 130.616 10.992 131.342L81.5067 172.199C82.8548 172.925 85.0325 172.925 86.2768 172.199L92.9135 168.57Z" fill="#3C5185"/>
<path opacity="0.4146" d="M92.8098 168.466C94.1579 167.74 94.1579 166.496 92.8098 165.77L22.1914 124.809C20.8433 124.083 18.7694 124.083 17.4213 124.809L10.992 128.646C9.64395 129.372 9.74765 130.72 10.992 131.446L81.403 172.303C82.7511 173.029 84.8251 173.029 86.1732 172.303L92.8098 168.466Z" fill="#3C5185"/>
<path opacity="0.439" d="M92.7061 168.466C94.0542 167.74 94.0542 166.496 92.7061 165.77L22.1914 124.809C20.8433 124.083 18.7694 124.083 17.4213 124.809L10.992 128.646C9.64395 129.372 9.74765 130.72 10.992 131.446L81.2993 172.199C82.6474 172.925 84.7214 172.925 86.0695 172.199L92.7061 168.466Z" fill="#3C5185"/>
<path opacity="0.4634" d="M92.6025 168.466C93.9505 167.74 93.9505 166.496 92.6025 165.77L22.1914 124.913C20.8434 124.187 18.7694 124.187 17.525 124.913L11.1994 128.75C9.95506 129.476 9.95506 130.72 11.1994 131.549L81.4031 172.303C82.7511 173.029 84.8251 173.029 86.1732 172.303L92.6025 168.466Z" fill="#3C5185"/>
<path opacity="0.4878" d="M92.6024 168.362C93.9505 167.636 93.9505 166.392 92.6024 165.666L22.2951 124.809C20.947 124.083 18.8731 124.083 17.6287 124.809L11.3031 128.542C10.0587 129.268 10.0587 130.512 11.3031 131.342L81.403 171.992C82.7511 172.717 84.8251 172.717 86.1731 171.992L92.6024 168.362Z" fill="#3C5185"/>
<path opacity="0.5122" d="M92.4987 168.362C93.7431 167.636 93.8468 166.392 92.4987 165.666L22.2951 124.913C21.0507 124.187 18.8731 124.187 17.6287 124.913L11.3031 128.646C10.0587 129.372 10.0587 130.616 11.3031 131.342L81.2993 171.992C82.5437 172.718 84.7214 172.718 85.9657 171.992L92.4987 168.362Z" fill="#3C5185"/>
<path opacity="0.5366" d="M92.395 168.362C93.6394 167.636 93.6394 166.392 92.395 165.666L22.2951 124.913C21.0507 124.187 18.8731 124.187 17.6287 124.913L11.3031 128.646C10.0587 129.372 10.0587 130.616 11.3031 131.342L81.0919 171.888C82.3363 172.614 84.514 172.614 85.7584 171.888L92.395 168.362Z" fill="#3C5185"/>
<path opacity="0.561" d="M92.2913 168.259C93.5357 167.533 93.5357 166.288 92.2913 165.562L22.3988 124.913C21.1544 124.187 19.0805 124.187 17.7324 124.913L11.5105 128.646C10.2661 129.372 10.2661 130.616 11.5105 131.342L81.1956 171.888C82.44 172.614 84.6177 172.614 85.8621 171.888L92.2913 168.259Z" fill="#3C5185"/>
<path opacity="0.5854" d="M92.2913 168.259C93.5357 167.533 93.5357 166.288 92.2913 165.562L22.3988 124.913C21.1544 124.187 19.0805 124.187 17.7324 124.913L11.5105 128.646C10.2661 129.372 10.2661 130.616 11.5105 131.342L81.0919 171.784C82.3363 172.51 84.4103 172.51 85.7584 171.784L92.2913 168.259Z" fill="#3C5185"/>
<path opacity="0.6098" d="M92.1877 168.155C93.432 167.429 93.432 166.185 92.1877 165.459L22.3988 124.913C21.1544 124.187 19.0805 124.187 17.8361 124.913L11.6142 128.646C10.3698 129.372 10.3698 130.616 11.6142 131.342L81.092 171.784C82.3363 172.51 84.4103 172.51 85.7584 171.784L92.1877 168.155Z" fill="#3C5185"/>
<path opacity="0.6341" d="M92.084 168.155C93.3283 167.429 93.3283 166.288 92.084 165.562L22.3988 125.016C21.1544 124.291 19.0805 124.291 17.8361 125.016L11.6142 128.75C10.3698 129.475 10.3698 130.72 11.6142 131.446L80.9883 171.784C82.2326 172.51 84.3066 172.51 85.551 171.784L92.084 168.155Z" fill="#3C5185"/>
<path opacity="0.6585" d="M91.9802 168.155C93.2246 167.429 93.2246 166.288 91.9802 165.562L22.5025 125.12C21.2581 124.394 19.1842 124.394 17.9398 125.12L11.8216 128.75C10.5772 129.475 10.5772 130.72 11.8216 131.446L81.0919 171.784C82.3363 172.51 84.4103 172.51 85.6547 171.784L91.9802 168.155Z" fill="#3C5185"/>
<path opacity="0.6829" d="M91.9802 168.051C93.2246 167.325 93.2246 166.185 91.9802 165.459L22.6062 125.016C21.3618 124.291 19.2879 124.291 18.0435 125.016L11.9253 128.646C10.6809 129.372 10.6809 130.616 11.9253 131.342L81.0919 171.577C82.3363 172.303 84.4103 172.303 85.6547 171.577L91.9802 168.051Z" fill="#3C5185"/>
<path opacity="0.7073" d="M91.8765 168.051C93.1209 167.325 93.1209 166.185 91.8765 165.459L22.6062 125.12C21.3618 124.394 19.2879 124.394 18.0435 125.12L11.9253 128.75C10.6809 129.475 10.6809 130.72 11.9253 131.446L80.9882 171.681C82.2326 172.406 84.3066 172.406 85.551 171.681L91.8765 168.051Z" fill="#3C5185"/>
<path opacity="0.7317" d="M91.7729 168.051C93.0172 167.325 93.0172 166.185 91.7729 165.459L22.6062 125.12C21.3618 124.394 19.2879 124.394 18.1472 125.12L12.029 128.75C10.7846 129.475 10.7846 130.72 12.029 131.446L80.9883 171.577C82.2326 172.303 84.3066 172.303 85.551 171.577L91.7729 168.051Z" fill="#3C5185"/>
<path opacity="0.7561" d="M91.6692 167.947C92.9135 167.222 92.9135 166.081 91.6692 165.355L22.6062 125.12C21.3618 124.394 19.3916 124.394 18.1472 125.12L12.1327 128.75C10.8883 129.475 10.8883 130.72 12.1327 131.342L80.9883 171.473C82.2326 172.199 84.3066 172.199 85.551 171.473L91.6692 167.947Z" fill="#3C5185"/>
<path opacity="0.7805" d="M91.5655 167.947C92.8099 167.222 92.8099 166.081 91.5655 165.355L22.6062 125.12C21.3618 124.394 19.3916 124.394 18.1472 125.12L12.1327 128.75C10.8883 129.475 10.8883 130.616 12.1327 131.342L80.8846 171.369C82.1289 172.095 84.0992 172.095 85.3436 171.369L91.5655 167.947Z" fill="#3C5185"/>
<path opacity="0.8049" d="M91.5655 167.947C92.8099 167.222 92.8099 166.081 91.5655 165.355L22.7099 125.224C21.4655 124.498 19.4953 124.498 18.2509 125.224L12.2364 128.853C10.992 129.579 10.992 130.72 12.2364 131.446L80.8846 171.473C82.1289 172.199 84.0992 172.199 85.3436 171.473L91.5655 167.947Z" fill="#3C5185"/>
<path opacity="0.8293" d="M91.4618 167.844C92.7062 167.118 92.7062 165.977 91.4618 165.251L22.7099 125.12C21.4655 124.394 19.4953 124.394 18.2509 125.12L12.2364 128.646C10.992 129.372 10.992 130.512 12.2364 131.238L80.6772 171.162C81.9215 171.888 83.8918 171.888 85.1362 171.162L91.4618 167.844Z" fill="#3C5185"/>
<path opacity="0.8537" d="M91.358 167.844C92.6024 167.118 92.6024 165.977 91.358 165.251L22.7099 125.224C21.4655 124.498 19.4953 124.498 18.2509 125.224L12.3401 128.75C11.0957 129.475 11.0957 130.616 12.3401 131.342L80.6771 171.266C81.9215 171.992 83.8918 171.992 85.1362 171.266L91.358 167.844Z" fill="#3C5185"/>
<path opacity="0.878" d="M91.2544 167.844C92.4987 167.118 92.4987 165.977 91.2544 165.355L22.7099 125.327C21.4655 124.602 19.4953 124.602 18.3546 125.327L12.4438 128.853C11.1994 129.579 11.1994 130.72 12.4438 131.446L80.6771 171.266C81.9215 171.992 83.8918 171.992 85.1362 171.266L91.2544 167.844Z" fill="#3C5185"/>
<path opacity="0.9024" d="M91.2544 167.74C92.4988 167.014 92.4988 165.873 91.2544 165.251L22.8136 125.327C21.5693 124.602 19.599 124.602 18.4583 125.327L12.5475 128.853C11.3031 129.579 11.4068 130.72 12.5475 131.446L80.6772 171.266C81.9215 171.992 83.8918 171.992 85.0325 171.266L91.2544 167.74Z" fill="#3C5185"/>
<path opacity="0.9268" d="M91.1507 167.74C92.395 167.014 92.395 165.873 91.1507 165.251L22.9173 125.327C21.6729 124.602 19.7027 124.602 18.562 125.327L12.6512 128.853C11.4068 129.579 11.5105 130.72 12.6512 131.446L80.6771 171.162C81.9215 171.888 83.8918 171.888 85.0325 171.162L91.1507 167.74Z" fill="#3C5185"/>
<path opacity="0.9512" d="M91.047 167.636C92.2914 166.91 92.2914 165.873 91.047 165.148L22.9173 125.327C21.6729 124.602 19.8064 124.602 18.562 125.327L12.7549 128.853C11.6142 129.579 11.6142 130.72 12.7549 131.446L80.6772 171.162C81.9215 171.888 83.7881 171.888 85.0325 171.162L91.047 167.636Z" fill="#3C5185"/>
<path opacity="0.9756" d="M90.9433 167.636C92.1876 166.91 92.1876 165.873 90.9433 165.148L22.9173 125.327C21.6729 124.602 19.8064 124.602 18.562 125.327L12.7549 128.75C11.6142 129.475 11.6142 130.616 12.7549 131.238L80.5735 170.851C81.8178 171.577 83.6844 171.577 84.9288 170.851L90.9433 167.636Z" fill="#3C5185"/>
<path opacity="0.7" d="M90.9433 167.636C92.084 166.91 92.1877 165.873 90.9433 165.148L23.021 125.431C21.8803 124.705 19.9101 124.809 18.7694 125.431L12.9623 128.853C11.8216 129.579 11.8216 130.72 12.9623 131.342L80.6772 170.955C81.8178 171.681 83.7881 171.681 85.0325 170.955L90.9433 167.636Z" fill="#3C5185"/>
</g>
<path d="M93.0172 167.636C94.3653 166.91 94.3653 165.562 93.0172 164.836L22.8136 124.29C21.4655 123.461 19.2879 123.565 17.9398 124.29L11.3031 128.231C9.95504 129.061 9.95504 130.305 11.3031 131.135L81.1956 171.473C82.5437 172.303 84.7214 172.303 86.1732 171.473L93.0172 167.636Z" fill="#FFC107"/>
<path d="M93.0172 166.91C94.3653 166.185 94.3653 164.837 93.0172 164.111L22.8136 123.565C21.4655 122.735 19.2879 122.839 17.9398 123.565L11.3031 127.505C9.95504 128.335 9.95504 129.579 11.3031 130.409L81.1956 170.747C82.5437 171.577 84.7214 171.577 86.1732 170.747L93.0172 166.91Z" fill="url(#paint17_linear_3_28947)"/>
<path d="M90.5285 162.763L86.0695 165.355L85.0325 164.733L89.4915 162.141L90.5285 162.763Z" fill="#3C5185"/>
<path d="M85.0325 159.548L82.0252 161.311L80.9883 160.792L83.9955 158.926L85.0325 159.548Z" fill="#3C5185"/>
<path d="M79.5365 156.437L76.5292 158.2L75.4922 157.578L78.4995 155.815L79.5365 156.437Z" fill="#3C5185"/>
<path d="M74.1442 153.222L71.0332 154.985L70.0999 154.467L73.1072 152.6L74.1442 153.222Z" fill="#3C5185"/>
<path d="M68.6482 150.111L64.1892 152.704L63.1522 152.082L67.6112 149.489L68.6482 150.111Z" fill="#3C5185"/>
<path d="M63.1522 146.897L60.1449 148.66L59.1079 148.141L62.1152 146.275L63.1522 146.897Z" fill="#3C5185"/>
<path d="M57.7599 143.786L54.6489 145.549L53.7157 144.927L56.7229 143.164L57.7599 143.786Z" fill="#3C5185"/>
<path d="M52.2639 140.571L49.2566 142.334L48.2196 141.816L51.2269 139.949L52.2639 140.571Z" fill="#3C5185"/>
<path d="M46.7679 137.46L42.3089 140.053L41.2719 139.431L45.7309 136.838L46.7679 137.46Z" fill="#3C5185"/>
<path d="M41.3755 134.246L38.2646 136.008L37.3313 135.49L40.3386 133.623L41.3755 134.246Z" fill="#3C5185"/>
<path d="M35.8796 131.135L32.8723 132.898L31.8353 132.275L34.8426 130.513L35.8796 131.135Z" fill="#3C5185"/>
<path d="M30.3836 127.92L27.3763 129.683L26.3394 129.164L29.3466 127.298L30.3836 127.92Z" fill="#3C5185"/>
<path d="M24.9913 124.809L20.4286 127.402L19.4953 126.779L23.9543 124.187L24.9913 124.809Z" fill="#3C5185"/>
<path d="M34.1167 120.143L81.7141 147.208L79.4328 151.459L34.1167 125.535L29.8651 120.454L34.1167 120.143Z" fill="url(#paint18_linear_3_28947)"/>
<path d="M34.1167 120.143V125.535L29.8651 120.454L34.1167 120.143Z" fill="#F3F8FE"/>
<path d="M30.902 120.454H29.865L30.902 121.698V120.454Z" fill="#3C5185"/>
<path d="M80.6771 147.415C79.7438 147.934 78.9142 149.282 78.9142 150.422C78.9142 151.563 79.7438 151.978 80.6771 151.459C81.6104 150.941 82.44 149.593 82.44 148.452C82.3363 147.311 81.6104 146.897 80.6771 147.415Z" fill="#FFC107"/>
<path d="M80.6771 147.415C79.7438 147.934 79.0179 149.282 79.0179 150.319C79.0179 151.356 79.7438 151.874 80.6771 151.252C81.6104 150.733 82.3363 149.385 82.3363 148.348C82.3363 147.311 81.6104 146.897 80.6771 147.415Z" fill="#F3F8FE"/>
<path d="M80.6771 148.867C80.4697 148.971 80.2623 149.385 80.2623 149.697C80.2623 150.008 80.4697 150.111 80.6771 150.008C80.8845 149.904 81.0919 149.489 81.0919 149.178C81.0919 148.867 80.8845 148.66 80.6771 148.867Z" fill="#3C5185"/>
<path d="M88.1434 149.074L107.95 137.668V137.357L79.329 121.906L64.2928 135.283L88.1434 149.074Z" fill="#63749D"/>
<path d="M88.1434 148.867L107.95 137.356L79.329 121.594L64.2928 135.075L88.1434 148.867Z" fill="#3C5185"/>
<path d="M87.3138 148.556L107.224 137.149L107.328 133.416L78.6031 121.076L63.5669 134.453L87.3138 148.556Z" fill="#F1F2F2"/>
<path d="M76.2181 114.958L107.95 133.001V133.312L88.1434 144.823L56.308 126.468L76.2181 114.958Z" fill="#63749D"/>
<path d="M76.2181 114.647L107.95 133.001L88.1434 144.512L56.308 126.157L76.2181 114.647Z" fill="#3C5185"/>
<path d="M80.366 119.002L89.284 124.083L73.2108 133.312L64.2928 128.231L80.366 119.002Z" fill="white"/>
<path d="M56.5154 126.261V130.72L88.1434 149.074L88.3508 148.971V144.615L56.5154 126.261Z" fill="#63749D"/>
<path d="M56.308 126.157V130.616L88.1434 149.074V144.512L56.308 126.157Z" fill="#3C5185"/>
<path d="M82.9585 141.712L99.7576 132.068V131.861L75.6996 118.795L63.0484 130.098L82.9585 141.712Z" fill="#E3EDF7"/>
<path d="M82.9585 141.504L99.7576 131.861L75.6996 118.587L63.0484 129.89L82.9585 141.504Z" fill="#D1E1F2"/>
<path d="M82.3363 141.297L99.0317 131.653L99.1353 128.542L74.9737 118.172L62.3225 129.372L82.3363 141.297Z" fill="white"/>
<path d="M73.0034 112.987L99.7576 128.231V128.438L82.9585 138.082L56.308 122.631L73.0034 112.987Z" fill="#E3EDF7"/>
<path d="M73.0035 112.78L99.7576 128.231L82.9585 137.875L56.3081 122.424L73.0035 112.78Z" fill="#D1E1F2"/>
<path d="M76.4255 116.41L83.9955 120.661L70.5147 128.439L63.0484 124.187L76.4255 116.41Z" fill="white"/>
<path d="M56.5155 122.528V126.261L82.9585 141.712L83.2696 141.608V137.979L56.5155 122.528Z" fill="#E3EDF7"/>
<path d="M56.308 122.424V126.157L82.9585 141.712V137.875L56.308 122.424Z" fill="#DAE7F5"/>
<path opacity="0.3" d="M62.0115 102.825L66.2631 105.21V102.514L74.1442 107.077C74.3516 107.18 74.4553 107.18 74.6627 107.284C74.7664 107.284 74.7664 107.284 74.8701 107.284C74.9738 107.284 74.9737 107.284 75.0774 107.284C75.0774 107.284 75.0775 107.284 75.1811 107.284C75.1811 107.284 75.2848 107.284 75.2848 107.18C75.2848 107.18 75.2848 107.18 75.3885 107.077L75.4922 106.973C75.4922 106.973 75.4922 106.869 75.5959 106.869C75.5959 106.869 75.5959 106.765 75.6996 106.765C75.6996 106.765 75.6996 106.662 75.8033 106.558V106.454C75.8033 106.351 75.8033 106.247 75.8033 106.143V76.1745C75.8033 76.0708 75.8033 75.9671 75.8033 75.7597C75.8033 75.5523 75.6996 75.2413 75.5959 74.9302C75.4922 74.8265 75.4922 74.7228 75.3885 74.5154C75.2848 74.308 75.0774 73.9969 74.8701 73.7895C74.6627 73.5821 74.4553 73.3747 74.2479 73.271L37.5387 52.4277C37.435 52.324 37.3313 52.324 37.2276 52.324H37.1239C37.0202 52.324 37.0202 52.324 36.9165 52.324C36.8128 52.324 36.8128 52.324 36.7091 52.324H36.6054C36.5018 52.324 36.5018 52.324 36.3981 52.4277C36.2944 52.4277 36.2944 52.5314 36.1907 52.5314C36.087 52.6351 36.087 52.6351 36.087 52.7388L35.9833 79.804C35.9833 81.9816 36.3981 84.0556 37.3313 85.9222C37.435 85.9222 37.435 86.0259 37.5387 86.0259L61.9078 100.129V102.825H62.0115Z" fill="#2D3D64"/>
<path d="M34.013 54.5017C33.1834 53.9832 32.4575 54.398 32.4575 55.4349V85.4037C32.4575 86.4407 33.1834 87.5814 34.013 88.0998L70.6184 109.151C71.448 109.669 72.1739 109.254 72.1739 108.217V78.2485C72.1739 77.2115 71.448 76.0709 70.6184 75.5524L34.013 54.5017Z" fill="#F6F9FC"/>
<path d="M70.5147 75.5523L34.013 54.5016C33.1834 53.9831 32.5612 54.3979 32.4575 55.3312C32.5612 55.3312 32.5612 55.4349 32.6649 55.4349L69.2703 76.4856C70.0999 77.0041 70.8258 78.2485 70.8258 79.1818V109.151V109.254C71.5517 109.565 72.1739 109.151 72.1739 108.217V78.2485C72.0702 77.3152 71.448 76.0708 70.5147 75.5523Z" fill="url(#paint19_linear_3_28947)"/>
<path d="M68.6481 83.6408L34.6352 64.0419V62.5901L68.6481 82.189V83.6408Z" fill="#D1E1F2"/>
<path d="M68.6481 87.9961L34.6352 68.3972V66.9454L68.6481 86.5444V87.9961Z" fill="#D1E1F2"/>
<path d="M68.6481 92.4553L34.6352 72.7526V71.4045L68.6481 91.0035V92.4553Z" fill="#D1E1F2"/>
<path d="M50.3973 86.2333L34.6352 77.2115V75.7598L50.3973 84.7815V86.2333Z" fill="#D1E1F2"/>
<path d="M58.382 97.4327V107.284L60.2486 106.973L62.6336 109.773V99.9215L58.382 97.4327Z" fill="url(#paint20_linear_3_28947)"/>
<path d="M60.5597 92.5589C58.1747 91.2108 56.2044 92.3515 56.2044 95.0476C56.2044 97.7438 58.1747 101.269 60.5597 102.618C62.9448 103.966 64.915 102.825 64.915 100.129C64.915 97.329 62.9448 93.9069 60.5597 92.5589Z" fill="url(#paint21_linear_3_28947)"/>
<path d="M59.7301 92.87C57.3451 91.5219 55.3748 92.6626 55.3748 95.3588C55.3748 98.0549 57.3451 101.581 59.7301 102.929C62.1152 104.277 64.0854 103.136 64.0854 100.44C64.0854 97.7438 62.1152 94.3218 59.7301 92.87Z" fill="url(#paint22_linear_3_28947)"/>
<path d="M59.7301 94.0106C57.7599 92.87 56.2044 93.8032 56.2044 96.0846C56.2044 98.366 57.7599 101.062 59.7301 102.203C61.7004 103.343 63.2559 102.41 63.2559 100.129C63.2559 97.8475 61.7004 95.1513 59.7301 94.0106Z" fill="#FFC107"/>
<path d="M13.377 65.7011C12.6512 65.7011 12.029 65.2863 11.8216 64.6641L8.71064 57.0941C7.36256 53.8795 7.98475 50.0427 10.3698 47.4502L13.1697 44.3393C13.7918 43.6134 14.9325 43.6134 15.5547 44.2356C16.2806 44.8577 16.2806 45.9984 15.6584 46.6206L12.8586 49.7316C11.4068 51.3907 10.992 53.7758 11.8216 55.746L14.9325 63.316C15.2436 64.1456 14.8288 65.1826 13.9992 65.5974C13.7918 65.7011 13.5844 65.7011 13.377 65.7011Z" fill="url(#paint23_linear_3_28947)"/>
<path d="M13.1697 95.1514L11.6142 96.2921L6.94778 98.1587C6.63668 98.2624 6.32559 98.6772 6.32559 98.9883L6.22189 100.025C6.11819 100.751 6.74038 101.27 7.46627 101.166L14.2066 100.129L14.8288 99.6105L15.451 99.5068L16.0732 100.129H16.7991C17.4213 100.129 17.8361 99.6105 17.8361 99.092V97.6402L16.7991 95.0477H13.1697V95.1514Z" fill="#3C5185"/>
<path d="M15.0362 98.366C13.5844 98.366 12.9622 97.1216 12.9622 95.6699L12.3401 82.1891L12.2364 62.6939C12.1327 61.2421 13.4807 59.6866 14.9325 59.5829C16.3843 59.4792 18.4583 61.0347 18.5619 62.4865L17.6287 82.0854L17.2139 95.6699C17.3176 97.1216 16.488 98.366 15.0362 98.366Z" fill="#4A65A3"/>
<path d="M37.0202 52.6351C36.7091 52.6351 36.5018 52.4277 36.5018 52.2203L36.2944 49.0057C36.2944 48.6946 36.5017 48.4872 36.7091 48.4872C37.0202 48.4872 37.2276 48.6946 37.2276 48.902L37.435 52.1166C37.435 52.324 37.2276 52.6351 37.0202 52.6351Z" fill="#F2B1B5"/>
<path d="M32.7686 56.3684C30.7984 56.3684 28.8281 55.5388 27.48 54.087L23.021 49.628C22.3988 49.0058 22.3988 47.9688 23.021 47.3466C23.6432 46.7245 24.6802 46.7245 25.3023 47.3466L29.7614 51.9094C30.591 52.7389 31.6279 53.1537 32.7686 53.1537C33.9093 53.1537 34.9463 52.7389 35.7759 51.9094L37.6424 50.0428C38.2646 49.4206 39.3016 49.4206 39.9238 50.0428C40.546 50.665 40.546 51.702 39.9238 52.3242L38.0572 54.1907C36.7091 55.6425 34.8426 56.3684 32.7686 56.3684Z" fill="#F2B1B5"/>
<path d="M37.3313 51.3908C37.1239 51.1834 37.0202 50.976 37.1239 50.6649L38.7831 47.865C38.8868 47.6576 39.1979 47.5539 39.509 47.6576C39.7164 47.7613 39.8201 48.0724 39.7164 48.3835L38.0572 51.1834C37.8498 51.3908 37.5387 51.4945 37.3313 51.3908Z" fill="#F2B1B5"/>
<path d="M38.472 51.0798C38.2646 50.8724 38.1609 50.5613 38.3683 50.3539L40.3386 47.7614C40.546 47.554 40.8571 47.4503 41.0645 47.6577C41.2719 47.8651 41.3756 48.1762 41.1682 48.3836L39.1979 50.9761C38.9905 51.1835 38.6794 51.2872 38.472 51.0798Z" fill="#F2B1B5"/>
<path d="M38.8868 51.7019C38.6794 51.4945 38.6794 51.1834 38.8868 50.976L41.2718 48.7984C41.4792 48.591 41.7903 48.591 41.9977 48.7984C42.2051 49.0058 42.2051 49.3169 41.9977 49.5243L39.6127 51.7019C39.4053 51.9093 38.9905 51.9093 38.8868 51.7019Z" fill="#F2B1B5"/>
<path d="M38.5757 52.5314C38.472 52.2203 38.472 52.0129 38.7831 51.8055L41.583 50.25C41.7904 50.1463 42.1015 50.25 42.3089 50.4574C42.4126 50.6648 42.3089 50.9759 42.1015 51.1833L39.3016 52.7388C38.9905 52.9462 38.6794 52.8425 38.5757 52.5314Z" fill="#F2B1B5"/>
<path d="M22.3988 103.758L20.4285 110.084C20.5322 110.81 21.0507 111.432 21.7766 111.639L22.2951 111.743C22.7099 111.847 23.2284 111.743 23.6432 111.536C24.8875 110.706 25.6134 109.462 25.8208 108.01L26.3393 103.655L25.6134 102.099L22.3988 103.758Z" fill="#3C5185"/>
<path d="M24.2654 105.003C22.9173 105.003 22.0877 103.966 21.984 102.618L20.0137 85.4038L16.5917 68.8121L12.6512 62.0717C12.5475 60.6199 19.2879 60.4125 20.7396 60.3088C22.1914 60.2051 24.9913 64.2494 25.095 65.7011L25.3023 84.989L26.5467 102.099C26.6504 103.551 26.0282 104.899 24.4728 105.003C24.4728 105.003 24.3691 105.003 24.2654 105.003Z" fill="url(#paint24_linear_3_28947)"/>
<path d="M38.1609 51.8057C37.435 51.1835 36.3981 51.1835 35.7759 51.8057C35.05 52.6353 34.013 53.0501 32.8723 53.0501C31.7316 53.0501 30.6947 52.6353 29.9688 51.8057L26.1319 47.8652C25.7171 46.8282 24.9913 45.9986 23.9543 45.3764C23.8506 45.2727 23.7469 45.2727 23.6432 45.169L18.562 42.2655C15.8658 40.71 12.4438 42.6803 12.4438 45.7912V63.3162C14.4141 66.116 18.7694 68.19 25.5098 66.8419L25.9245 60.2052L26.443 52.9464L27.5837 54.1907C29.0355 55.6425 30.9021 56.4721 32.976 56.4721C35.05 56.4721 36.9165 55.6425 38.3683 54.1907C38.8868 53.5686 38.7831 52.4279 38.1609 51.8057Z" fill="url(#paint25_linear_3_28947)"/>
<path d="M18.4583 46.3095L16.0732 48.0724V46.7243C16.0732 46.1021 16.1769 45.48 16.488 44.8578L17.4213 42.7838L18.0435 42.8875L18.4583 46.3095Z" fill="white"/>
<path d="M18.4583 46.3096L19.8063 48.1761L18.562 50.0427L17.3176 49.6279L16.7991 47.554L18.4583 46.3096Z" fill="url(#paint26_linear_3_28947)"/>
<path d="M19.2878 46.6207C18.4583 46.6207 17.8361 45.9986 17.8361 45.2727V40.2952H20.6359V45.2727C20.7396 45.9986 20.1174 46.6207 19.2878 46.6207Z" fill="#F2B1B5"/>
<path d="M19.91 43.8208H18.6657C15.451 43.8208 14.1029 41.2284 14.1029 38.0137V36.7693C14.1029 35.7324 14.9325 35.0065 15.8658 35.0065H18.873C20.1174 35.0065 21.1544 36.0434 21.1544 37.2878L22.5025 42.2653C22.6062 42.8875 20.6359 43.8208 19.91 43.8208Z" fill="#F2B1B5"/>
<path d="M24.4727 37.9101C24.1616 36.1473 22.9173 34.4881 21.2581 33.7622C20.5322 33.3474 19.5989 33.2437 18.7693 33.0363C17.4213 32.8289 15.9695 32.8289 14.7251 33.3474C13.2733 33.9696 12.6512 35.214 14.2066 36.251C14.8288 36.6657 15.6584 36.8731 16.3843 36.8731C17.2139 36.8731 18.1472 36.8731 18.7693 37.4953C19.5989 38.3249 19.2878 39.673 19.7026 40.71C19.8063 40.71 19.91 40.71 20.1174 40.71C20.2211 40.3989 20.2211 40.0878 20.2211 39.7767C20.2211 39.4656 20.5322 39.1545 20.8433 39.2582C21.0507 39.3619 21.0507 39.5693 21.0507 39.673C21.1544 40.2952 21.1544 40.9174 20.947 41.5396C20.8433 42.058 20.6359 42.8876 21.0507 43.1987C21.8803 43.7172 23.2284 42.1617 23.6432 41.5396C24.369 40.5026 24.6801 39.1545 24.4727 37.9101Z" fill="#3C5185"/>
<path d="M18.4583 46.3096L20.4285 49.0057L20.6359 47.3465C20.7396 46.3096 21.1544 45.3763 21.7766 44.5467C21.984 44.3393 21.8803 44.0282 21.6729 43.9245L21.0507 43.6134L18.4583 46.3096Z" fill="white"/>
<path d="M25.3023 65.5975C18.6657 66.9456 14.2066 64.8716 12.2364 62.0718V63.4198C14.2066 66.2197 18.562 68.2937 25.3023 66.9456V65.5975Z" fill="#3C5185"/>
<path d="M18.6656 50.0428L18.2509 64.4569L16.9028 65.5976L16.1769 64.1458L17.3176 49.6281L18.6656 50.0428Z" fill="url(#paint27_linear_3_28947)"/>
<defs>
<linearGradient id="paint0_linear_3_28947" x1="109.119" y1="175.752" x2="58.1397" y2="9.51563" gradientUnits="userSpaceOnUse">
<stop offset="0.1103" stop-color="white"/>
<stop offset="1" stop-color="#E1EBF7"/>
</linearGradient>
<linearGradient id="paint1_linear_3_28947" x1="60.0096" y1="10.8047" x2="74.0699" y2="10.8047" gradientUnits="userSpaceOnUse">
<stop offset="0.1499" stop-color="#FF9800"/>
<stop offset="1" stop-color="#FFC107"/>
</linearGradient>
<linearGradient id="paint2_linear_3_28947" x1="60.0096" y1="14.0492" x2="64.6963" y2="14.0492" gradientUnits="userSpaceOnUse">
<stop offset="0.1499" stop-color="#FF9800"/>
<stop offset="1" stop-color="#FFC107"/>
</linearGradient>
<linearGradient id="paint3_linear_3_28947" x1="74.0699" y1="12.6956" x2="64.595" y2="12.6956" gradientUnits="userSpaceOnUse">
<stop offset="0.1499" stop-color="#FF9800"/>
<stop offset="1" stop-color="#FFC107"/>
</linearGradient>
<linearGradient id="paint4_linear_3_28947" x1="120.226" y1="45.2219" x2="134.286" y2="45.2219" gradientUnits="userSpaceOnUse">
<stop offset="0.1499" stop-color="#FF9800"/>
<stop offset="1" stop-color="#FFC107"/>
</linearGradient>
<linearGradient id="paint5_linear_3_28947" x1="120.226" y1="48.4663" x2="124.912" y2="48.4663" gradientUnits="userSpaceOnUse">
<stop offset="0.1499" stop-color="#FF9800"/>
<stop offset="1" stop-color="#FFC107"/>
</linearGradient>
<linearGradient id="paint6_linear_3_28947" x1="134.286" y1="47.1128" x2="124.811" y2="47.1128" gradientUnits="userSpaceOnUse">
<stop offset="0.1499" stop-color="#FF9800"/>
<stop offset="1" stop-color="#FFC107"/>
</linearGradient>
<linearGradient id="paint7_linear_3_28947" x1="105.735" y1="115.053" x2="163.983" y2="115.053" gradientUnits="userSpaceOnUse">
<stop stop-color="#FFC107"/>
<stop offset="0.8501" stop-color="#FF9800"/>
</linearGradient>
<linearGradient id="paint8_linear_3_28947" x1="102.517" y1="115.443" x2="159.671" y2="115.443" gradientUnits="userSpaceOnUse">
<stop offset="0.1499" stop-color="#FF9800"/>
<stop offset="1" stop-color="#FFC107"/>
</linearGradient>
<linearGradient id="paint9_linear_3_28947" x1="111.129" y1="100.216" x2="153.759" y2="100.216" gradientUnits="userSpaceOnUse">
<stop stop-color="#F4F9FD"/>
<stop offset="0.2091" stop-color="#E6F1FA"/>
<stop offset="0.8511" stop-color="#B2D2F1"/>
<stop offset="0.9962" stop-color="#A5CBEF"/>
</linearGradient>
<linearGradient id="paint10_linear_3_28947" x1="105.899" y1="92.0536" x2="148.514" y2="92.0536" gradientUnits="userSpaceOnUse">
<stop stop-color="#F4F9FD"/>
<stop offset="0.2091" stop-color="#E6F1FA"/>
<stop offset="0.8511" stop-color="#B2D2F1"/>
<stop offset="0.9962" stop-color="#A5CBEF"/>
</linearGradient>
<linearGradient id="paint11_linear_3_28947" x1="96.5888" y1="117.568" x2="146.378" y2="117.568" gradientUnits="userSpaceOnUse">
<stop stop-color="#FFC107"/>
<stop offset="0.8501" stop-color="#FF9800"/>
</linearGradient>
<linearGradient id="paint12_linear_3_28947" x1="96.0826" y1="118.271" x2="141.53" y2="118.271" gradientUnits="userSpaceOnUse">
<stop offset="0.1499" stop-color="#FF9800"/>
<stop offset="1" stop-color="#FFC107"/>
</linearGradient>
<linearGradient id="paint13_linear_3_28947" x1="86.401" y1="69.6889" x2="118.634" y2="69.6889" gradientUnits="userSpaceOnUse">
<stop stop-color="#F4F9FD"/>
<stop offset="0.2091" stop-color="#E6F1FA"/>
<stop offset="0.8511" stop-color="#B2D2F1"/>
<stop offset="0.9962" stop-color="#A5CBEF"/>
</linearGradient>
<linearGradient id="paint14_linear_3_28947" x1="116.956" y1="91.0765" x2="86.5381" y2="48.5604" gradientUnits="userSpaceOnUse">
<stop stop-color="#A8D9FB"/>
<stop offset="0.2776" stop-color="#C4E5FC"/>
<stop offset="0.7558" stop-color="#EFF8FE"/>
<stop offset="1" stop-color="white"/>
</linearGradient>
<linearGradient id="paint15_linear_3_28947" x1="99.0638" y1="63.0145" x2="94.0452" y2="63.0145" gradientUnits="userSpaceOnUse">
<stop offset="0.1499" stop-color="#FF9800"/>
<stop offset="1" stop-color="#FFC107"/>
</linearGradient>
<linearGradient id="paint16_linear_3_28947" x1="86.401" y1="79.5243" x2="117.287" y2="79.5243" gradientUnits="userSpaceOnUse">
<stop stop-color="#3C5185"/>
<stop offset="0.128" stop-color="#41588E"/>
<stop offset="0.6948" stop-color="#5573B1"/>
<stop offset="1" stop-color="#5D7DBE"/>
</linearGradient>
<linearGradient id="paint17_linear_3_28947" x1="93.992" y1="147.173" x2="10.294" y2="147.173" gradientUnits="userSpaceOnUse">
<stop stop-color="#FF9800"/>
<stop offset="1" stop-color="#FFC107"/>
</linearGradient>
<linearGradient id="paint18_linear_3_28947" x1="54.0631" y1="136.979" x2="56.5846" y2="132.837" gradientUnits="userSpaceOnUse">
<stop stop-color="#FF9800"/>
<stop offset="1" stop-color="#FFC107"/>
</linearGradient>
<linearGradient id="paint19_linear_3_28947" x1="32.423" y1="81.8179" x2="72.119" y2="81.8179" gradientUnits="userSpaceOnUse">
<stop stop-color="#F4F9FD"/>
<stop offset="0.2091" stop-color="#E6F1FA"/>
<stop offset="0.8511" stop-color="#B2D2F1"/>
<stop offset="0.9962" stop-color="#A5CBEF"/>
</linearGradient>
<linearGradient id="paint20_linear_3_28947" x1="60.5231" y1="109.752" x2="60.5231" y2="97.4641" gradientUnits="userSpaceOnUse">
<stop stop-color="#5D7DBE"/>
<stop offset="0.3052" stop-color="#5573B1"/>
<stop offset="0.872" stop-color="#41588E"/>
<stop offset="1" stop-color="#3C5185"/>
</linearGradient>
<linearGradient id="paint21_linear_3_28947" x1="56.1455" y1="97.573" x2="64.9009" y2="97.573" gradientUnits="userSpaceOnUse">
<stop stop-color="#FFC107"/>
<stop offset="0.8501" stop-color="#FF9800"/>
</linearGradient>
<linearGradient id="paint22_linear_3_28947" x1="55.3719" y1="97.9598" x2="64.1273" y2="97.9598" gradientUnits="userSpaceOnUse">
<stop offset="0.1499" stop-color="#FF9800"/>
<stop offset="1" stop-color="#FFC107"/>
</linearGradient>
<linearGradient id="paint23_linear_3_28947" x1="7.93445" y1="54.714" x2="16.0418" y2="54.714" gradientUnits="userSpaceOnUse">
<stop stop-color="#A8D9FB"/>
<stop offset="1" stop-color="white"/>
</linearGradient>
<linearGradient id="paint24_linear_3_28947" x1="12.6876" y1="82.6284" x2="37.3621" y2="82.6284" gradientUnits="userSpaceOnUse">
<stop stop-color="#3C5185"/>
<stop offset="0.4" stop-color="#4D68A3"/>
<stop offset="0.7573" stop-color="#5977B7"/>
<stop offset="1" stop-color="#5D7DBE"/>
</linearGradient>
<linearGradient id="paint25_linear_3_28947" x1="12.2466" y1="54.532" x2="38.6614" y2="54.532" gradientUnits="userSpaceOnUse">
<stop stop-color="#A8D9FB"/>
<stop offset="0.0482825" stop-color="#B3DEFC"/>
<stop offset="0.1892" stop-color="#CFEAFD"/>
<stop offset="0.342" stop-color="#E4F3FE"/>
<stop offset="0.5108" stop-color="#F3FAFE"/>
<stop offset="0.7076" stop-color="#FCFEFF"/>
<stop offset="1" stop-color="white"/>
</linearGradient>
<linearGradient id="paint26_linear_3_28947" x1="19.8136" y1="48.1893" x2="16.7858" y2="48.1893" gradientUnits="userSpaceOnUse">
<stop offset="0.1499" stop-color="#FF9800"/>
<stop offset="1" stop-color="#FFC107"/>
</linearGradient>
<linearGradient id="paint27_linear_3_28947" x1="18.6546" y1="57.5931" x2="16.1561" y2="57.5931" gradientUnits="userSpaceOnUse">
<stop offset="0.1499" stop-color="#FF9800"/>
<stop offset="1" stop-color="#FFC107"/>
</linearGradient>
</defs>
</svg>
