<?xml version="1.0" encoding="utf-8"?>
<!-- Generator: Adobe Illustrator 19.0.0, SVG Export Plug-In . SVG Version: 6.00 Build 0)  -->
<svg version="1.1" id="Layer_1" xmlns="http://www.w3.org/2000/svg" xmlns:xlink="http://www.w3.org/1999/xlink" x="0px" y="0px"
	 viewBox="0 0 256 256" style="enable-background:new 0 0 256 256;" xml:space="preserve">
<style type="text/css">
	.st0{fill:url(#XMLID_11_);}
	.st1{opacity:0.1;}
	.st2{opacity:0;fill:#3C5185;}
	.st3{opacity:2.439000e-002;fill:#3C5185;}
	.st4{opacity:4.878000e-002;fill:#3C5185;}
	.st5{opacity:7.317100e-002;fill:#3C5185;}
	.st6{opacity:9.756100e-002;fill:#3C5185;}
	.st7{opacity:0.122;fill:#3C5185;}
	.st8{opacity:0.1463;fill:#3C5185;}
	.st9{opacity:0.1707;fill:#3C5185;}
	.st10{opacity:0.1951;fill:#3C5185;}
	.st11{opacity:0.2195;fill:#3C5185;}
	.st12{opacity:0.2439;fill:#3C5185;}
	.st13{opacity:0.2683;fill:#3C5185;}
	.st14{opacity:0.2927;fill:#3C5185;}
	.st15{opacity:0.3171;fill:#3C5185;}
	.st16{opacity:0.3415;fill:#3C5185;}
	.st17{opacity:0.3659;fill:#3C5185;}
	.st18{opacity:0.3902;fill:#3C5185;}
	.st19{opacity:0.4146;fill:#3C5185;}
	.st20{opacity:0.439;fill:#3C5185;}
	.st21{opacity:0.4634;fill:#3C5185;}
	.st22{opacity:0.4878;fill:#3C5185;}
	.st23{opacity:0.5122;fill:#3C5185;}
	.st24{opacity:0.5366;fill:#3C5185;}
	.st25{opacity:0.561;fill:#3C5185;}
	.st26{opacity:0.5854;fill:#3C5185;}
	.st27{opacity:0.6098;fill:#3C5185;}
	.st28{opacity:0.6341;fill:#3C5185;}
	.st29{opacity:0.6585;fill:#3C5185;}
	.st30{opacity:0.6829;fill:#3C5185;}
	.st31{opacity:0.7073;fill:#3C5185;}
	.st32{opacity:0.7317;fill:#3C5185;}
	.st33{opacity:0.7561;fill:#3C5185;}
	.st34{opacity:0.7805;fill:#3C5185;}
	.st35{opacity:0.8049;fill:#3C5185;}
	.st36{opacity:0.8293;fill:#3C5185;}
	.st37{opacity:0.8537;fill:#3C5185;}
	.st38{opacity:0.878;fill:#3C5185;}
	.st39{opacity:0.9024;fill:#3C5185;}
	.st40{opacity:0.9268;fill:#3C5185;}
	.st41{opacity:0.9512;fill:#3C5185;}
	.st42{opacity:0.9756;fill:#3C5185;}
	.st43{fill:#3C5185;}
	.st44{fill:#2D3D64;}
	.st45{fill:#4A65A3;}
	.st46{fill:url(#XMLID_168_);}
	.st47{fill:url(#XMLID_169_);}
	.st48{fill:url(#XMLID_170_);}
	.st49{fill:url(#XMLID_171_);}
	.st50{fill:url(#XMLID_172_);}
	.st51{fill:url(#XMLID_173_);}
	.st52{fill:url(#XMLID_175_);}
	.st53{fill:url(#XMLID_177_);}
	.st54{fill:#F6F9FC;}
	.st55{fill:url(#XMLID_178_);}
	.st56{fill:url(#XMLID_179_);}
	.st57{fill:#D1E1F2;}
	.st58{fill:url(#XMLID_180_);}
	.st59{fill:url(#XMLID_181_);}
	.st60{opacity:0.3;fill:#2D3D64;}
	.st61{fill:url(#XMLID_182_);}
	.st62{fill:url(#XMLID_183_);}
	.st63{fill:url(#XMLID_184_);}
	.st64{fill:url(#XMLID_185_);}
	.st65{opacity:0.7;}
	.st66{fill:#FFC107;}
	.st67{fill:url(#XMLID_186_);}
	.st68{fill:url(#XMLID_187_);}
	.st69{fill:#F3F8FE;}
	.st70{fill:#63749D;}
	.st71{fill:#F1F2F2;}
	.st72{fill:#FFFFFF;}
	.st73{fill:#E3EDF7;}
	.st74{fill:#DAE7F5;}
	.st75{fill:url(#XMLID_188_);}
	.st76{fill:url(#XMLID_189_);}
	.st77{fill:url(#XMLID_190_);}
	.st78{fill:url(#XMLID_191_);}
	.st79{fill:url(#XMLID_192_);}
	.st80{fill:#F2B1B5;}
	.st81{fill:url(#XMLID_193_);}
	.st82{fill:url(#XMLID_194_);}
	.st83{fill:url(#XMLID_195_);}
	.st84{fill:url(#XMLID_196_);}
</style>
<g>
	<linearGradient id="XMLID_11_" gradientUnits="userSpaceOnUse" x1="150.0274" y1="213.0264" x2="100.8663" y2="52.7182">
		<stop  offset="0.1103" style="stop-color:#FFFFFF"/>
		<stop  offset="1" style="stop-color:#E1EBF7"/>
	</linearGradient>
	<path id="XMLID_167_" class="st0" d="M211.1,140.2c0,42.4-41.9,72.4-84.4,72.4s-81.9-29.9-81.9-72.4s25.4-88.4,67.9-88.4
		S211.1,97.7,211.1,140.2z"/>
	<g id="XMLID_98_" class="st1">
		<polygon id="XMLID_117_" class="st2" points="81.6,125.2 47.9,143.6 152.3,205.3 186,185.6 		"/>
		<polygon id="XMLID_166_" class="st3" points="81.6,125.2 48.7,143.2 153,204.8 186,185.6 		"/>
		<polygon id="XMLID_165_" class="st4" points="81.6,125.2 49.4,142.8 153.8,204.4 186,185.6 		"/>
		<polygon id="XMLID_164_" class="st5" points="81.6,125.2 50.2,142.4 154.5,204 186,185.6 		"/>
		<polygon id="XMLID_163_" class="st6" points="81.6,125.2 51,141.9 155.3,203.5 186,185.6 		"/>
		<polygon id="XMLID_162_" class="st7" points="81.6,125.2 51.8,141.5 156,203.1 186,185.6 		"/>
		<polygon id="XMLID_161_" class="st8" points="81.6,125.2 52.5,141.1 156.8,202.6 186,185.6 		"/>
		<polygon id="XMLID_160_" class="st9" points="81.6,125.2 53.3,140.6 157.5,202.2 186,185.6 		"/>
		<polygon id="XMLID_149_" class="st10" points="81.6,125.2 54.1,140.2 158.3,201.7 186,185.6 		"/>
		<polygon id="XMLID_139_" class="st11" points="81.6,125.2 54.8,139.8 159,201.3 186,185.6 		"/>
		<polygon id="XMLID_138_" class="st12" points="81.6,125.2 55.6,139.4 159.8,200.9 186,185.6 		"/>
		<polygon id="XMLID_134_" class="st13" points="81.6,125.2 56.4,138.9 160.5,200.4 186,185.6 		"/>
		<polygon id="XMLID_133_" class="st14" points="81.6,125.2 57.1,138.5 161.2,200 186,185.6 		"/>
		<polygon id="XMLID_132_" class="st15" points="81.6,125.2 57.9,138.1 162,199.5 186,185.6 		"/>
		<polygon id="XMLID_131_" class="st16" points="81.6,125.2 58.7,137.7 162.7,199.1 186,185.6 		"/>
		<polygon id="XMLID_115_" class="st17" points="81.6,125.2 59.5,137.2 163.5,198.7 186,185.6 		"/>
		<polygon id="XMLID_114_" class="st18" points="81.6,125.2 60.2,136.8 164.2,198.2 186,185.6 		"/>
		<polygon id="XMLID_113_" class="st19" points="81.6,125.2 61,136.4 165,197.8 186,185.6 		"/>
		<polygon id="XMLID_112_" class="st20" points="81.6,125.2 61.8,135.9 165.7,197.3 186,185.6 		"/>
		<polygon id="XMLID_111_" class="st21" points="81.6,125.2 62.5,135.5 166.5,196.9 186,185.6 		"/>
		<polygon id="XMLID_110_" class="st22" points="81.6,125.2 63.3,135.1 167.2,196.4 186,185.6 		"/>
		<polygon id="XMLID_109_" class="st23" points="81.6,125.2 64.1,134.7 168,196 186,185.6 		"/>
		<polygon id="XMLID_108_" class="st24" points="81.6,125.2 64.9,134.2 168.7,195.6 186,185.6 		"/>
		<polygon id="XMLID_107_" class="st25" points="81.6,125.2 65.6,133.8 169.5,195.1 186,185.6 		"/>
		<polygon id="XMLID_106_" class="st26" points="81.6,125.2 66.4,133.4 170.2,194.7 186,185.6 		"/>
		<polygon id="XMLID_105_" class="st27" points="81.6,125.2 67.2,132.9 170.9,194.2 186,185.6 		"/>
		<polygon id="XMLID_104_" class="st28" points="81.6,125.2 67.9,132.5 171.7,193.8 186,185.6 		"/>
		<polygon id="XMLID_103_" class="st29" points="81.6,125.2 68.7,132.1 172.4,193.4 186,185.6 		"/>
		<polygon id="XMLID_102_" class="st30" points="81.6,125.2 69.5,131.7 173.2,192.9 186,185.6 		"/>
		<polygon id="XMLID_101_" class="st31" points="81.6,125.2 70.2,131.2 173.9,192.5 186,185.6 		"/>
		<polygon id="XMLID_100_" class="st32" points="81.6,125.2 71,130.8 174.7,192 186,185.6 		"/>
		<polygon id="XMLID_99_" class="st33" points="81.6,125.2 71.8,130.4 175.4,191.6 186,185.6 		"/>
		<polygon id="XMLID_70_" class="st34" points="81.6,125.2 72.6,130 176.2,191.1 186,185.6 		"/>
		<polygon id="XMLID_69_" class="st35" points="81.6,125.2 73.3,129.5 176.9,190.7 186,185.6 		"/>
		<polygon id="XMLID_64_" class="st36" points="81.6,125.2 74.1,129.1 177.7,190.3 186,185.6 		"/>
		<polygon id="XMLID_62_" class="st37" points="81.6,125.2 74.9,128.7 178.4,189.8 186,185.6 		"/>
		<polygon id="XMLID_61_" class="st38" points="81.6,125.2 75.6,128.2 179.2,189.4 186,185.6 		"/>
		<polygon id="XMLID_60_" class="st39" points="81.6,125.2 76.4,127.8 179.9,188.9 186,185.6 		"/>
		<polygon id="XMLID_59_" class="st40" points="81.6,125.2 77.2,127.4 180.6,188.5 186,185.6 		"/>
		<polygon id="XMLID_52_" class="st41" points="81.6,125.2 77.9,127 181.4,188.1 186,185.6 		"/>
		<polygon id="XMLID_51_" class="st42" points="81.6,125.2 78.7,126.5 182.1,187.6 186,185.6 		"/>
		<polygon id="XMLID_116_" class="st43" points="81.6,125.2 79.5,126.1 182.9,187.2 186,185.6 		"/>
	</g>
	<g id="XMLID_65_">
		<path id="XMLID_80_" class="st43" d="M96.4,44.6c3.8-1.6,8.1-1.4,11.7,0.7l80.2,46.5c4.3,2.5,7,7.1,7,12.1v58.9
			c0,4.2-2.2,8.1-5.9,10.3l-12.4,7.3l-74.6-55.4c-4.5-2.5-7.2-7.2-7.2-12.3L82.9,50.4L96.4,44.6z"/>
		<path id="XMLID_79_" class="st44" d="M181.6,95.2L95.4,45l-2,0.9L180,96.4c4.3,2.5,7,7.1,7,12.1v65.9l1.6-0.9v-66.1
			C188.6,102.4,185.9,97.7,181.6,95.2z"/>
		<path id="XMLID_78_" class="st45" d="M87.5,50.6l85.1,48.9c4.3,2.5,7,7.1,7,12.1v64.2c0,3.9-4.2,6.3-7.6,4.4l-85.4-47.6
			c-4.5-2.5-7.2-7.2-7.2-12.3L79.9,55C79.9,51.1,84.2,48.7,87.5,50.6z"/>
		<g id="XMLID_74_">
			<linearGradient id="XMLID_168_" gradientUnits="userSpaceOnUse" x1="102.6695" y1="53.9614" x2="116.2284" y2="53.9614">
				<stop  offset="0.1499" style="stop-color:#FF9800"/>
				<stop  offset="1" style="stop-color:#FFC107"/>
			</linearGradient>
			<polygon id="XMLID_77_" class="st46" points="102.7,55.3 111.7,50 116.2,52.7 107.2,57.9 			"/>
			<linearGradient id="XMLID_169_" gradientUnits="userSpaceOnUse" x1="102.6695" y1="57.0901" x2="107.1891" y2="57.0901">
				<stop  offset="0.1499" style="stop-color:#FF9800"/>
				<stop  offset="1" style="stop-color:#FFC107"/>
			</linearGradient>
			<polygon id="XMLID_76_" class="st47" points="102.7,55.3 102.7,56.4 107.2,58.9 107.2,57.9 			"/>
			
				<linearGradient id="XMLID_170_" gradientUnits="userSpaceOnUse" x1="75.3459" y1="55.7849" x2="84.4829" y2="55.7849" gradientTransform="matrix(-1 0 0 1 191.5743 0)">
				<stop  offset="0.1499" style="stop-color:#FF9800"/>
				<stop  offset="1" style="stop-color:#FFC107"/>
			</linearGradient>
			<polygon id="XMLID_75_" class="st48" points="116.2,52.7 116.2,53.8 107.1,58.9 107.1,57.9 			"/>
		</g>
		<g id="XMLID_68_">
			<linearGradient id="XMLID_171_" gradientUnits="userSpaceOnUse" x1="160.7381" y1="87.1511" x2="174.2968" y2="87.1511">
				<stop  offset="0.1499" style="stop-color:#FF9800"/>
				<stop  offset="1" style="stop-color:#FFC107"/>
			</linearGradient>
			<polygon id="XMLID_73_" class="st49" points="160.7,88.5 169.8,83.2 174.3,85.8 165.3,91.1 			"/>
			<linearGradient id="XMLID_172_" gradientUnits="userSpaceOnUse" x1="160.7381" y1="90.2798" x2="165.2576" y2="90.2798">
				<stop  offset="0.1499" style="stop-color:#FF9800"/>
				<stop  offset="1" style="stop-color:#FFC107"/>
			</linearGradient>
			<polygon id="XMLID_72_" class="st50" points="160.7,88.5 160.7,89.6 165.3,92.1 165.3,91.1 			"/>
			
				<linearGradient id="XMLID_173_" gradientUnits="userSpaceOnUse" x1="17.2775" y1="88.9746" x2="26.4144" y2="88.9746" gradientTransform="matrix(-1 0 0 1 191.5743 0)">
				<stop  offset="0.1499" style="stop-color:#FF9800"/>
				<stop  offset="1" style="stop-color:#FFC107"/>
			</linearGradient>
			<polygon id="XMLID_71_" class="st51" points="174.3,85.8 174.3,86.9 165.2,92.1 165.2,91.1 			"/>
		</g>
		<g id="XMLID_66_">
			<path id="XMLID_67_" class="st45" d="M152.9,76.8c-1.3,0-2.3-1-2.3-2.3V64.4c0-1.1-0.6-2.2-1.6-2.8l-14.1-8.2
				c-0.8-0.5-1.5-0.2-1.8,0c-0.3,0.2-0.9,0.6-0.9,1.6v6.2c0,1.3-1,2.3-2.3,2.3c-1.3,0-2.3-1-2.3-2.3V55c0-2.3,1.2-4.4,3.2-5.6
				c2-1.2,4.4-1.2,6.5,0l14.1,8.2c2.4,1.4,3.9,4,3.9,6.8v10.1C155.3,75.8,154.2,76.8,152.9,76.8z"/>
		</g>
	</g>
	<g id="XMLID_48_">
		<linearGradient id="XMLID_175_" gradientUnits="userSpaceOnUse" x1="146.7643" y1="154.4921" x2="202.9355" y2="154.4921">
			<stop  offset="0" style="stop-color:#FFC107"/>
			<stop  offset="0.8501" style="stop-color:#FF9800"/>
		</linearGradient>
		<path id="XMLID_1113_" class="st52" d="M158.5,125.3l0.3-0.3c0.6-0.5,1.4-0.5,2.1-0.1l22.5,13.1c0.5,0.3,1.1,0.3,1.6,0l4.6-2.6
			c0.6-0.4,1.4-0.4,2,0l9.4,5.4c1,0.6,1.8,2,1.8,3.2l-11.3,38.7c0,0.4-0.3,1.2-0.9,1.3l-3.8,0.4l-38.3-23.5c-1-0.6-1.8-2-1.8-3.2
			l11.3-31.3C158.1,125.9,158.2,125.6,158.5,125.3z"/>
		<linearGradient id="XMLID_177_" gradientUnits="userSpaceOnUse" x1="143.6615" y1="154.8684" x2="198.7766" y2="154.8684">
			<stop  offset="0.1499" style="stop-color:#FF9800"/>
			<stop  offset="1" style="stop-color:#FFC107"/>
		</linearGradient>
		<path id="XMLID_1112_" class="st53" d="M155,126.7c0-1.2,0.8-1.6,1.8-1.1l22.5,13c0.5,0.3,1.1,0.3,1.6,0l4.6-2.6
			c0.6-0.4,1.4-0.4,2,0l9.4,5.4c1,0.6,1.8,2,1.8,3.2L187.5,183c0,1.2-0.8,1.6-1.8,1.1L145.5,161c-1-0.6-1.8-2-1.8-3.2L155,126.7z"/>
		<path id="XMLID_1111_" class="st54" d="M154,97.8c-1.1-0.6-2-0.1-2,1.2v58.7c0,1.3,0.9,2.8,2,3.5l37.1,21.4c1.1,0.6,2,0.1,2-1.2
			v-58.7c0-1.3-0.9-2.8-2-3.5L154,97.8z"/>
		<linearGradient id="XMLID_178_" gradientUnits="userSpaceOnUse" x1="151.9655" y1="140.1843" x2="193.0759" y2="140.1843">
			<stop  offset="0" style="stop-color:#F4F9FD"/>
			<stop  offset="0.2091" style="stop-color:#E6F1FA"/>
			<stop  offset="0.8511" style="stop-color:#B2D2F1"/>
			<stop  offset="0.9962" style="stop-color:#A5CBEF"/>
		</linearGradient>
		<path id="XMLID_1109_" class="st55" d="M191.1,119.2L154,97.8c-1.1-0.6-2-0.1-2,1.2v0.4l37,21.4c1.1,0.6,2,2.2,2,3.5v58.2l0.1,0
			c1.1,0.6,2,0.1,2-1.2v-58.7C193.1,121.4,192.2,119.9,191.1,119.2z"/>
		<path id="XMLID_1108_" class="st54" d="M148.9,90c-1.1-0.6-2-0.1-2,1.2v58.7c0,1.3,0.9,2.8,2,3.5l37.1,21.4c1.1,0.6,2,0.1,2-1.2
			v-58.7c0-1.3-0.9-2.8-2-3.5L148.9,90z"/>
		<linearGradient id="XMLID_179_" gradientUnits="userSpaceOnUse" x1="146.9223" y1="132.3127" x2="188.0181" y2="132.3127">
			<stop  offset="0" style="stop-color:#F4F9FD"/>
			<stop  offset="0.2091" style="stop-color:#E6F1FA"/>
			<stop  offset="0.8511" style="stop-color:#B2D2F1"/>
			<stop  offset="0.9962" style="stop-color:#A5CBEF"/>
		</linearGradient>
		<path id="XMLID_1107_" class="st56" d="M186,111.4L148.9,90c-1.1-0.6-1.9-0.2-2,1c0.1,0,0.2,0.1,0.3,0.1l37.1,21.4
			c1.1,0.6,2,2.2,2,3.5v58.7c0,0.1,0,0.1,0,0.2c1,0.4,1.7-0.1,1.7-1.3v-58.7C188,113.6,187.1,112,186,111.4z"/>
		<g id="XMLID_1105_">
			<polygon id="XMLID_1106_" class="st57" points="183.6,121.7 149.4,101.9 149.4,100.5 183.6,120.3 			"/>
		</g>
		<g id="XMLID_1103_">
			<polygon id="XMLID_1104_" class="st57" points="183.6,127 149.4,107.2 149.4,105.8 183.6,125.5 			"/>
		</g>
		<g id="XMLID_1101_">
			<polygon id="XMLID_1102_" class="st57" points="183.6,132.2 149.4,112.4 149.4,111 183.6,130.8 			"/>
		</g>
		<g id="XMLID_63_">
			<polygon id="XMLID_1100_" class="st57" points="183.6,137.5 149.4,117.7 149.4,116.3 183.6,136 			"/>
		</g>
		<g id="XMLID_57_">
			<polygon id="XMLID_58_" class="st57" points="183.6,142.7 149.4,123 149.4,121.5 183.6,141.3 			"/>
		</g>
		<linearGradient id="XMLID_180_" gradientUnits="userSpaceOnUse" x1="137.9442" y1="156.917" x2="185.9583" y2="156.917">
			<stop  offset="0" style="stop-color:#FFC107"/>
			<stop  offset="0.8501" style="stop-color:#FF9800"/>
		</linearGradient>
		<path id="XMLID_56_" class="st58" d="M141.4,126.6c1-0.4,2-0.3,2.9,0.2l22.2,13c0.5,0.3,1.7-1.5,2.2-1.7l3.5-1.1
			c1-0.3,2-0.2,2.9,0.3l9.1,5.3c1,0.6,1.8,2,1.8,3.2v38.6c0,1.2-0.8,2.2-2,2.4l-3.8,0.7l-37.3-24c-1-0.6-1.8-2-1.8-3.2l-3.1-32.3
			L141.4,126.6z"/>
		<linearGradient id="XMLID_181_" gradientUnits="userSpaceOnUse" x1="137.4561" y1="157.5948" x2="181.2823" y2="157.5948">
			<stop  offset="0.1499" style="stop-color:#FF9800"/>
			<stop  offset="1" style="stop-color:#FFC107"/>
		</linearGradient>
		<path id="XMLID_1049_" class="st59" d="M137.5,129.1c0-1.2,0.8-1.6,1.8-1.1l22.5,13c0.5,0.3,1.1,0.3,1.6,0l4.6-2.6
			c0.6-0.4,1.4-0.4,2,0l9.4,5.4c1,0.6,1.8,2,1.8,3.2v39.2c0,1.2-0.8,1.6-1.8,1.1l-40.2-23.1c-1-0.6-1.8-2-1.8-3.2L137.5,129.1z"/>
		<path id="XMLID_50_" class="st60" d="M159.8,104.2l-12.9-7.3V123l11.5,6.6c0.4,0.2,0.8,0.3,1.2,0.2l0.1,0c0.9-0.1,1.5-0.9,1.5-1.8
			v-21.4C161.2,105.7,160.6,104.7,159.8,104.2z"/>
		<g id="XMLID_49_">
			
				<linearGradient id="XMLID_182_" gradientUnits="userSpaceOnUse" x1="355.2729" y1="110.7456" x2="386.3563" y2="110.7456" gradientTransform="matrix(1 0 0 1 -227.1531 0)">
				<stop  offset="0" style="stop-color:#F4F9FD"/>
				<stop  offset="0.2091" style="stop-color:#E6F1FA"/>
				<stop  offset="0.8511" style="stop-color:#B2D2F1"/>
				<stop  offset="0.9962" style="stop-color:#A5CBEF"/>
			</linearGradient>
			<path id="XMLID_55_" class="st61" d="M128.6,90.9l-0.1,0.2c-0.2,0.3-0.3,0.6-0.3,1v21.1c0,0.9,0.6,2,1.4,2.4l26.9,15.5
				c0.4,0.2,0.8,0.3,1.2,0.2l0.1,0c0.9-0.1,1.5-0.9,1.5-1.8v-21.4c0-0.9-0.6-2-1.4-2.4L131,90.4C130.1,89.9,129.1,90.1,128.6,90.9z"
				/>
			<linearGradient id="XMLID_183_" gradientUnits="userSpaceOnUse" x1="157.5852" y1="131.3705" x2="128.252" y2="90.3706">
				<stop  offset="0" style="stop-color:#A8D9FB"/>
				<stop  offset="0.2776" style="stop-color:#C4E5FC"/>
				<stop  offset="0.7558" style="stop-color:#EFF8FE"/>
				<stop  offset="1" style="stop-color:#FFFFFF"/>
			</linearGradient>
			<path id="XMLID_54_" class="st62" d="M129.5,91.1c-0.8-0.4-1.4-0.1-1.4,0.8v21.2c0,0.9,0.6,2,1.4,2.4l27,15.6
				c0.8,0.4,1.4,0.1,1.4-0.8v-21.3c0-0.9-0.6-2-1.4-2.4L129.5,91.1z"/>
			
				<linearGradient id="XMLID_184_" gradientUnits="userSpaceOnUse" x1="315.8152" y1="104.3093" x2="320.6548" y2="104.3093" gradientTransform="matrix(-1 0 0 1 456.1462 0)">
				<stop  offset="0.1499" style="stop-color:#FF9800"/>
				<stop  offset="1" style="stop-color:#FFC107"/>
			</linearGradient>
			<path id="XMLID_1032_" class="st63" d="M137.9,101.5c-1.3-0.8-2.4-0.2-2.4,1.4c0,1.5,1.1,3.4,2.4,4.3c1.3,0.8,2.4,0.2,2.4-1.4
				C140.3,104.2,139.2,102.3,137.9,101.5z"/>
			<linearGradient id="XMLID_185_" gradientUnits="userSpaceOnUse" x1="128.1198" y1="120.2303" x2="157.9039" y2="120.2303">
				<stop  offset="0" style="stop-color:#3C5185"/>
				<stop  offset="0.128" style="stop-color:#41588E"/>
				<stop  offset="0.6948" style="stop-color:#5573B1"/>
				<stop  offset="1" style="stop-color:#5D7DBE"/>
			</linearGradient>
			<path id="XMLID_1024_" class="st64" d="M152.1,111.1l-6.6,4.9l-2.8-5.2l-6.6,2.8l-8-4.3v3.9c0,0.9,0.6,2,1.4,2.4l27,15.6
				c0.8,0.4,1.4,0.1,1.4-0.8v-3.4v-5.5L152.1,111.1z"/>
			<polygon id="XMLID_971_" class="st60" points="152.1,111.1 152.1,117.7 150.5,115.4 148.2,117 148.2,116.4 145.4,116 
				152.1,111.1 			"/>
			<polygon id="XMLID_53_" class="st60" points="142.7,110.7 142.7,112.3 141.3,112.3 141,113.5 140.3,112.7 136.1,113.5 			"/>
		</g>
	</g>
	<g id="XMLID_255_">
		<g class="st65">
			<path id="XMLID_272_" class="st2" d="M135.6,206.6c1.4-0.8,1.4-2,0-2.8l-70-40.4c-1.4-0.8-3.6-0.8-4.9,0l-6.6,3.9
				c-1.3,0.8-1.3,2.1,0,2.9l69.7,40.3c1.4,0.8,3.6,0.8,4.9,0L135.6,206.6z"/>
			<path id="XMLID_47_" class="st3" d="M135.5,206.6c1.4-0.8,1.4-2,0-2.8l-69.9-40.4c-1.3-0.8-3.5-0.8-4.9,0l-6.6,3.9
				c-1.3,0.8-1.3,2.1,0,2.9l69.6,40.2c1.3,0.8,3.6,0.8,4.9,0L135.5,206.6z"/>
			<path id="XMLID_45_" class="st4" d="M135.4,206.6c1.3-0.8,1.3-2,0-2.8l-69.8-40.3c-1.3-0.8-3.5-0.8-4.9,0l-6.5,3.9
				c-1.3,0.8-1.3,2.1,0,2.8l69.5,40.2c1.3,0.8,3.5,0.8,4.9,0L135.4,206.6z"/>
			<path id="XMLID_44_" class="st5" d="M135.3,206.5c1.3-0.8,1.3-2,0-2.8l-69.7-40.3c-1.3-0.8-3.5-0.8-4.8,0l-6.5,3.9
				c-1.3,0.8-1.3,2.1,0,2.8l69.4,40.1c1.3,0.8,3.5,0.8,4.9,0L135.3,206.5z"/>
			<path id="XMLID_43_" class="st6" d="M135.3,206.5c1.3-0.8,1.3-2,0-2.8l-69.6-40.2c-1.3-0.8-3.5-0.8-4.8,0l-6.5,3.9
				c-1.3,0.8-1.3,2.1,0,2.8l69.3,40c1.3,0.8,3.5,0.8,4.8,0L135.3,206.5z"/>
			<path id="XMLID_42_" class="st7" d="M135.2,206.5c1.3-0.8,1.3-2,0-2.8l-69.4-40.2c-1.3-0.8-3.5-0.7-4.8,0l-6.5,3.9
				c-1.3,0.8-1.3,2.1,0,2.8l69.2,40c1.3,0.8,3.5,0.8,4.8,0L135.2,206.5z"/>
			<path id="XMLID_41_" class="st8" d="M135.1,206.4c1.3-0.8,1.3-2,0-2.8l-69.3-40.1c-1.3-0.8-3.5-0.7-4.8,0l-6.4,3.8
				c-1.3,0.8-1.3,2,0,2.8l69.1,39.9c1.3,0.8,3.5,0.8,4.8,0L135.1,206.4z"/>
			<path id="XMLID_40_" class="st9" d="M135,206.4c1.3-0.8,1.3-2,0-2.7l-69.2-40c-1.3-0.8-3.5-0.7-4.8,0l-6.4,3.8
				c-1.3,0.8-1.3,2,0,2.8l69,39.9c1.3,0.8,3.5,0.8,4.8,0L135,206.4z"/>
			<path id="XMLID_37_" class="st10" d="M135,206.4c1.3-0.7,1.3-2,0-2.7l-69.1-40c-1.3-0.8-3.4-0.7-4.7,0l-6.4,3.8
				c-1.3,0.8-1.3,2,0,2.8l68.9,39.8c1.3,0.8,3.5,0.8,4.8,0L135,206.4z"/>
			<path id="XMLID_35_" class="st11" d="M134.9,206.3c1.3-0.7,1.3-2,0-2.7l-69-39.9c-1.3-0.8-3.4-0.7-4.7,0l-6.4,3.8
				c-1.3,0.8-1.3,2,0,2.8l68.7,39.8c1.3,0.8,3.4,0.8,4.8,0L134.9,206.3z"/>
			<path id="XMLID_34_" class="st12" d="M134.8,206.3c1.3-0.7,1.3-2,0-2.7l-68.9-39.9c-1.3-0.8-3.4-0.7-4.7,0l-6.3,3.8
				c-1.3,0.8-1.3,2,0,2.8l68.6,39.7c1.3,0.8,3.4,0.8,4.7,0L134.8,206.3z"/>
			<path id="XMLID_33_" class="st13" d="M134.7,206.2c1.3-0.7,1.3-2,0-2.7L66,163.7c-1.3-0.7-3.4-0.7-4.7,0l-6.3,3.8
				c-1.3,0.8-1.3,2,0,2.8l68.5,39.7c1.3,0.7,3.4,0.8,4.7,0L134.7,206.2z"/>
			<path id="XMLID_32_" class="st14" d="M134.7,206.2c1.3-0.7,1.3-2,0-2.7L66,163.7c-1.3-0.7-3.4-0.7-4.7,0l-6.3,3.8
				c-1.3,0.8-1.3,2,0,2.7l68.4,39.6c1.3,0.7,3.4,0.8,4.7,0L134.7,206.2z"/>
			<path id="XMLID_31_" class="st15" d="M134.6,206.2c1.3-0.7,1.3-1.9,0-2.7L66,163.7c-1.3-0.7-3.4-0.7-4.7,0l-6.3,3.7
				c-1.3,0.8-1.3,2,0,2.7l68.3,39.6c1.3,0.7,3.4,0.7,4.7,0L134.6,206.2z"/>
			<path id="XMLID_30_" class="st16" d="M134.5,206.1c1.3-0.7,1.3-1.9,0-2.7l-68.5-39.7c-1.3-0.7-3.4-0.7-4.6,0l-6.2,3.7
				c-1.3,0.8-1.3,2,0,2.7l68.2,39.5c1.3,0.7,3.4,0.7,4.7,0L134.5,206.1z"/>
			<path id="XMLID_29_" class="st17" d="M134.4,206.1c1.3-0.7,1.3-1.9,0-2.7l-68.4-39.6c-1.3-0.7-3.4-0.7-4.6,0l-6.2,3.7
				c-1.3,0.8-1.3,2,0,2.7l68.1,39.5c1.3,0.7,3.4,0.7,4.6,0L134.4,206.1z"/>
			<path id="XMLID_28_" class="st18" d="M134.4,206.1c1.3-0.7,1.3-1.9,0-2.7l-68.2-39.6c-1.3-0.7-3.3-0.7-4.6,0l-6.2,3.7
				c-1.3,0.8-1.3,2,0,2.7l68,39.4c1.3,0.7,3.4,0.7,4.6,0L134.4,206.1z"/>
			<path id="XMLID_27_" class="st19" d="M134.3,206c1.3-0.7,1.3-1.9,0-2.6l-68.1-39.5c-1.3-0.7-3.3-0.7-4.6,0l-6.2,3.7
				c-1.3,0.7-1.2,2,0,2.7l67.9,39.4c1.3,0.7,3.3,0.7,4.6,0L134.3,206z"/>
			<path id="XMLID_26_" class="st20" d="M134.2,206c1.3-0.7,1.3-1.9,0-2.6l-68-39.5c-1.3-0.7-3.3-0.7-4.6,0l-6.2,3.7
				c-1.3,0.7-1.2,2,0,2.7l67.8,39.3c1.3,0.7,3.3,0.7,4.6,0L134.2,206z"/>
			<path id="XMLID_25_" class="st21" d="M134.1,206c1.3-0.7,1.3-1.9,0-2.6l-67.9-39.4c-1.3-0.7-3.3-0.7-4.5,0l-6.1,3.7
				c-1.2,0.7-1.2,1.9,0,2.7l67.7,39.3c1.3,0.7,3.3,0.7,4.6,0L134.1,206z"/>
			<path id="XMLID_24_" class="st22" d="M134.1,205.9c1.3-0.7,1.3-1.9,0-2.6l-67.8-39.4c-1.3-0.7-3.3-0.7-4.5,0l-6.1,3.6
				c-1.2,0.7-1.2,1.9,0,2.7l67.6,39.2c1.3,0.7,3.3,0.7,4.6,0L134.1,205.9z"/>
			<path id="XMLID_23_" class="st23" d="M134,205.9c1.2-0.7,1.3-1.9,0-2.6L66.3,164c-1.2-0.7-3.3-0.7-4.5,0l-6.1,3.6
				c-1.2,0.7-1.2,1.9,0,2.6l67.5,39.2c1.2,0.7,3.3,0.7,4.5,0L134,205.9z"/>
			<path id="XMLID_22_" class="st24" d="M133.9,205.9c1.2-0.7,1.2-1.9,0-2.6L66.3,164c-1.2-0.7-3.3-0.7-4.5,0l-6.1,3.6
				c-1.2,0.7-1.2,1.9,0,2.6l67.3,39.1c1.2,0.7,3.3,0.7,4.5,0L133.9,205.9z"/>
			<path id="XMLID_21_" class="st25" d="M133.8,205.8c1.2-0.7,1.2-1.9,0-2.6L66.4,164c-1.2-0.7-3.2-0.7-4.5,0l-6,3.6
				c-1.2,0.7-1.2,1.9,0,2.6l67.2,39.1c1.2,0.7,3.3,0.7,4.5,0L133.8,205.8z"/>
			<path id="XMLID_20_" class="st26" d="M133.8,205.8c1.2-0.7,1.2-1.9,0-2.6L66.4,164c-1.2-0.7-3.2-0.7-4.5,0l-6,3.6
				c-1.2,0.7-1.2,1.9,0,2.6l67.1,39c1.2,0.7,3.2,0.7,4.5,0L133.8,205.8z"/>
			<path id="XMLID_19_" class="st27" d="M133.7,205.7c1.2-0.7,1.2-1.9,0-2.6l-67.3-39.1c-1.2-0.7-3.2-0.7-4.4,0l-6,3.6
				c-1.2,0.7-1.2,1.9,0,2.6l67,39c1.2,0.7,3.2,0.7,4.5,0L133.7,205.7z"/>
			<path id="XMLID_18_" class="st28" d="M133.6,205.7c1.2-0.7,1.2-1.8,0-2.5l-67.2-39.1c-1.2-0.7-3.2-0.7-4.4,0l-6,3.6
				c-1.2,0.7-1.2,1.9,0,2.6l66.9,38.9c1.2,0.7,3.2,0.7,4.4,0L133.6,205.7z"/>
			<path id="XMLID_17_" class="st29" d="M133.5,205.7c1.2-0.7,1.2-1.8,0-2.5l-67-39c-1.2-0.7-3.2-0.7-4.4,0l-5.9,3.5
				c-1.2,0.7-1.2,1.9,0,2.6l66.8,38.9c1.2,0.7,3.2,0.7,4.4,0L133.5,205.7z"/>
			<path id="XMLID_16_" class="st30" d="M133.5,205.6c1.2-0.7,1.2-1.8,0-2.5l-66.9-39c-1.2-0.7-3.2-0.7-4.4,0l-5.9,3.5
				c-1.2,0.7-1.2,1.9,0,2.6l66.7,38.8c1.2,0.7,3.2,0.7,4.4,0L133.5,205.6z"/>
			<path id="XMLID_15_" class="st31" d="M133.4,205.6c1.2-0.7,1.2-1.8,0-2.5l-66.8-38.9c-1.2-0.7-3.2-0.7-4.4,0l-5.9,3.5
				c-1.2,0.7-1.2,1.9,0,2.6l66.6,38.8c1.2,0.7,3.2,0.7,4.4,0L133.4,205.6z"/>
			<path id="XMLID_14_" class="st32" d="M133.3,205.6c1.2-0.7,1.2-1.8,0-2.5l-66.7-38.9c-1.2-0.7-3.2-0.7-4.3,0l-5.9,3.5
				c-1.2,0.7-1.2,1.9,0,2.6l66.5,38.7c1.2,0.7,3.2,0.7,4.4,0L133.3,205.6z"/>
			<path id="XMLID_13_" class="st33" d="M133.2,205.5c1.2-0.7,1.2-1.8,0-2.5l-66.6-38.8c-1.2-0.7-3.1-0.7-4.3,0l-5.8,3.5
				c-1.2,0.7-1.2,1.9,0,2.5l66.4,38.7c1.2,0.7,3.2,0.7,4.4,0L133.2,205.5z"/>
			<path id="XMLID_12_" class="st34" d="M133.1,205.5c1.2-0.7,1.2-1.8,0-2.5l-66.5-38.8c-1.2-0.7-3.1-0.7-4.3,0l-5.8,3.5
				c-1.2,0.7-1.2,1.8,0,2.5l66.3,38.6c1.2,0.7,3.1,0.7,4.3,0L133.1,205.5z"/>
			<path id="XMLID_10_" class="st35" d="M133.1,205.5c1.2-0.7,1.2-1.8,0-2.5l-66.4-38.7c-1.2-0.7-3.1-0.7-4.3,0l-5.8,3.5
				c-1.2,0.7-1.2,1.8,0,2.5l66.2,38.6c1.2,0.7,3.1,0.7,4.3,0L133.1,205.5z"/>
			<path id="XMLID_8_" class="st36" d="M133,205.4c1.2-0.7,1.2-1.8,0-2.5l-66.3-38.7c-1.2-0.7-3.1-0.7-4.3,0l-5.8,3.4
				c-1.2,0.7-1.2,1.8,0,2.5l66,38.5c1.2,0.7,3.1,0.7,4.3,0L133,205.4z"/>
			<path id="XMLID_7_" class="st37" d="M132.9,205.4c1.2-0.7,1.2-1.8,0-2.5l-66.2-38.6c-1.2-0.7-3.1-0.7-4.3,0l-5.7,3.4
				c-1.2,0.7-1.2,1.8,0,2.5l65.9,38.5c1.2,0.7,3.1,0.7,4.3,0L132.9,205.4z"/>
			<path id="XMLID_6_" class="st38" d="M132.8,205.4c1.2-0.7,1.2-1.8,0-2.4l-66.1-38.6c-1.2-0.7-3.1-0.7-4.2,0l-5.7,3.4
				c-1.2,0.7-1.2,1.8,0,2.5l65.8,38.4c1.2,0.7,3.1,0.7,4.3,0L132.8,205.4z"/>
			<path id="XMLID_5_" class="st39" d="M132.8,205.3c1.2-0.7,1.2-1.8,0-2.4l-66-38.5c-1.2-0.7-3.1-0.7-4.2,0l-5.7,3.4
				c-1.2,0.7-1.1,1.8,0,2.5l65.7,38.4c1.2,0.7,3.1,0.7,4.2,0L132.8,205.3z"/>
			<path id="XMLID_4_" class="st40" d="M132.7,205.3c1.2-0.7,1.2-1.8,0-2.4l-65.8-38.5c-1.2-0.7-3.1-0.7-4.2,0l-5.7,3.4
				c-1.2,0.7-1.1,1.8,0,2.5l65.6,38.3c1.2,0.7,3.1,0.7,4.2,0L132.7,205.3z"/>
			<path id="XMLID_3_" class="st41" d="M132.6,205.2c1.2-0.7,1.2-1.7,0-2.4l-65.7-38.4c-1.2-0.7-3-0.7-4.2,0l-5.6,3.4
				c-1.1,0.7-1.1,1.8,0,2.5l65.5,38.3c1.2,0.7,3,0.7,4.2,0L132.6,205.2z"/>
			<path id="XMLID_2_" class="st42" d="M132.5,205.2c1.2-0.7,1.2-1.7,0-2.4l-65.6-38.4c-1.2-0.7-3-0.7-4.2,0l-5.6,3.3
				c-1.1,0.7-1.1,1.8,0,2.4l65.4,38.2c1.2,0.7,3,0.7,4.2,0L132.5,205.2z"/>
			<path id="XMLID_271_" class="st43" d="M132.5,205.2c1.1-0.7,1.2-1.7,0-2.4L67,164.5c-1.1-0.7-3-0.6-4.1,0l-5.6,3.3
				c-1.1,0.7-1.1,1.8,0,2.4l65.3,38.2c1.1,0.7,3,0.7,4.2,0L132.5,205.2z"/>
		</g>
		<path id="XMLID_270_" class="st66" d="M134.5,205.2c1.3-0.7,1.3-2,0-2.7l-67.7-39.1c-1.3-0.8-3.4-0.7-4.7,0l-6.4,3.8
			c-1.3,0.8-1.3,2,0,2.8l67.4,38.9c1.3,0.8,3.4,0.8,4.8,0L134.5,205.2z"/>
		
			<linearGradient id="XMLID_186_" gradientUnits="userSpaceOnUse" x1="-75.7769" y1="185.4667" x2="4.9362" y2="185.4667" gradientTransform="matrix(-1 0 0 1 59.6631 0)">
			<stop  offset="0" style="stop-color:#FF9800"/>
			<stop  offset="1" style="stop-color:#FFC107"/>
		</linearGradient>
		<path id="XMLID_269_" class="st67" d="M134.5,204.5c1.3-0.7,1.3-2,0-2.7l-67.7-39.1c-1.3-0.8-3.4-0.7-4.7,0l-6.4,3.8
			c-1.3,0.8-1.3,2,0,2.8l67.4,38.9c1.3,0.8,3.4,0.8,4.8,0L134.5,204.5z"/>
		<polygon id="XMLID_268_" class="st43" points="132.1,200.5 127.8,203 126.8,202.4 131.1,199.9 		"/>
		<polygon id="XMLID_267_" class="st43" points="126.8,197.4 123.9,199.1 122.9,198.6 125.8,196.8 		"/>
		<polygon id="XMLID_266_" class="st43" points="121.5,194.4 118.6,196.1 117.6,195.5 120.5,193.8 		"/>
		<polygon id="XMLID_265_" class="st43" points="116.3,191.3 113.3,193 112.4,192.5 115.3,190.7 		"/>
		<polygon id="XMLID_264_" class="st43" points="111,188.3 106.7,190.8 105.7,190.2 110,187.7 		"/>
		<polygon id="XMLID_263_" class="st43" points="105.7,185.2 102.8,186.9 101.8,186.4 104.7,184.6 		"/>
		<polygon id="XMLID_262_" class="st43" points="100.5,182.2 97.5,183.9 96.6,183.3 99.5,181.6 		"/>
		<polygon id="XMLID_261_" class="st43" points="95.2,179.1 92.3,180.8 91.3,180.3 94.2,178.5 		"/>
		<polygon id="XMLID_260_" class="st43" points="89.9,176.1 85.6,178.6 84.6,178 88.9,175.5 		"/>
		<polygon id="XMLID_259_" class="st43" points="84.7,173 81.7,174.7 80.8,174.2 83.7,172.4 		"/>
		<polygon id="XMLID_258_" class="st43" points="79.4,170 76.5,171.7 75.5,171.1 78.4,169.4 		"/>
		<polygon id="XMLID_257_" class="st43" points="74.1,166.9 71.2,168.6 70.2,168.1 73.1,166.3 		"/>
		<polygon id="XMLID_256_" class="st43" points="68.9,163.9 64.5,166.4 63.6,165.8 67.9,163.3 		"/>
	</g>
	<g id="XMLID_1639_">
		<linearGradient id="XMLID_187_" gradientUnits="userSpaceOnUse" x1="96.9351" y1="175.6363" x2="99.3667" y2="171.6416">
			<stop  offset="0" style="stop-color:#FF9800"/>
			<stop  offset="1" style="stop-color:#FFC107"/>
		</linearGradient>
		<polygon id="XMLID_1645_" class="st68" points="77.7,159.4 123.6,185.5 121.4,189.6 77.7,164.6 73.6,159.7 		"/>
		<polygon id="XMLID_1644_" class="st69" points="77.7,159.4 77.7,164.6 73.6,159.7 		"/>
		<polygon id="XMLID_1643_" class="st43" points="74.6,159.7 73.6,159.7 74.6,160.9 		"/>
		<path id="XMLID_1642_" class="st66" d="M122.6,185.7c-0.9,0.5-1.7,1.8-1.7,2.9c0,1.1,0.8,1.5,1.7,1c0.9-0.5,1.7-1.8,1.7-2.9
			C124.2,185.6,123.5,185.2,122.6,185.7z"/>
		<path id="XMLID_1641_" class="st69" d="M122.6,185.7c-0.9,0.5-1.6,1.8-1.6,2.8c0,1,0.7,1.5,1.6,0.9c0.9-0.5,1.6-1.8,1.6-2.8
			C124.2,185.6,123.5,185.2,122.6,185.7z"/>
		<path id="XMLID_1640_" class="st43" d="M122.6,187.1c-0.2,0.1-0.4,0.5-0.4,0.8c0,0.3,0.2,0.4,0.4,0.3c0.2-0.1,0.4-0.5,0.4-0.8
			C123,187.1,122.8,186.9,122.6,187.1z"/>
	</g>
	<g id="XMLID_118_">
		<g id="XMLID_128_">
			<polygon id="XMLID_142_" class="st70" points="129.8,187.3 148.9,176.3 148.9,176 121.3,161.1 106.8,174 			"/>
			<polygon id="XMLID_141_" class="st43" points="129.8,187.1 148.9,176 121.3,160.8 106.8,173.8 			"/>
			<polygon id="XMLID_140_" class="st71" points="129,186.8 148.2,175.8 148.3,172.2 120.6,160.3 106.1,173.2 			"/>
			<polygon id="XMLID_137_" class="st70" points="118.3,154.4 148.9,171.8 148.9,172.1 129.8,183.2 99.1,165.5 			"/>
			<polygon id="XMLID_136_" class="st43" points="118.3,154.1 148.9,171.8 129.8,182.9 99.1,165.2 			"/>
			<polygon id="XMLID_135_" class="st72" points="122.3,158.3 130.9,163.2 115.4,172.1 106.8,167.2 			"/>
			<polygon id="XMLID_130_" class="st70" points="99.3,165.3 99.3,169.6 129.8,187.3 130,187.2 130,183 			"/>
			<polygon id="XMLID_129_" class="st43" points="99.1,165.2 99.1,169.5 129.8,187.3 129.8,182.9 			"/>
		</g>
		<g id="XMLID_119_">
			<polygon id="XMLID_127_" class="st73" points="124.8,180.2 141,170.9 141,170.7 117.8,158.1 105.6,169 			"/>
			<polygon id="XMLID_126_" class="st57" points="124.8,180 141,170.7 117.8,157.9 105.6,168.8 			"/>
			<polygon id="XMLID_125_" class="st72" points="124.2,179.8 140.3,170.5 140.4,167.5 117.1,157.5 104.9,168.3 			"/>
			<polygon id="XMLID_124_" class="st73" points="115.2,152.5 141,167.2 141,167.4 124.8,176.7 99.1,161.8 			"/>
			<polygon id="XMLID_123_" class="st57" points="115.2,152.3 141,167.2 124.8,176.5 99.1,161.6 			"/>
			<polygon id="XMLID_122_" class="st72" points="118.5,155.8 125.8,159.9 112.8,167.4 105.6,163.3 			"/>
			<polygon id="XMLID_121_" class="st73" points="99.3,161.7 99.3,165.3 124.8,180.2 125.1,180.1 125.1,176.6 			"/>
			<polygon id="XMLID_120_" class="st74" points="99.1,161.6 99.1,165.2 124.8,180.2 124.8,176.5 			"/>
		</g>
	</g>
	<path id="XMLID_1_" class="st60" d="M104.6,142.7l4.1,2.3v-2.6l7.6,4.4c0.2,0.1,0.3,0.1,0.5,0.2c0,0,0,0,0,0c0.1,0,0.1,0,0.2,0
		c0,0,0,0,0,0c0.1,0,0.1,0,0.2,0c0,0,0,0,0.1,0c0,0,0.1,0,0.1-0.1c0,0,0,0,0.1-0.1c0,0,0.1-0.1,0.1-0.1c0,0,0-0.1,0.1-0.1
		c0,0,0-0.1,0.1-0.1c0,0,0-0.1,0.1-0.2c0,0,0-0.1,0-0.1c0-0.1,0-0.2,0-0.3c0,0,0,0,0,0l0,0v-28.9c0-0.1,0-0.2,0-0.4
		c0-0.2-0.1-0.5-0.2-0.8c-0.1-0.1-0.1-0.2-0.2-0.4c-0.1-0.2-0.3-0.5-0.5-0.7s-0.4-0.4-0.6-0.5L81,94.1c-0.1-0.1-0.2-0.1-0.3-0.1
		c0,0-0.1,0-0.1,0c-0.1,0-0.1,0-0.2,0c-0.1,0-0.1,0-0.2,0c0,0-0.1,0-0.1,0c-0.1,0-0.1,0-0.2,0.1c0,0,0,0,0,0c-0.1,0-0.1,0.1-0.2,0.1
		c0,0,0,0,0,0c-0.1,0.1-0.1,0.1-0.1,0.2l-0.1,26.1c0,2.1,0.4,4.1,1.3,5.9c0.1,0,0.1,0.1,0.2,0.1l23.5,13.6V142.7z"/>
	<g id="XMLID_143_">
		<path id="XMLID_159_" class="st54" d="M77.6,96.1c-0.8-0.5-1.5-0.1-1.5,0.9v28.9c0,1,0.7,2.1,1.5,2.6l35.3,20.3
			c0.8,0.5,1.5,0.1,1.5-0.9V119c0-1-0.7-2.1-1.5-2.6L77.6,96.1z"/>
		<linearGradient id="XMLID_188_" gradientUnits="userSpaceOnUse" x1="76.0667" y1="122.4421" x2="114.3471" y2="122.4421">
			<stop  offset="0" style="stop-color:#F4F9FD"/>
			<stop  offset="0.2091" style="stop-color:#E6F1FA"/>
			<stop  offset="0.8511" style="stop-color:#B2D2F1"/>
			<stop  offset="0.9962" style="stop-color:#A5CBEF"/>
		</linearGradient>
		<path id="XMLID_158_" class="st75" d="M112.8,116.4L77.6,96.1c-0.8-0.5-1.4-0.1-1.5,0.8c0.1,0,0.1,0.1,0.2,0.1l35.3,20.3
			c0.8,0.5,1.5,1.7,1.5,2.6v28.9c0,0,0,0.1,0,0.1c0.7,0.3,1.3-0.1,1.3-1V119C114.3,118.1,113.7,116.9,112.8,116.4z"/>
		<g id="XMLID_156_">
			<polygon id="XMLID_157_" class="st57" points="111,124.2 78.2,105.3 78.2,103.9 111,122.8 			"/>
		</g>
		<g id="XMLID_154_">
			<polygon id="XMLID_155_" class="st57" points="111,128.4 78.2,109.5 78.2,108.1 111,127 			"/>
		</g>
		<g id="XMLID_152_">
			<polygon id="XMLID_153_" class="st57" points="111,132.7 78.2,113.7 78.2,112.4 111,131.3 			"/>
		</g>
		<g id="XMLID_150_">
			<polygon id="XMLID_151_" class="st57" points="93.4,126.7 78.2,118 78.2,116.6 93.4,125.3 			"/>
		</g>
		<g id="XMLID_144_">
			<linearGradient id="XMLID_189_" gradientUnits="userSpaceOnUse" x1="103.1647" y1="149.3801" x2="103.1647" y2="137.5302">
				<stop  offset="0" style="stop-color:#5D7DBE"/>
				<stop  offset="0.3052" style="stop-color:#5573B1"/>
				<stop  offset="0.872" style="stop-color:#41588E"/>
				<stop  offset="1" style="stop-color:#3C5185"/>
			</linearGradient>
			<polygon id="XMLID_148_" class="st76" points="101.1,137.5 101.1,147 102.9,146.7 105.2,149.4 105.2,139.9 			"/>
			<linearGradient id="XMLID_190_" gradientUnits="userSpaceOnUse" x1="98.9432" y1="137.6353" x2="107.3864" y2="137.6353">
				<stop  offset="0" style="stop-color:#FFC107"/>
				<stop  offset="0.8501" style="stop-color:#FF9800"/>
			</linearGradient>
			<path id="XMLID_147_" class="st77" d="M103.2,132.8c-2.3-1.3-4.2-0.2-4.2,2.4s1.9,6,4.2,7.3c2.3,1.3,4.2,0.2,4.2-2.4
				C107.4,137.4,105.5,134.1,103.2,132.8z"/>
			<linearGradient id="XMLID_191_" gradientUnits="userSpaceOnUse" x1="98.1972" y1="138.0083" x2="106.6404" y2="138.0083">
				<stop  offset="0.1499" style="stop-color:#FF9800"/>
				<stop  offset="1" style="stop-color:#FFC107"/>
			</linearGradient>
			<path id="XMLID_146_" class="st78" d="M102.4,133.1c-2.3-1.3-4.2-0.2-4.2,2.4s1.9,6,4.2,7.3c2.3,1.3,4.2,0.2,4.2-2.4
				C106.6,137.8,104.7,134.5,102.4,133.1z"/>
			<path id="XMLID_145_" class="st66" d="M102.4,134.2c-1.9-1.1-3.4-0.2-3.4,2c0,2.2,1.5,4.8,3.4,5.9c1.9,1.1,3.4,0.2,3.4-2
				S104.3,135.3,102.4,134.2z"/>
		</g>
	</g>
	<g id="XMLID_973_">
		<g id="XMLID_89_">
			<linearGradient id="XMLID_192_" gradientUnits="userSpaceOnUse" x1="52.4515" y1="96.3048" x2="60.2697" y2="96.3048">
				<stop  offset="0" style="stop-color:#A8D9FB"/>
				<stop  offset="1" style="stop-color:#FFFFFF"/>
			</linearGradient>
			<path id="XMLID_90_" class="st79" d="M57.7,106.9c-0.7,0-1.3-0.4-1.5-1l-3-7.3c-1.3-3.1-0.7-6.8,1.6-9.3l2.7-3
				c0.6-0.7,1.7-0.7,2.3-0.1c0.7,0.6,0.7,1.7,0.1,2.3l-2.7,3c-1.4,1.6-1.8,3.9-1,5.8l3,7.3c0.3,0.8-0.1,1.8-0.9,2.2
				C58.1,106.9,57.9,106.9,57.7,106.9z"/>
		</g>
		<path id="XMLID_87_" class="st43" d="M57.5,135.3l-1.5,1.1l-4.5,1.8c-0.3,0.1-0.6,0.5-0.6,0.8l-0.1,1c-0.1,0.7,0.5,1.2,1.2,1.1
			l6.5-1l0.6-0.5l0.6-0.1l0.6,0.6H61c0.6,0,1-0.5,1-1v-1.4l-1-2.5H57.5z"/>
		<g id="XMLID_83_">
			<path id="XMLID_84_" class="st45" d="M59.3,138.4c-1.4,0-2-1.2-2-2.6l-0.6-13L56.6,104c-0.1-1.4,1.2-2.9,2.6-3
				c1.4-0.1,3.4,1.4,3.5,2.8l-0.9,18.9l-0.4,13.1C61.5,137.2,60.7,138.4,59.3,138.4z"/>
		</g>
		<path id="XMLID_97_" class="st80" d="M80.5,94.3L80.5,94.3c-0.3,0-0.5-0.2-0.5-0.4l-0.2-3.1c0-0.3,0.2-0.5,0.4-0.5l0,0
			c0.3,0,0.5,0.2,0.5,0.4l0.2,3.1C80.9,94,80.7,94.3,80.5,94.3z"/>
		<g id="XMLID_95_">
			<path id="XMLID_96_" class="st80" d="M76.4,97.9c-1.9,0-3.8-0.8-5.1-2.2L67,91.4c-0.6-0.6-0.6-1.6,0-2.2c0.6-0.6,1.6-0.6,2.2,0
				l4.3,4.4c0.8,0.8,1.8,1.2,2.9,1.2c0,0,0,0,0,0c1.1,0,2.1-0.4,2.9-1.2l1.8-1.8c0.6-0.6,1.6-0.6,2.2,0c0.6,0.6,0.6,1.6,0,2.2
				l-1.8,1.8C80.2,97.2,78.4,97.9,76.4,97.9C76.4,97.9,76.4,97.9,76.4,97.9z"/>
		</g>
		<path id="XMLID_94_" class="st80" d="M80.8,93.1L80.8,93.1c-0.2-0.2-0.3-0.4-0.2-0.7l1.6-2.7c0.1-0.2,0.4-0.3,0.7-0.2l0,0
			c0.2,0.1,0.3,0.4,0.2,0.7l-1.6,2.7C81.3,93.1,81,93.2,80.8,93.1z"/>
		<path id="XMLID_93_" class="st80" d="M81.9,92.8L81.9,92.8c-0.2-0.2-0.3-0.5-0.1-0.7l1.9-2.5c0.2-0.2,0.5-0.3,0.7-0.1l0,0
			c0.2,0.2,0.3,0.5,0.1,0.7l-1.9,2.5C82.4,92.9,82.1,93,81.9,92.8z"/>
		<path id="XMLID_92_" class="st80" d="M82.3,93.4L82.3,93.4c-0.2-0.2-0.2-0.5,0-0.7l2.3-2.1c0.2-0.2,0.5-0.2,0.7,0l0,0
			c0.2,0.2,0.2,0.5,0,0.7l-2.3,2.1C82.8,93.6,82.4,93.6,82.3,93.4z"/>
		<path id="XMLID_91_" class="st80" d="M82,94.2L82,94.2c-0.1-0.3-0.1-0.5,0.2-0.7l2.7-1.5c0.2-0.1,0.5,0,0.7,0.2l0,0
			c0.1,0.2,0,0.5-0.2,0.7l-2.7,1.5C82.4,94.6,82.1,94.5,82,94.2z"/>
		<path id="XMLID_88_" class="st43" d="M66.4,143.6l-1.9,6.1l0,0c0.1,0.7,0.6,1.3,1.3,1.5l0.5,0.1c0.4,0.1,0.9,0,1.3-0.2l0,0
			c1.2-0.8,1.9-2,2.1-3.4l0.5-4.2l-0.7-1.5L66.4,143.6z"/>
		<linearGradient id="XMLID_193_" gradientUnits="userSpaceOnUse" x1="57.0351" y1="123.2236" x2="80.8297" y2="123.2236">
			<stop  offset="0" style="stop-color:#3C5185"/>
			<stop  offset="0.4" style="stop-color:#4D68A3"/>
			<stop  offset="0.7573" style="stop-color:#5977B7"/>
			<stop  offset="1" style="stop-color:#5D7DBE"/>
		</linearGradient>
		<path id="XMLID_85_" class="st81" d="M68.2,144.8c-1.3,0-2.1-1-2.2-2.3l-1.9-16.6l-3.3-16l-3.8-6.5c-0.1-1.4,6.4-1.6,7.8-1.7
			c1.4-0.1,4.1,3.8,4.2,5.2l0.2,18.6l1.2,16.5c0.1,1.4-0.5,2.7-2,2.8C68.4,144.8,68.3,144.8,68.2,144.8z"/>
		<linearGradient id="XMLID_194_" gradientUnits="userSpaceOnUse" x1="56.6098" y1="96.1291" x2="82.0826" y2="96.1291">
			<stop  offset="0" style="stop-color:#A8D9FB"/>
			<stop  offset="4.828250e-002" style="stop-color:#B3DEFC"/>
			<stop  offset="0.1892" style="stop-color:#CFEAFD"/>
			<stop  offset="0.342" style="stop-color:#E4F3FE"/>
			<stop  offset="0.5108" style="stop-color:#F3FAFE"/>
			<stop  offset="0.7076" style="stop-color:#FCFEFF"/>
			<stop  offset="1" style="stop-color:#FFFFFF"/>
		</linearGradient>
		<path id="XMLID_82_" class="st82" d="M81.6,93.5c-0.7-0.6-1.7-0.6-2.3,0c-0.7,0.8-1.7,1.2-2.8,1.2c0,0,0,0,0,0
			c-1.1,0-2.1-0.4-2.8-1.2l-3.7-3.8c-0.4-1-1.1-1.8-2.1-2.4c-0.1-0.1-0.2-0.1-0.3-0.2l-4.9-2.8c-2.6-1.5-5.9,0.4-5.9,3.4l0,16.9
			c1.9,2.7,6.1,4.7,12.6,3.4l0.4-6.4l0.5-7l1.1,1.2c1.4,1.4,3.2,2.2,5.2,2.2c0,0,0,0,0,0c2,0,3.8-0.8,5.2-2.2
			C82.3,95.2,82.2,94.1,81.6,93.5z"/>
		<path id="XMLID_81_" class="st72" d="M62.6,88.2l-2.3,1.7l0-1.3c0-0.6,0.1-1.2,0.4-1.8l0.9-2l0.6,0.1L62.6,88.2z"/>
		
			<linearGradient id="XMLID_195_" gradientUnits="userSpaceOnUse" x1="-308.8069" y1="90.0127" x2="-305.8871" y2="90.0127" gradientTransform="matrix(-1 0 0 1 -244.8999 0)">
			<stop  offset="0.1499" style="stop-color:#FF9800"/>
			<stop  offset="1" style="stop-color:#FFC107"/>
		</linearGradient>
		<polygon id="XMLID_981_" class="st83" points="62.6,88.2 63.9,90 62.7,91.8 61.5,91.4 61,89.4 		"/>
		<path id="XMLID_46_" class="st80" d="M63.4,88.5L63.4,88.5c-0.8,0-1.4-0.6-1.4-1.3v-4.8h2.7v4.8C64.8,87.9,64.2,88.5,63.4,88.5z"
			/>
		<path id="XMLID_39_" class="st80" d="M64,85.8h-1.2c-3.1,0-4.4-2.5-4.4-5.6v-1.2c0-1,0.8-1.7,1.7-1.7H63c1.2,0,2.2,1,2.2,2.2
			l1.3,4.8C66.6,84.9,64.7,85.8,64,85.8z"/>
		<g id="XMLID_38_">
			<path id="XMLID_176_" class="st43" d="M68.4,80.1c-0.3-1.7-1.5-3.3-3.1-4c-0.7-0.4-1.6-0.5-2.4-0.7c-1.3-0.2-2.7-0.2-3.9,0.3
				c-1.4,0.6-2,1.8-0.5,2.8c0.6,0.4,1.4,0.6,2.1,0.6c0.8,0,1.7,0,2.3,0.6c0.8,0.8,0.5,2.1,0.9,3.1c0.1,0,0.2,0,0.4,0
				c0.1-0.3,0.1-0.6,0.1-0.9c0-0.3,0.3-0.6,0.6-0.5c0.2,0.1,0.2,0.3,0.2,0.4c0.1,0.6,0.1,1.2-0.1,1.8c-0.1,0.5-0.3,1.3,0.1,1.6
				c0.8,0.5,2.1-1,2.5-1.6C68.3,82.6,68.6,81.3,68.4,80.1z"/>
		</g>
		<path id="XMLID_1030_" class="st72" d="M62.6,88.2l1.9,2.6l0.2-1.6c0.1-1,0.5-1.9,1.1-2.7l0,0c0.2-0.2,0.1-0.5-0.1-0.6l-0.6-0.3
			L62.6,88.2z"/>
		<path id="XMLID_36_" class="st43" d="M69.2,106.8c-6.4,1.3-10.7-0.7-12.6-3.4v1.3c1.9,2.7,6.1,4.7,12.6,3.4V106.8z"/>
		
			<linearGradient id="XMLID_196_" gradientUnits="userSpaceOnUse" x1="-307.6892" y1="99.081" x2="-305.2798" y2="99.081" gradientTransform="matrix(-1 0 0 1 -244.8999 0)">
			<stop  offset="0.1499" style="stop-color:#FF9800"/>
			<stop  offset="1" style="stop-color:#FFC107"/>
		</linearGradient>
		<polygon id="XMLID_979_" class="st84" points="62.8,91.8 62.4,105.7 61.1,106.8 60.4,105.4 61.5,91.4 		"/>
	</g>
</g>
</svg>
