<svg width="168" height="176" viewBox="0 0 168 176" fill="none" xmlns="http://www.w3.org/2000/svg">
<path d="M167.1 94.4081C167.1 136.808 125.2 175.308 82.7 175.308C40.2 175.308 0.799988 136.908 0.799988 94.4081C0.799988 51.9081 16 5.50806 58.4 5.50806C100.8 5.50806 167.1 51.9081 167.1 94.4081Z" fill="url(#paint0_linear_11_760)"/>
<g opacity="0.7">
<path opacity="0.02439" d="M116.5 79.9081L164.4 107.308C165.4 107.908 165.4 109.408 164.4 110.008L89.8 153.108C87.9 154.208 85.6 154.208 83.6 153.108L35.7 125.708C34.7 125.108 34.7 123.608 35.7 123.008L110.3 79.9081C112.2 78.8081 114.6 78.8081 116.5 79.9081Z" fill="#3C5185"/>
<path opacity="0.04878" d="M116.4 79.9081L164.2 107.208C165.2 107.808 165.2 109.308 164.2 109.908L89.8 152.808C87.9 153.908 85.6 153.908 83.7 152.808L35.9 125.608C34.9 125.008 34.9 123.508 35.9 122.908L110.3 80.0081C112.2 78.9081 114.5 78.9081 116.4 79.9081Z" fill="#3C5185"/>
<path opacity="0.073171" d="M116.4 80.0081L164 107.208C165 107.808 165 109.308 164 109.908L89.9 152.708C88 153.808 85.7 153.808 83.8 152.708L36.2 125.508C35.2 124.908 35.2 123.408 36.2 122.808L110.3 80.0081C112.2 78.9081 114.5 78.9081 116.4 80.0081Z" fill="#3C5185"/>
<path opacity="0.097561" d="M116.3 80.0082L163.8 107.108C164.8 107.708 164.8 109.208 163.8 109.808L89.9 152.508C88 153.608 85.7 153.608 83.8 152.508L36.3 125.408C35.3 124.808 35.3 123.308 36.3 122.708L110.2 80.0082C112.1 79.0082 114.4 79.0082 116.3 80.0082Z" fill="#3C5185"/>
<path opacity="0.122" d="M116.3 80.1081L163.6 107.208C164.6 107.808 164.6 109.308 163.6 109.908L89.9 152.408C88 153.508 85.7 153.508 83.8 152.408L36.5 125.308C35.5 124.708 35.5 123.208 36.5 122.608L110.2 80.1081C112.1 79.0081 114.4 79.0081 116.3 80.1081Z" fill="#3C5185"/>
<path opacity="0.1463" d="M116.2 80.1082L163.4 107.108C164.4 107.708 164.4 109.208 163.4 109.808L90 152.208C88.1 153.308 85.8 153.308 83.9 152.208L36.7 125.208C35.7 124.608 35.7 123.108 36.7 122.508L110.1 80.1082C112 79.1082 114.3 79.1082 116.2 80.1082Z" fill="#3C5185"/>
<path opacity="0.1707" d="M116.2 80.2082L163.2 107.108C164.2 107.708 164.2 109.208 163.2 109.708L90 152.008C88.1 153.108 85.8 153.108 84 152.008L37 125.108C36 124.508 36 123.008 37 122.508L110.2 80.2082C112 79.1082 114.3 79.1082 116.2 80.2082Z" fill="#3C5185"/>
<path opacity="0.1951" d="M116.1 80.2081L163 107.008C164 107.608 164 109.108 163 109.608L90 151.708C88.1 152.808 85.8 152.808 84 151.708L37.1 124.908C36.1 124.308 36.1 122.808 37.1 122.308L110.1 80.2081C112 79.2081 114.3 79.1081 116.1 80.2081Z" fill="#3C5185"/>
<path opacity="0.2195" d="M116.1 80.3082L162.8 107.008C163.8 107.608 163.8 109.008 162.8 109.608L90 151.608C88.1 152.708 85.9 152.708 84 151.608L37.3 124.908C36.3 124.308 36.3 122.908 37.3 122.308L110.1 80.3082C111.9 79.2082 114.2 79.2082 116.1 80.3082Z" fill="#3C5185"/>
<path opacity="0.2439" d="M116 80.3082L162.6 106.908C163.6 107.508 163.6 108.908 162.6 109.508L90.1 151.408C88.2 152.508 86 152.508 84.1 151.408L37.5 124.808C36.5 124.208 36.5 122.808 37.5 122.208L110 80.3082C111.9 79.2082 114.2 79.2082 116 80.3082Z" fill="#3C5185"/>
<path opacity="0.2683" d="M116 80.3081L162.4 106.808C163.4 107.408 163.4 108.808 162.4 109.408L90.1 151.108C88.3 152.208 86 152.208 84.1 151.108L37.7 124.608C36.7 124.008 36.7 122.608 37.7 122.008L110 80.3081C111.9 79.3081 114.1 79.3081 116 80.3081Z" fill="#3C5185"/>
<path opacity="0.2927" d="M115.9 80.4081L162.2 106.908C163.2 107.508 163.2 108.908 162.2 109.508L90.1 151.108C88.3 152.208 86 152.208 84.1 151.108L37.9 124.608C36.9 124.008 36.9 122.608 37.9 122.008L110 80.4081C111.8 79.3081 114.1 79.3081 115.9 80.4081Z" fill="#3C5185"/>
<path opacity="0.3171" d="M115.9 80.4081L162.1 106.808C163.1 107.408 163.1 108.808 162.1 109.408L90.2 150.908C88.4 152.008 86.1 152.008 84.3 150.908L38.1 124.508C37.1 123.908 37.1 122.508 38.1 121.908L110 80.4081C111.8 79.4081 114 79.4081 115.9 80.4081Z" fill="#3C5185"/>
<path opacity="0.3415" d="M115.8 80.5081L161.8 106.808C162.8 107.408 162.8 108.808 161.8 109.408L90.2 150.808C88.4 151.908 86.1 151.908 84.3 150.808L38.3 124.508C37.3 123.908 37.3 122.508 38.3 121.908L109.9 80.5081C111.7 79.4081 114 79.4081 115.8 80.5081Z" fill="#3C5185"/>
<path opacity="0.3659" d="M115.8 80.5082L161.7 106.708C162.7 107.308 162.7 108.708 161.7 109.308L90.3 150.508C88.5 151.608 86.2 151.608 84.4 150.508L38.5 124.308C37.5 123.708 37.5 122.308 38.5 121.708L109.9 80.5082C111.7 79.5082 114 79.5082 115.8 80.5082Z" fill="#3C5185"/>
<path opacity="0.3902" d="M115.7 80.6081L161.4 106.708C162.4 107.308 162.4 108.708 161.4 109.308L90.2 150.408C88.4 151.408 86.1 151.508 84.3 150.408L38.6 124.308C37.6 123.708 37.6 122.308 38.6 121.708L109.8 80.6081C111.7 79.5081 113.9 79.5081 115.7 80.6081Z" fill="#3C5185"/>
<path opacity="0.4146" d="M115.7 80.6082L161.3 106.608C162.3 107.208 162.3 108.608 161.3 109.208L90.4 150.208C88.6 151.208 86.4 151.308 84.5 150.208L38.9 124.208C37.9 123.608 37.9 122.208 38.9 121.608L109.8 80.6082C111.6 79.6082 113.9 79.6082 115.7 80.6082Z" fill="#3C5185"/>
<path opacity="0.439" d="M115.6 80.7082L161 106.708C162 107.308 162 108.708 161 109.308L90.3 150.108C88.5 151.108 86.3 151.108 84.5 150.108L39.1 124.108C38.1 123.508 38.1 122.108 39.1 121.508L109.8 80.7082C111.6 79.6082 113.8 79.6082 115.6 80.7082Z" fill="#3C5185"/>
<path opacity="0.4634" d="M115.6 80.7081L160.9 106.608C161.9 107.208 161.9 108.608 160.9 109.108L90.4 149.808C88.6 150.808 86.4 150.808 84.6 149.808L39.3 123.908C38.3 123.308 38.3 121.908 39.3 121.408L109.8 80.7081C111.6 79.7081 113.8 79.7081 115.6 80.7081Z" fill="#3C5185"/>
<path opacity="0.4878" d="M115.5 80.7081L160.6 106.508C161.6 107.108 161.6 108.508 160.6 109.008L90.3 149.608C88.5 150.608 86.3 150.608 84.5 149.608L39.4 123.808C38.4 123.208 38.4 121.808 39.4 121.308L109.7 80.7081C111.5 79.7081 113.7 79.7081 115.5 80.7081Z" fill="#3C5185"/>
<path opacity="0.5122" d="M115.5 80.8081L160.5 106.508C161.5 107.108 161.5 108.508 160.5 109.008L90.5 149.408C88.7 150.408 86.5 150.408 84.7 149.408L39.7 123.708C38.7 123.108 38.7 121.708 39.7 121.208L109.7 80.8081C111.5 79.8081 113.7 79.8081 115.5 80.8081Z" fill="#3C5185"/>
<path opacity="0.5366" d="M115.4 80.8081L160.2 106.408C161.2 107.008 161.2 108.408 160.2 108.908L90.4 149.208C88.6 150.208 86.4 150.208 84.6 149.208L39.8 123.608C38.8 123.008 38.8 121.608 39.8 121.108L109.6 80.8081C111.4 79.8081 113.6 79.8081 115.4 80.8081Z" fill="#3C5185"/>
<path opacity="0.561" d="M115.4 80.9081L160.1 106.408C161.1 107.008 161.1 108.408 160.1 108.908L90.5 149.108C88.7 150.108 86.5 150.108 84.8 149.108L40.1 123.608C39.1 123.008 39.1 121.608 40.1 121.108L109.7 80.9081C111.4 79.9081 113.6 79.9081 115.4 80.9081Z" fill="#3C5185"/>
<path opacity="0.5854" d="M115.3 80.9081L159.8 106.408C160.8 107.008 160.8 108.308 159.8 108.908L90.4 148.908C88.6 149.908 86.4 149.908 84.7 148.908L40.2 123.408C39.2 122.808 39.2 121.508 40.2 120.908L109.6 80.9081C111.4 79.9081 113.6 79.9081 115.3 80.9081Z" fill="#3C5185"/>
<path opacity="0.6098" d="M115.3 81.0082L159.7 106.408C160.7 107.008 160.7 108.308 159.7 108.908L90.6 148.808C88.8 149.808 86.7 149.808 84.9 148.808L40.5 123.408C39.5 122.808 39.5 121.508 40.5 120.908L109.6 81.0082C111.3 80.0082 113.5 80.0082 115.3 81.0082Z" fill="#3C5185"/>
<path opacity="0.6341" d="M115.2 81.0082L159.5 106.308C160.5 106.808 160.5 108.208 159.5 108.808L90.6 148.608C88.8 149.608 86.7 149.608 84.9 148.608L40.6 123.308C39.6 122.708 39.6 121.408 40.6 120.808L109.5 81.0082C111.3 80.0082 113.5 80.0082 115.2 81.0082Z" fill="#3C5185"/>
<path opacity="0.6585" d="M115.2 81.1082L159.3 106.308C160.3 106.808 160.3 108.208 159.3 108.808L90.6 148.408C88.8 149.408 86.7 149.408 84.9 148.408L40.8 123.208C39.8 122.708 39.8 121.308 40.8 120.708L109.5 81.1082C111.3 80.1082 113.4 80.1082 115.2 81.1082Z" fill="#3C5185"/>
<path opacity="0.6829" d="M115.1 81.1082L159.1 106.208C160.1 106.708 160.1 108.108 159.1 108.708L90.7 148.208C89 149.208 86.8 149.208 85 148.208L41 123.108C40 122.608 40 121.208 41 120.608L109.4 81.1082C111.2 80.1082 113.4 80.1082 115.1 81.1082Z" fill="#3C5185"/>
<path opacity="0.7073" d="M115.1 81.2081L158.9 106.208C159.9 106.708 159.9 108.108 158.9 108.708L90.7 148.108C89 149.108 86.8 149.108 85.1 148.108L41.3 123.108C40.3 122.608 40.3 121.208 41.3 120.608L109.5 81.2081C111.2 80.2081 113.3 80.2081 115.1 81.2081Z" fill="#3C5185"/>
<path opacity="0.7317" d="M115 81.2081L158.7 106.208C159.6 106.708 159.7 108.108 158.7 108.708L90.7 148.008C89 149.008 86.8 149.008 85.1 148.008L41.4 123.008C40.5 122.508 40.4 121.108 41.4 120.508L109.4 81.2081C111.1 80.2081 113.3 80.2081 115 81.2081Z" fill="#3C5185"/>
<path opacity="0.7561" d="M115 81.2081L158.5 106.108C159.4 106.608 159.4 108.008 158.5 108.508L90.7 147.608C89 148.608 86.8 148.608 85.1 147.608L41.6 122.708C40.7 122.208 40.7 120.808 41.6 120.308L109.4 81.2081C111.1 80.3081 113.2 80.2081 115 81.2081Z" fill="#3C5185"/>
<path opacity="0.7805" d="M114.9 81.3081L158.3 106.108C159.2 106.608 159.2 108.008 158.3 108.508L90.8 147.508C89.1 148.508 87 148.508 85.2 147.508L41.8 122.708C40.9 122.208 40.9 120.808 41.8 120.308L109.3 81.3081C111.1 80.3081 113.2 80.3081 114.9 81.3081Z" fill="#3C5185"/>
<path opacity="0.8049" d="M114.9 81.3081L158.1 106.008C159 106.508 159 107.908 158.1 108.408L90.8 147.308C89.1 148.308 87 148.308 85.2 147.308L42 122.608C41.1 122.108 41.1 120.708 42 120.208L109.3 81.3081C111 80.3081 113.2 80.3081 114.9 81.3081Z" fill="#3C5185"/>
<path opacity="0.8293" d="M114.8 81.4081L157.9 106.008C158.8 106.508 158.8 107.908 157.9 108.408L90.8 147.108C89.1 148.108 87 148.108 85.3 147.108L42.2 122.508C41.3 122.008 41.3 120.608 42.2 120.108L109.3 81.4081C111 80.4081 113.1 80.4081 114.8 81.4081Z" fill="#3C5185"/>
<path opacity="0.8537" d="M114.8 81.4081L157.7 105.908C158.6 106.408 158.6 107.808 157.7 108.308L90.9 146.908C89.2 147.908 87.1 147.908 85.4 146.908L42.5 122.408C41.6 121.908 41.6 120.508 42.5 120.008L109.3 81.4081C111 80.4081 113.1 80.4081 114.8 81.4081Z" fill="#3C5185"/>
<path opacity="0.878" d="M114.7 81.5082L157.5 106.008C158.4 106.508 158.4 107.908 157.5 108.408L90.9 146.908C89.2 147.908 87.1 147.908 85.4 146.908L42.6 122.408C41.7 121.908 41.7 120.508 42.6 120.008L109.2 81.5082C110.9 80.5082 113 80.5082 114.7 81.5082Z" fill="#3C5185"/>
<path opacity="0.9024" d="M114.7 81.5082L157.3 105.908C158.2 106.408 158.2 107.808 157.3 108.308L90.9 146.608C89.2 147.608 87.1 147.608 85.4 146.608L42.8 122.208C41.9 121.708 41.9 120.308 42.8 119.808L109.2 81.5082C110.9 80.5082 113 80.5082 114.7 81.5082Z" fill="#3C5185"/>
<path opacity="0.9268" d="M114.6 81.6082L157.1 105.908C158 106.408 158 107.808 157.1 108.308L91 146.408C89.3 147.408 87.2 147.408 85.5 146.408L43 122.208C42.1 121.708 42.1 120.308 43 119.808L109.2 81.6082C110.9 80.6082 112.9 80.6082 114.6 81.6082Z" fill="#3C5185"/>
<path opacity="0.9512" d="M114.6 81.6082L157 105.808C157.9 106.308 157.9 107.708 157 108.208L91 146.308C89.3 147.308 87.2 147.308 85.6 146.308L43.2 122.108C42.3 121.608 42.3 120.208 43.2 119.708L109.1 81.6082C110.8 80.6082 112.9 80.6082 114.6 81.6082Z" fill="#3C5185"/>
<path opacity="0.9756" d="M114.5 81.6081L156.7 105.708C157.6 106.208 157.6 107.508 156.7 108.108L91 146.108C89.3 147.108 87.3 147.108 85.6 146.108L43.4 122.008C42.5 121.508 42.5 120.208 43.4 119.608L109.1 81.7081C110.8 80.7081 112.8 80.7081 114.5 81.6081Z" fill="#3C5185"/>
<path opacity="0.7" d="M114.5 81.7081L156.6 105.708C157.5 106.208 157.5 107.508 156.6 108.108L91.1 145.908C89.4 146.908 87.4 146.908 85.7 145.908L43.6 121.908C42.7 121.408 42.7 120.108 43.6 119.508L109.1 81.7081C110.7 80.7081 112.8 80.7081 114.5 81.7081Z" fill="#3C5185"/>
</g>
<path d="M23.2 59.8081L95.8 17.9081C96.8 17.3081 98 18.0081 98 19.2081L111.5 73.9081C111.5 75.0081 110.9 76.1081 109.9 76.7081L37.3 118.608C36.3 119.208 35.6 118.708 35.1 117.308L21.6 62.6081C21.6 61.4081 22.2 60.3081 23.2 59.8081Z" fill="url(#paint1_linear_11_760)"/>
<path d="M24.1 60.4081L96.7 18.5081C97.7 17.9081 98.9 18.6081 98.9 19.8081L112.4 74.5081C112.4 75.6081 111.8 76.7081 110.8 77.3081L38.2 119.208C37.2 119.808 36.3 118.708 36 117.908L22.5 63.2081C22.5 62.0081 23.1 61.0081 24.1 60.4081Z" fill="#3C5185"/>
<path d="M26.8 63.9081L96.1 23.7081L108.6 74.2081L39.3 114.408L26.8 63.9081Z" fill="#EDF3FA"/>
<path d="M115.3 79.9081L161.8 104.408C161.8 104.408 162.1 108.008 161.1 108.608L89.9 149.708C88.1 150.708 85.8 150.808 84 149.708L38.3 123.608C36.4 122.408 37.6 119.408 37.6 119.408L109.5 79.9081C111.3 78.8081 113.5 78.8081 115.3 79.9081Z" fill="url(#paint2_linear_11_760)"/>
<path d="M115.3 77.1081L161 103.208C162 103.808 162 105.208 161 105.808L89.8 146.908C88 147.908 85.7 148.008 83.9 146.908L38.2 120.808C37.2 120.208 37.2 118.808 38.2 118.208L109.4 77.1081C111.3 76.0081 113.5 76.0081 115.3 77.1081Z" fill="white"/>
<path d="M119.4 110.908L131.5 117.808C131.8 117.908 131.8 118.308 131.5 118.508L112.7 129.308C112.2 129.608 111.6 129.608 111.2 129.308L99.1 122.408C98.8 122.308 98.8 121.908 99.1 121.708L117.9 110.908C118.3 110.608 118.9 110.608 119.4 110.908Z" fill="#D1E1F2"/>
<path d="M110.3 81.0081L106.4 83.3081C106.2 83.4081 106.2 83.6081 106.4 83.7081L108.4 84.8081C108.6 84.9081 108.8 84.9081 108.9 84.8081L112.8 82.5081C113 82.4081 113 82.2081 112.8 82.1081L110.8 81.0081C110.7 81.0081 110.5 81.0081 110.3 81.0081Z" fill="#D1E1F2"/>
<path d="M104.5 84.5081L100.6 86.8081C100.4 86.9081 100.4 87.1081 100.6 87.2081L102.6 88.3081C102.8 88.4081 103 88.4081 103.1 88.3081L107 86.0081C107.2 85.9081 107.2 85.7081 107 85.6081L105 84.5081C104.9 84.4081 104.7 84.4081 104.5 84.5081Z" fill="#D1E1F2"/>
<path d="M98.7 87.7081L94.8 90.0081C94.6 90.1081 94.6 90.3081 94.8 90.4081L96.8 91.5081C97 91.6081 97.2 91.6081 97.3 91.5081L101.2 89.2081C101.4 89.1081 101.4 88.9081 101.2 88.8081L99.2 87.7081C99.1 87.7081 98.9 87.7081 98.7 87.7081Z" fill="#D1E1F2"/>
<path d="M92.8 91.1081L88.9 93.4081C88.7 93.5081 88.7 93.7081 88.9 93.8081L90.9 94.9081C91.1 95.0081 91.3 95.0081 91.4 94.9081L95.3 92.6081C95.5 92.5081 95.5 92.3081 95.3 92.2081L93.3 91.1081C93.1 91.0081 92.9 91.0081 92.8 91.1081Z" fill="#D1E1F2"/>
<path d="M87 94.308L83.1 96.608C82.9 96.708 82.9 96.908 83.1 97.008L85.1 98.108C85.3 98.208 85.5 98.208 85.6 98.108L89.5 95.808C89.7 95.708 89.7 95.508 89.5 95.408L87.5 94.308C87.4 94.208 87.2 94.208 87 94.308Z" fill="#D1E1F2"/>
<path d="M81.5 97.7081L77.6 100.008C77.4 100.108 77.4 100.308 77.6 100.408L79.6 101.508C79.8 101.608 80 101.608 80.1 101.508L84 99.2081C84.2 99.1081 84.2 98.9081 84 98.8081L82 97.7081C81.8 97.7081 81.6 97.7081 81.5 97.7081Z" fill="#D1E1F2"/>
<path d="M75.6 101.008L71.7 103.308C71.5 103.408 71.5 103.608 71.7 103.708L73.7 104.808C73.9 104.908 74.1 104.908 74.2 104.808L78.1 102.508C78.3 102.408 78.3 102.208 78.1 102.108L76.1 101.008C76 100.908 75.8 100.908 75.6 101.008Z" fill="#D1E1F2"/>
<path d="M69.9 104.408L66 106.708C65.8 106.808 65.8 107.008 66 107.108L68 108.208C68.2 108.308 68.4 108.308 68.5 108.208L72.4 105.908C72.6 105.808 72.6 105.608 72.4 105.508L70.4 104.408C70.2 104.308 70 104.308 69.9 104.408Z" fill="#D1E1F2"/>
<path d="M64.2 107.708L60.3 110.008C60.1 110.108 60.1 110.308 60.3 110.408L62.3 111.508C62.5 111.608 62.7 111.608 62.8 111.508L66.7 109.208C66.9 109.108 66.9 108.908 66.7 108.808L64.7 107.708C64.6 107.608 64.4 107.608 64.2 107.708Z" fill="#D1E1F2"/>
<path d="M58.3 111.208L54.4 113.508C54.2 113.608 54.2 113.808 54.4 113.908L56.4 115.008C56.6 115.108 56.8 115.108 56.9 115.008L60.8 112.708C61 112.608 61 112.408 60.8 112.308L58.8 111.208C58.6 111.108 58.4 111.108 58.3 111.208Z" fill="#D1E1F2"/>
<path d="M52.5 114.408L48.6 116.708C48.4 116.808 48.4 117.008 48.6 117.108L50.6 118.208C50.8 118.308 51 118.308 51.1 118.208L55 115.908C55.2 115.808 55.2 115.608 55 115.508L53 114.408C52.8 114.308 52.6 114.308 52.5 114.408Z" fill="#D1E1F2"/>
<path d="M118.3 85.3081L115.6 83.7081C115.3 83.5081 114.8 83.5081 114.5 83.7081L111.9 85.2081C111.5 85.4081 111.5 85.9081 111.9 86.2081L114.5 87.8081C114.8 88.0081 115.3 88.0081 115.6 87.8081L118.3 86.3081C118.7 86.1081 118.7 85.6081 118.3 85.3081Z" fill="#D1E1F2"/>
<path d="M112.3 88.8081L109.6 87.2081C109.3 87.0081 108.8 87.0081 108.5 87.2081L105.9 88.7081C105.5 88.9081 105.5 89.4081 105.9 89.7081L108.5 91.3081C108.8 91.5081 109.3 91.5081 109.6 91.3081L112.3 89.8081C112.7 89.5081 112.7 89.0081 112.3 88.8081Z" fill="#D1E1F2"/>
<path d="M106.5 92.008L103.8 90.4081C103.5 90.2081 103 90.2081 102.7 90.4081L100.1 91.9081C99.7 92.1081 99.7 92.6081 100.1 92.9081L102.7 94.508C103 94.708 103.5 94.708 103.8 94.508L106.5 93.008C106.9 92.808 106.9 92.208 106.5 92.008Z" fill="#D1E1F2"/>
<path d="M100.4 95.4081L97.7 93.8081C97.4 93.6081 96.9 93.6081 96.6 93.8081L94 95.3081C93.6 95.5081 93.6 96.0081 94 96.3081L96.6 97.9081C96.9 98.1081 97.4 98.1081 97.7 97.9081L100.4 96.4081C100.7 96.1081 100.7 95.6081 100.4 95.4081Z" fill="#D1E1F2"/>
<path d="M94.9 98.6082L92.2 97.0082C91.9 96.8082 91.4 96.8082 91.1 97.0082L88.5 98.5082C88.1 98.7082 88.1 99.2082 88.5 99.5082L91.1 101.108C91.4 101.308 91.9 101.308 92.2 101.108L94.9 99.6082C95.3 99.3082 95.3 98.8082 94.9 98.6082Z" fill="#D1E1F2"/>
<path d="M89.4 102.008L86.7 100.408C86.4 100.208 85.9 100.208 85.6 100.408L83 101.908C82.6 102.108 82.6 102.608 83 102.908L85.6 104.508C85.9 104.708 86.4 104.708 86.7 104.508L89.4 103.008C89.8 102.808 89.8 102.208 89.4 102.008Z" fill="#D1E1F2"/>
<path d="M83.5 105.208L80.8 103.608C80.5 103.408 80 103.408 79.7 103.608L77.1 105.108C76.7 105.308 76.7 105.808 77.1 106.108L79.7 107.708C80 107.908 80.5 107.908 80.8 107.708L83.5 106.208C83.9 106.008 83.9 105.508 83.5 105.208Z" fill="#D1E1F2"/>
<path d="M77.7 108.508L75 106.908C74.7 106.708 74.2 106.708 73.9 106.908L71.3 108.408C70.9 108.608 70.9 109.108 71.3 109.408L73.9 111.008C74.2 111.208 74.7 111.208 75 111.008L77.7 109.508C78.1 109.308 78.1 108.708 77.7 108.508Z" fill="#D1E1F2"/>
<path d="M72 112.008L69.3 110.408C69 110.208 68.5 110.208 68.2 110.408L65.6 111.908C65.2 112.108 65.2 112.608 65.6 112.908L68.2 114.508C68.5 114.708 69 114.708 69.3 114.508L72 113.008C72.4 112.808 72.4 112.208 72 112.008Z" fill="#D1E1F2"/>
<path d="M65.8 115.708L63.1 114.108C62.8 113.908 62.3 113.908 62 114.108L59.4 115.608C59 115.808 59 116.308 59.4 116.608L62 118.208C62.3 118.408 62.8 118.408 63.1 118.208L65.8 116.708C66.2 116.408 66.2 115.908 65.8 115.708Z" fill="#D1E1F2"/>
<path d="M60.2 118.708L57.5 117.108C57.2 116.908 56.7 116.908 56.4 117.108L53.8 118.608C53.4 118.808 53.4 119.308 53.8 119.608L56.4 121.208C56.7 121.408 57.2 121.408 57.5 121.208L60.2 119.708C60.6 119.408 60.6 118.908 60.2 118.708Z" fill="#D1E1F2"/>
<path d="M124.3 88.608L121.6 87.008C121.3 86.808 120.8 86.808 120.5 87.008L117.9 88.508C117.5 88.708 117.5 89.208 117.9 89.508L120.5 91.108C120.8 91.308 121.3 91.308 121.6 91.108L124.3 89.608C124.6 89.308 124.6 88.808 124.3 88.608Z" fill="#D1E1F2"/>
<path d="M118.3 92.008L115.6 90.4081C115.3 90.2081 114.8 90.2081 114.5 90.4081L111.9 91.9081C111.5 92.1081 111.5 92.6081 111.9 92.9081L114.5 94.508C114.8 94.708 115.3 94.708 115.6 94.508L118.3 93.008C118.7 92.808 118.7 92.208 118.3 92.008Z" fill="#D1E1F2"/>
<path d="M112.5 95.3081L109.8 93.7081C109.5 93.5081 109 93.5081 108.7 93.7081L106.1 95.2081C105.7 95.4081 105.7 95.9081 106.1 96.2081L108.7 97.8081C109 98.0081 109.5 98.0081 109.8 97.8081L112.5 96.3081C112.9 96.0081 112.9 95.5081 112.5 95.3081Z" fill="#D1E1F2"/>
<path d="M106.3 98.608L103.6 97.008C103.3 96.808 102.8 96.808 102.5 97.008L99.9 98.508C99.5 98.708 99.5 99.208 99.9 99.508L102.5 101.108C102.8 101.308 103.3 101.308 103.6 101.108L106.3 99.608C106.7 99.408 106.7 98.808 106.3 98.608Z" fill="#D1E1F2"/>
<path d="M100.9 101.808L98.2 100.208C97.9 100.008 97.4 100.008 97.1 100.208L94.5 101.708C94.1 101.908 94.1 102.408 94.5 102.708L97.1 104.308C97.4 104.508 97.9 104.508 98.2 104.308L100.9 102.808C101.2 102.608 101.2 102.008 100.9 101.808Z" fill="#D1E1F2"/>
<path d="M95.3 105.208L92.6 103.608C92.3 103.408 91.8 103.408 91.5 103.608L88.9 105.108C88.5 105.308 88.5 105.808 88.9 106.108L91.5 107.708C91.8 107.908 92.3 107.908 92.6 107.708L95.3 106.208C95.7 106.008 95.7 105.508 95.3 105.208Z" fill="#D1E1F2"/>
<path d="M89.4 108.508L86.7 106.908C86.4 106.708 85.9 106.708 85.6 106.908L83 108.408C82.6 108.608 82.6 109.108 83 109.408L85.6 111.008C85.9 111.208 86.4 111.208 86.7 111.008L89.4 109.508C89.8 109.208 89.8 108.708 89.4 108.508Z" fill="#D1E1F2"/>
<path d="M83.7 111.808L81 110.208C80.7 110.008 80.2 110.008 79.9 110.208L77.3 111.708C76.9 111.908 76.9 112.408 77.3 112.708L79.9 114.308C80.2 114.508 80.7 114.508 81 114.308L83.7 112.808C84 112.508 84 112.008 83.7 111.808Z" fill="#D1E1F2"/>
<path d="M78 115.208L75.3 113.608C75 113.408 74.5 113.408 74.2 113.608L71.6 115.108C71.2 115.308 71.2 115.808 71.6 116.108L74.2 117.708C74.5 117.908 75 117.908 75.3 117.708L78 116.208C78.3 116.008 78.4 115.508 78 115.208Z" fill="#D1E1F2"/>
<path d="M71.8 118.908L69.1 117.308C68.8 117.108 68.3 117.108 68 117.308L65.4 118.808C65 119.008 65 119.508 65.4 119.808L68 121.408C68.3 121.608 68.8 121.608 69.1 121.408L71.8 119.908C72.2 119.608 72.2 119.108 71.8 118.908Z" fill="#D1E1F2"/>
<path d="M66.2 121.908L63.5 120.308C63.2 120.108 62.7 120.108 62.4 120.308L59.8 121.808C59.4 122.008 59.4 122.508 59.8 122.808L62.4 124.408C62.7 124.608 63.2 124.608 63.5 124.408L66.2 122.908C66.6 122.708 66.6 122.108 66.2 121.908Z" fill="#D1E1F2"/>
<path d="M130.2 91.8081L127.5 90.2081C127.2 90.0081 126.7 90.0081 126.4 90.2081L123.8 91.7081C123.4 91.9081 123.4 92.4081 123.8 92.7081L126.4 94.3081C126.7 94.5081 127.2 94.5081 127.5 94.3081L130.2 92.8081C130.6 92.6081 130.6 92.0081 130.2 91.8081Z" fill="#D1E1F2"/>
<path d="M124.2 95.2081L121.5 93.6081C121.2 93.4081 120.7 93.4081 120.4 93.6081L117.8 95.1081C117.4 95.3081 117.4 95.8081 117.8 96.1081L120.4 97.7081C120.7 97.9081 121.2 97.9081 121.5 97.7081L124.2 96.2081C124.6 96.0081 124.6 95.5081 124.2 95.2081Z" fill="#D1E1F2"/>
<path d="M118.4 98.508L115.7 96.9081C115.4 96.7081 114.9 96.7081 114.6 96.9081L112 98.4081C111.6 98.6081 111.6 99.1081 112 99.4081L114.6 101.008C114.9 101.208 115.4 101.208 115.7 101.008L118.4 99.508C118.8 99.208 118.8 98.708 118.4 98.508Z" fill="#D1E1F2"/>
<path d="M112.3 101.908L109.6 100.308C109.3 100.108 108.8 100.108 108.5 100.308L105.9 101.808C105.5 102.008 105.5 102.508 105.9 102.808L108.5 104.408C108.8 104.608 109.3 104.608 109.6 104.408L112.3 102.908C112.6 102.608 112.6 102.108 112.3 101.908Z" fill="#D1E1F2"/>
<path d="M106.8 105.108L104.1 103.508C103.8 103.308 103.3 103.308 103 103.508L100.4 105.008C100 105.208 100 105.708 100.4 106.008L103 107.608C103.3 107.808 103.8 107.808 104.1 107.608L106.8 106.108C107.2 105.808 107.2 105.308 106.8 105.108Z" fill="#D1E1F2"/>
<path d="M101.3 108.508L98.6 106.908C98.3 106.708 97.8 106.708 97.5 106.908L94.9 108.408C94.5 108.608 94.5 109.108 94.9 109.408L97.5 111.008C97.8 111.208 98.3 111.208 98.6 111.008L101.3 109.508C101.7 109.208 101.7 108.708 101.3 108.508Z" fill="#D1E1F2"/>
<path d="M95.3999 111.708L92.6999 110.108C92.3999 109.908 91.9 109.908 91.6 110.108L89 111.608C88.6 111.808 88.6 112.308 89 112.608L91.6 114.208C91.9 114.408 92.3999 114.408 92.6999 114.208L95.3999 112.708C95.7999 112.508 95.7999 111.908 95.3999 111.708Z" fill="#D1E1F2"/>
<path d="M89.6 115.008L86.9 113.408C86.6 113.208 86.1 113.208 85.8 113.408L83.2 114.908C82.8 115.108 82.8 115.608 83.2 115.908L85.8 117.508C86.1 117.708 86.6 117.708 86.9 117.508L89.6 116.008C90 115.708 90 115.208 89.6 115.008Z" fill="#D1E1F2"/>
<path d="M83.9 118.508L81.1999 116.908C80.8999 116.708 80.3999 116.708 80.0999 116.908L77.5 118.408C77.1 118.608 77.1 119.108 77.5 119.408L80.0999 121.008C80.3999 121.208 80.8999 121.208 81.1999 121.008L83.9 119.508C84.3 119.208 84.3 118.708 83.9 118.508Z" fill="#D1E1F2"/>
<path d="M77.7 122.108L75 120.508C74.7 120.308 74.2 120.308 73.9 120.508L71.3 122.008C70.9 122.208 70.9 122.708 71.3 123.008L73.9 124.608C74.2 124.808 74.7 124.808 75 124.608L77.7 123.108C78.1 122.908 78.1 122.308 77.7 122.108Z" fill="#D1E1F2"/>
<path d="M72.1 125.208L69.4 123.608C69.1 123.408 68.6 123.408 68.3 123.608L65.7 125.108C65.3 125.308 65.3 125.808 65.7 126.108L68.3 127.708C68.6 127.908 69.1 127.908 69.4 127.708L72.1 126.208C72.5 125.908 72.5 125.408 72.1 125.208Z" fill="#D1E1F2"/>
<path d="M136.2 95.008L133.5 93.4081C133.2 93.2081 132.7 93.2081 132.4 93.4081L129.8 94.9081C129.4 95.1081 129.4 95.6081 129.8 95.9081L132.4 97.508C132.7 97.708 133.2 97.708 133.5 97.508L136.2 96.008C136.5 95.808 136.5 95.308 136.2 95.008Z" fill="#D1E1F2"/>
<path d="M130.2 98.508L127.5 96.9081C127.2 96.7081 126.7 96.7081 126.4 96.9081L123.8 98.4081C123.4 98.6081 123.4 99.1081 123.8 99.4081L126.4 101.008C126.7 101.208 127.2 101.208 127.5 101.008L130.2 99.508C130.6 99.208 130.6 98.708 130.2 98.508Z" fill="#D1E1F2"/>
<path d="M124.4 101.708L121.7 100.108C121.4 99.908 120.9 99.908 120.6 100.108L118 101.608C117.6 101.808 117.6 102.308 118 102.608L120.6 104.208C120.9 104.408 121.4 104.408 121.7 104.208L124.4 102.708C124.7 102.508 124.8 101.908 124.4 101.708Z" fill="#D1E1F2"/>
<path d="M118.2 105.108L115.5 103.508C115.2 103.308 114.7 103.308 114.4 103.508L111.8 105.008C111.4 105.208 111.4 105.708 111.8 106.008L114.4 107.608C114.7 107.808 115.2 107.808 115.5 107.608L118.2 106.108C118.6 105.808 118.6 105.308 118.2 105.108Z" fill="#D1E1F2"/>
<path d="M112.3 108.608L109.6 107.008C109.3 106.808 108.8 106.808 108.5 107.008L94.9 114.808C94.5 115.008 94.5 115.508 94.9 115.808L97.5 117.408C97.8 117.608 98.3 117.608 98.6 117.408L112.2 109.508C112.6 109.408 112.6 108.908 112.3 108.608Z" fill="#D1E1F2"/>
<path d="M95.6 118.208L92.9 116.608C92.6 116.408 92.1 116.408 91.8 116.608L89.2 118.108C88.8 118.308 88.8 118.808 89.2 119.108L91.8 120.708C92.1 120.908 92.6 120.908 92.9 120.708L95.6 119.208C95.9 119.008 95.9 118.408 95.6 118.208Z" fill="#D1E1F2"/>
<path d="M89.8999 121.708L87.1999 120.108C86.8999 119.908 86.4 119.908 86.1 120.108L83.5 121.608C83.1 121.808 83.1 122.308 83.5 122.608L86.1 124.208C86.4 124.408 86.8999 124.408 87.1999 124.208L89.8999 122.708C90.1999 122.508 90.1999 121.908 89.8999 121.708Z" fill="#D1E1F2"/>
<path d="M83.7 125.408L81 123.808C80.7 123.608 80.2 123.608 79.9 123.808L77.3 125.308C76.9 125.508 76.9 126.008 77.3 126.308L79.9 127.908C80.2 128.108 80.7 128.108 81 127.908L83.7 126.408C84.1 126.108 84.1 125.608 83.7 125.408Z" fill="#D1E1F2"/>
<path d="M78.1 128.408L75.4 126.808C75.1 126.608 74.6 126.608 74.3 126.808L71.7 128.308C71.3 128.508 71.3 129.008 71.7 129.308L74.3 130.908C74.6 131.108 75.1 131.108 75.4 130.908L78.1 129.408C78.5 129.108 78.5 128.608 78.1 128.408Z" fill="#D1E1F2"/>
<path d="M136.8 111.408C137.4 111.408 137.9 111.108 138.1 110.508L141.1 102.408C141.8 100.508 141.4 98.408 140.2 96.908L137.1 93.108C136.6 92.508 135.8 92.408 135.2 92.908C134.6 93.408 134.5 94.208 135 94.808L138.1 98.608C138.7 99.408 138.9 100.508 138.6 101.508L135.6 109.608C135.3 110.308 135.7 111.108 136.4 111.408C136.5 111.308 136.7 111.408 136.8 111.408Z" fill="#3C5185"/>
<path d="M129.2 150.308L127.6 149.308V148.608L125.9 148.408L122.1 146.208C121.1 145.608 121.3 144.208 122.3 143.808C123 143.508 123.8 143.608 124.5 143.908L127.5 145.308L131.6 146.808L131.5 148.308C131.4 149.408 130.5 150.308 129.4 150.308H129.2Z" fill="#3C5185"/>
<path d="M129.9 149.908H129.7L128.1 148.908V148.208L126.4 148.008L122.6 145.808C121.9 145.408 121.8 144.608 122.1 144.008C121.3 144.508 121.2 145.708 122.1 146.208L125.9 148.408L127.6 148.608V149.308L129.2 150.308H129.4C130.1 150.308 130.7 150.008 131.1 149.408C130.7 149.708 130.3 149.908 129.9 149.908Z" fill="#48486A"/>
<path d="M135.5 146.108L133.9 145.108V144.408L132.2 144.208L128.4 142.008C127.4 141.408 127.6 140.008 128.6 139.608C129.3 139.308 130.1 139.408 130.8 139.708L133.8 141.108L137.9 142.608L137.8 144.108C137.7 145.208 136.8 146.108 135.7 146.108H135.5Z" fill="#3C5185"/>
<path d="M136.1 145.608H136L134.4 144.608V143.908L132.7 143.708L128.9 141.508C128.2 141.108 128.1 140.308 128.4 139.708C127.6 140.208 127.5 141.408 128.4 141.908L132.2 144.108L133.9 144.308V145.008L135.5 146.008H135.7C136.4 146.008 137 145.708 137.4 145.108C137 145.408 136.6 145.608 136.1 145.608Z" fill="#48486A"/>
<path d="M135.7 144.108C134.5 144.108 133.6 143.608 133.6 142.408L132.4 110.608C132.4 109.408 134.6 108.508 135.7 108.508C136.9 108.508 137.8 109.508 137.8 110.608V142.408C137.8 143.608 136.9 144.108 135.7 144.108Z" fill="url(#paint3_linear_11_760)"/>
<path d="M129.6 147.808C128.5 147.808 127.6 147.708 127.5 146.508L125.6 127.908V127.708L127.5 110.308C127.6 109.108 128.6 108.208 129.8 108.308C131 108.408 134.9 109.408 134.8 110.608L131.2 127.908L131.8 146.208C131.9 147.408 131 147.708 129.8 147.808C129.7 147.808 129.6 147.808 129.6 147.808Z" fill="url(#paint4_linear_11_760)"/>
<path opacity="0.3" d="M138.1 98.5081L135 94.7081C134.5 94.1081 134.6 93.2081 135.2 92.8081C135.8 92.3081 136.7 92.4081 137.1 93.0081L138.7 95.1081C138.8 96.7081 138.6 98.4081 138.5 99.8081C138.6 99.3081 138.4 98.9081 138.1 98.5081Z" fill="#48486A"/>
<path opacity="0.3" d="M138.1 110.508C137.9 111.108 137.4 111.408 136.8 111.408C136.6 111.408 136.5 111.408 136.3 111.308C135.6 111.008 135.2 110.208 135.5 109.508L138.4 101.808C138.4 102.108 138.3 102.308 138.3 102.308L138.4 109.608L138.1 110.508Z" fill="#48486A"/>
<path d="M138 93.4081C137.7 91.4081 135.8 90.0081 134 91.0081C133.8 91.1081 133.6 91.2081 133.4 91.3081C128.2 94.6081 127 98.9081 127 103.608L127.1 107.508L126.4 121.608C126.8 121.808 130.5 120.708 132.9 120.108C133.3 120.008 134.1 116.408 134.1 116.408C134.1 116.408 134.8 119.608 135.2 119.508C137.3 118.908 137.5 119.008 138 118.108L137.6 102.208C137.7 102.308 138.5 96.8081 138 93.4081Z" fill="url(#paint5_linear_11_760)"/>
<path d="M133.6 93.9081C133 93.9081 132.5 93.4081 132.5 92.8081V87.9081H134.6V92.8081C134.7 93.4081 134.2 93.9081 133.6 93.9081Z" fill="#F2B1B5"/>
<path d="M136.1 91.9081C132.6 91.9081 129.8 90.4081 129.8 86.9081V82.8081H136.1V91.9081Z" fill="#F2B1B5"/>
<path d="M138.2 87.5081C138.2 87.3081 138.2 87.0081 138.2 86.8081C138.2 85.9081 138.3 85.0081 138.2 84.0081C138 82.9081 137.5 81.7081 136.4 81.2081C135.8 80.9081 135 80.9081 134.4 80.9081C133 80.9081 131.6 80.9081 130.2 80.9081C129.6 80.9081 128.9 80.9081 128.4 81.3081C127.4 82.0081 127.9 83.3081 128.5 84.0081C128.8 84.4081 129.2 84.8081 129.7 85.0081C130.2 85.2081 130.9 85.0081 131.2 85.5081C131.6 86.1081 130.8 88.2081 131.7 88.4081C132.4 88.6081 132.3 87.9081 132.4 87.5081C132.5 87.2081 132.7 87.0081 132.9 87.0081C133.2 87.0081 133.4 87.3081 133.5 87.7081C133.6 88.3081 133.4 89.0081 133.4 89.6081C133.3 90.2081 133.4 91.0081 133.9 91.4081C134.1 91.6081 134.3 91.7081 134.5 91.7081C135.1 91.9081 136.3 92.2081 136.9 91.8081C137.7 91.1081 138.3 90.5081 138.4 89.4081C138.3 88.8081 138.2 88.1081 138.2 87.5081Z" fill="#3C5185"/>
<path opacity="0.3" d="M127.2 107.608L127.1 103.708C127.1 101.508 127.4 99.4081 128.2 97.4081L129.5 95.6081C129.9 95.0081 130.8 94.9081 131.4 95.3081C132 95.7081 131.9 96.1081 131.5 96.7081L128.5 101.608C127.4 103.108 127.2 105.108 128 106.708C128.6 107.908 129.2 109.108 129.6 110.308L130.6 113.108C131.1 113.708 129 112.908 128.7 112.608L127.1 110.308L127.2 107.608Z" fill="#48486A"/>
<path d="M129 115.208C129.884 115.208 130.6 114.492 130.6 113.608C130.6 112.724 129.884 112.008 129 112.008C128.116 112.008 127.4 112.724 127.4 113.608C127.4 114.492 128.116 115.208 129 115.208Z" fill="#F2B1B5"/>
<path d="M127.7 114.408C128.087 114.408 128.4 114.095 128.4 113.708C128.4 113.321 128.087 113.008 127.7 113.008C127.313 113.008 127 113.321 127 113.708C127 114.095 127.313 114.408 127.7 114.408Z" fill="#F2B1B5"/>
<path d="M128.4 113.708C128.6 113.708 128.9 113.608 129.1 113.508C129.7 113.108 129.9 112.308 129.5 111.708L126.7 107.208C125.5 105.308 125.8 102.808 127.4 101.208L131.1 97.4081C131.6 96.9081 131.6 96.0081 131.1 95.5081C130.6 95.0081 129.7 95.0081 129.2 95.5081L125.5 99.3081C123 101.808 122.6 105.608 124.5 108.608L127.3 113.108C127.5 113.508 128 113.708 128.4 113.708Z" fill="#F2B1B5"/>
<path d="M126.2 112.108L124.5 108.908C122.6 105.808 123 101.808 125.6 99.2081L129.5 95.3081C130 94.8081 130.9 94.8081 131.4 95.3081C131.9 95.8081 131.9 96.7081 131.4 97.2081L127.5 101.108C125.8 102.808 125.6 105.408 126.8 107.408L129.3 111.008C129.8 111.608 126.5 112.508 126.2 112.108Z" fill="url(#paint6_linear_11_760)"/>
<path opacity="0.3" d="M95.3 81.5081C95.6 81.5081 95.8 81.5081 96.1 81.5081L106.7 81.2081C107.9 81.1081 108.8 80.3081 109 79.3081C108.4 79.2081 107.7 79.1081 107.1 79.2081C107.5 78.7081 107.7 78.0081 107.7 77.3081L107.4 76.3081C106.8 76.0081 106.2 75.8081 105.6 75.8081L102.8 75.9081L103.3 74.9081C103.5 74.4081 103.3 73.8081 102.8 73.5081C102.3 73.2081 101.6 73.3081 101.4 73.8081L100.3 75.9081L95.1 76.1081C89.8 76.3081 84.6 73.5081 81.7 68.9081L78 63.0081L76.8 58.8081C76.3 56.9081 75 55.3081 73.4 54.3081C73.4 54.1081 73.5 53.8081 73.5 53.6081C73.5 53.3081 73.6 53.0081 73.7 52.7081L73.8 52.6081C74.1 52.4081 74.2 52.2081 74.2 51.9081C74.4 51.7081 74.5 51.5081 74.6 51.4081C75 50.8081 75 49.9081 75 49.1081C74.9 46.8081 74.5 44.5081 74.7 42.2081C74.8 40.6081 75.8 38.6081 75.4 36.9081C75.1 35.8081 74.4 34.8081 73.4 34.1081V33.8081C73.3 33.0081 73 32.2081 72.6 31.5081L52.5 42.9081C52.7 43.7081 52.8 44.4081 52.9 45.2081C53.1 47.2081 52.7 49.8081 52.1 52.1081C51.7 53.8081 51.2 55.4081 50.7 56.6081C50.3 57.7081 49.8 58.7081 49.3 59.8081C47.6 64.3081 47.9 69.6081 50.1 74.4081C50.4 75.1081 50.9 75.9081 51.5 76.4081C52.1 76.9081 52.9 77.1081 53.7 77.1081C53.9 77.1081 54 77.1081 54.2 77.1081C55.1 87.8081 57.2 101.108 57.7 103.708L59.6 102.608L64.6 99.6081L82.3 89.008C82 87.9081 81.7 86.8081 81.3 85.9081C80.2 82.8081 80.6 79.3081 80.9 76.2081C84.9 79.5081 90.1 81.5081 95.3 81.5081Z" fill="#3C5185"/>
<path d="M83.2 32.1081H81.3V31.7081C81.3 30.2081 80.5 28.9081 79.3 28.2081C78 27.5081 76.5 27.4081 75.2 28.2081L74.3 26.6081C76.2 25.6081 78.4 25.6081 80.2 26.7081C82 27.8081 83.1 29.7081 83.1 31.8081V32.1081H83.2Z" fill="#3C5185"/>
<path d="M72.1 38.7081C72.4 37.8081 72.8 36.9081 73.3 36.0081C74 34.5081 74.7 33.1081 75.9 31.9081C78.7 28.9081 84.3 31.0081 84.7 35.1081C84.9 36.8081 83.6 38.9081 83.3 40.6081C82.8 42.9081 82.8 45.4081 82.6 47.7081C82.5 48.5081 82.4 49.4081 81.9 50.1081C81.7 50.4081 81.3 50.7081 81.1 51.0081C80.8 51.4081 80.7 51.9081 80.5 52.4081C80.1 53.7081 79.8 55.1081 79.4 56.4081C78.9 58.1081 78.4 59.9081 77.1 61.1081C75.8 62.3081 73.5 62.5081 72.4 61.1081C72.1 60.7081 71.9 60.1081 71.8 59.6081C70.8 56.0081 70.6 52.2081 71 48.5081C71.3 45.3081 71.1 41.6081 72.1 38.7081Z" fill="url(#paint7_linear_11_760)"/>
<path d="M97.5 81.108C90.3 81.108 83.9 76.908 81 70.308L77 61.308C76.4 59.908 77 58.208 78.4 57.608C79.8 57.008 81.5 57.608 82.1 59.008L86.1 68.008C88.2 72.708 92.8 75.608 98 75.408L108.3 75.108C109.8 75.008 111.1 76.208 111.2 77.808C111.3 79.308 110.1 80.608 108.5 80.708L98.2 81.008C98 81.108 97.8 81.108 97.5 81.108Z" fill="#F2B1B5"/>
<path d="M83.3 85.4081C82.6 81.5081 84.2 76.9081 84.9 73.2081C86.1 71.5081 86.3 69.3081 85.5 67.3081L83.5 62.4081L82.9 57.6081C82.2 52.4081 76.2 49.8081 71.9 52.9081L62.4 59.9081C60.2 61.5081 59.9 64.3081 59.4 67.0081C57.5 77.3081 57.8 100.208 57.8 103.708L83.9 88.6081C83.7 87.5081 83.5 86.4081 83.3 85.4081Z" fill="url(#paint8_linear_11_760)"/>
<path d="M76 70.508C76 70.508 80.4 63.808 76 52.208C75.4 50.608 73 46.208 73 46.208L66.4 47.108L67.5 56.008C67.8 57.808 70.6 70.208 76 70.508Z" fill="#F2B1B5"/>
<path opacity="0.3" d="M70.9 80.608C78.7 76.708 76.3 75.108 77.3 74.908C79.4 74.608 79.3 75.508 83.2 73.608C84.8 72.808 85.7 71.008 85.7 69.208V70.608C85.7 72.408 84.7 74.108 83.2 75.008L80 76.408C78.8 76.908 77.6 77.608 76.4 78.308L70.9 82.008C68.9 83.208 66.3 81.708 66.3 79.308V77.908C66.3 80.308 68.8 81.708 70.9 80.608Z" fill="#2D3D64"/>
<path d="M67.3 53.608L67.9 46.908L73.1 46.208C73.1 46.208 75.5 50.608 76.1 52.208C76.3 52.808 77 54.808 77.2 55.408C75.8 55.608 74.4 55.508 73 55.108L67.3 53.608Z" fill="#EF9EA3"/>
<path d="M64.8 95.8081C64.5 92.3081 64.5 88.8081 64.8 85.3081L65.9 71.2081C66 69.7081 64.9 68.3081 63.3 68.2081C61.8 68.1081 60.4 69.2081 60.3 70.8081L59.2 84.9081C58.9 88.7081 58.9 92.5081 59.2 96.3081L59.7 102.708L65 99.6081L64.8 95.8081Z" fill="#F2B1B5"/>
<path d="M67.3 53.6081L73.8 52.8081C81 51.9081 82.8 45.7081 81.9 38.5081C81.5 35.7081 79 33.7081 76.1 34.1081L65 35.5081L67.3 53.6081Z" fill="#F2B1B5"/>
<path d="M62.9 82.808C64.5 82.708 65.8 81.408 66 79.808L67 70.808C67.2 68.908 65.9 67.308 64 67.108C62.1 66.908 60.5 68.208 60.3 70.108L59.3 79.108C59.1 81.008 60.4 82.608 62.3 82.808C62.4 82.808 62.7 82.808 62.9 82.808Z" fill="url(#paint9_linear_11_760)"/>
<path d="M59.9 50.6081C60.8 48.2081 61.6 45.5081 61.7 43.5081C62 39.5081 60.2 35.4081 63.5 32.2081C65.9 29.8081 69.7 29.6081 73 29.6081C75.3 29.6081 81 28.5081 82.2 31.3081C82.4 31.7081 82.4 32.1081 82.3 32.5081C82.2 34.6081 81.5 36.8081 80.1 38.3081C79.1 39.3081 77.8 39.9081 76.9 41.0081C75.8 42.3081 76.2 44.1081 75.3 45.5081C74.2 47.2081 72.9 48.9081 71.3 50.3081C67.8 53.2081 68.3 55.2081 68.4 59.6081C68.4 63.5081 68.2 68.0081 65.2 70.5081C64.8 70.8081 64.4 71.1081 64.1 71.4081C63.7 71.9081 63.5 72.6081 63.1 73.2081C62.2 75.0081 60.3 76.2081 58.3 76.3081C57.4 76.3081 56.4 76.1081 55.8 75.5081C55.2 75.0081 54.9 74.2081 54.7 73.5081C53.2 68.6081 53.7 63.1081 56 58.5081C56.6 57.4081 57.2 56.3081 57.8 55.2081C58.5 54.0081 59.2 52.4081 59.9 50.6081Z" fill="url(#paint10_linear_11_760)"/>
<path d="M82.2 31.3081C81.4 29.4081 78.7 29.3081 76.2 29.4081C78.1 29.5081 79.9 29.9081 80.5 31.3081C80.7 31.7081 80.7 32.1081 80.6 32.5081C80.5 34.6081 79.8 36.8081 78.4 38.3081C77.4 39.3081 76.1 39.9081 75.2 41.0081C74.1 42.3081 74.5 44.1081 73.6 45.5081C72.5 47.2081 71.2 48.9081 69.6 50.3081C66.1 53.2081 66.6 55.2081 66.7 59.6081C66.7 63.5081 66.5 68.0081 63.5 70.5081C63.1 70.8081 62.7 71.1081 62.4 71.4081C62 71.9081 61.8 72.6081 61.4 73.2081C60.6 74.8081 59.1 75.9081 57.3 76.2081C57.6 76.3081 57.9 76.3081 58.2 76.3081C60.2 76.2081 62.1 75.0081 63 73.2081C63.3 72.6081 63.5 71.9081 64 71.4081C64.3 71.0081 64.7 70.8081 65.1 70.5081C68.1 68.0081 68.3 63.6081 68.3 59.6081C68.3 55.2081 67.7 53.1081 71.2 50.3081C72.8 49.0081 74 47.3081 75.2 45.5081C76.1 44.1081 75.8 42.3081 76.8 41.0081C77.7 39.9081 79.1 39.3081 80 38.3081C81.5 36.8081 82.1 34.6081 82.2 32.5081C82.4 32.1081 82.4 31.7081 82.2 31.3081Z" fill="#FFCD39"/>
<path d="M69.1 47.008H67.2V38.608C67.2 33.608 69.9 29.008 74.2 26.608L75.1 28.208C71.3 30.308 69 34.308 69 38.608V47.008H69.1Z" fill="#3C5185"/>
<path d="M76.6 52.408C76.1 52.408 75.6 52.308 75.1 52.008L70.4 49.308L70.7 48.708L75.4 51.408C76.1 51.808 76.9 51.808 77.6 51.408L79.5 50.308L79.8 50.908L77.9 52.008C77.6 52.308 77.1 52.408 76.6 52.408Z" fill="#3C5185"/>
<path d="M68.2 40.0081C66.1 38.8081 64.4 39.8081 64.4 42.2081C64.4 44.6081 66.1 47.6081 68.2 48.8081C70.3 50.0081 72 49.0081 72 46.6081C72 44.2081 70.3 41.2081 68.2 40.0081Z" fill="#3C5185"/>
<path d="M68.2 40.0081C66.9 39.3081 65.8 39.4081 65.1 40.0081C65.7 39.9081 66.4 40.0081 67.1 40.5081C69.2 41.7081 70.9 44.7081 70.9 47.1081C70.9 48.1081 70.6 48.8081 70.1 49.3081C71.2 49.1081 71.9 48.2081 71.9 46.6081C72 44.2081 70.3 41.2081 68.2 40.0081Z" fill="url(#paint11_linear_11_760)"/>
<path d="M67.7 42.5081C66.5 41.8081 65.6 42.4081 65.6 43.7081C65.6 45.0081 66.5 46.7081 67.7 47.4081C68.9 48.1081 69.8 47.5081 69.8 46.2081C69.8 44.8081 68.9 43.1081 67.7 42.5081Z" fill="#4A65A3"/>
<path d="M67.7 42.5081C67 42.1081 66.4 42.1081 66 42.5081C66.3 42.4081 66.7 42.5081 67.1 42.8081C68.3 43.5081 69.2 45.1081 69.2 46.5081C69.2 47.0081 69 47.5081 68.8 47.7081C69.4 47.6081 69.8 47.1081 69.8 46.2081C69.8 44.8081 68.9 43.1081 67.7 42.5081Z" fill="url(#paint12_linear_11_760)"/>
<path d="M79.2 52.0081C78.9 52.0081 78.6 51.8081 78.4 51.5081C78.1 51.1081 78.3 50.5081 78.7 50.2081L79.9 49.5081C80.3 49.2081 80.9 49.4081 81.2 49.8081C81.5 50.2081 81.3 50.8081 80.9 51.1081L79.7 51.8081C79.5 52.0081 79.4 52.0081 79.2 52.0081Z" fill="#3C5185"/>
<path d="M102.9 77.708C102.4 77.408 102.3 76.708 102.6 76.308L104.5 73.208C104.8 72.708 105.5 72.608 105.9 72.908C106.4 73.208 106.5 73.908 106.2 74.308L104.3 77.408C104 77.808 103.4 78.008 102.9 77.708Z" fill="#F2B1B5"/>
<path d="M100.2 69.7081C104.1 67.5081 110.4 67.5081 114.3 69.7081C118.2 71.9081 118.2 75.6081 114.3 77.8081C110.4 80.0081 104.1 80.0081 100.2 77.8081C96.3 75.6081 96.3 71.9081 100.2 69.7081Z" fill="url(#paint13_radial_11_760)"/>
<path d="M109.3 73.1082L108.9 73.4082H105.4L105 73.1082C103.9 72.1082 103.2 70.6082 103.2 69.1082V67.6082H111.2V69.0082C111.2 70.6082 110.5 72.1082 109.3 73.1082Z" fill="#3C5185"/>
<path d="M107.7 74.5081H106.4C105.8 74.5081 105.2 74.0081 105.2 73.3081H108.8C108.9 74.0081 108.4 74.5081 107.7 74.5081Z" fill="#3C5185"/>
<path d="M110 66.0081C108.4 65.1081 105.9 65.1081 104.4 66.0081C102.8 66.9081 102.8 68.4081 104.4 69.3081C106 70.2081 108.5 70.2081 110 69.3081C111.6 68.3081 111.6 66.8081 110 66.0081Z" fill="#2842A2"/>
<path opacity="0.83" d="M107.2 52.6082C103.2 52.6082 99.9 55.9082 99.9 59.9082C99.9 62.5082 101.2 64.7082 103.2 66.0082V67.7082C103.2 68.3082 103.6 68.8082 104.4 69.3082C105.9 70.2082 108.5 70.2082 110 69.3082C110.7 68.9082 111.1 68.3082 111.2 67.7082V66.0082C113.2 64.7082 114.5 62.4082 114.5 59.9082C114.5 55.8082 111.3 52.6082 107.2 52.6082Z" fill="url(#paint14_linear_11_760)"/>
<path d="M103.1 60.7081C103.1 58.1081 105.2 55.9081 107.9 55.9081C110.3 55.9081 110.2 53.9081 107 53.9081C103.9 53.9081 101.4 56.4081 101.4 59.5081C101.4 61.5081 103.1 62.4081 103.1 60.7081Z" fill="white"/>
<path opacity="0.49" d="M110 69.9081C108.5 70.8081 105.9 70.8081 104.4 69.9081C103.7 69.5081 103.2 68.9081 103.2 68.3081V68.8081C103.2 69.4081 103.6 69.9081 104.4 70.4081C105.9 71.3081 108.5 71.3081 110 70.4081C110.7 70.0081 111.1 69.4081 111.2 68.8081V68.3081C111.2 68.9081 110.8 69.4081 110 69.9081Z" fill="#6E84B5"/>
<path opacity="0.49" d="M110 71.4082C108.5 72.3082 105.9 72.3082 104.4 71.4082C104 71.1082 103.6 70.8082 103.4 70.5082C103.5 70.9082 103.6 71.2082 103.8 71.5082C104 71.6082 104.1 71.8082 104.4 71.9082C105.9 72.8082 108.5 72.8082 110 71.9082C110.2 71.8082 110.3 71.7082 110.5 71.6082C110.7 71.2082 110.9 70.9082 111 70.5082C110.8 70.9082 110.5 71.2082 110 71.4082Z" fill="#6E84B5"/>
<path d="M107.2 52.0081C106.9 52.0081 106.6 51.7081 106.6 51.4081V46.8081C106.6 46.5081 106.9 46.2081 107.2 46.2081C107.5 46.2081 107.8 46.5081 107.8 46.8081V51.4081C107.8 51.7081 107.5 52.0081 107.2 52.0081ZM112.1 52.8081L114.4 48.9081C114.6 48.6081 114.5 48.3081 114.2 48.1081C113.9 47.9081 113.6 48.0081 113.4 48.3081L111.1 52.2081C110.9 52.5081 111 52.8081 111.3 53.0081C111.4 53.1081 111.5 53.1081 111.6 53.1081C111.8 53.1081 112 53.0081 112.1 52.8081ZM115.1 56.2081L119.1 53.9081C119.4 53.7081 119.5 53.4081 119.3 53.1081C119.1 52.8081 118.8 52.7081 118.5 52.9081L114.5 55.2081C114.2 55.4081 114.1 55.7081 114.3 56.0081C114.4 56.2081 114.6 56.3081 114.8 56.3081C114.9 56.3081 115 56.3081 115.1 56.2081ZM100.2 56.0081C100.4 55.7081 100.3 55.4081 100 55.2081L96.1 52.9081C95.8 52.7081 95.5 52.8081 95.3 53.1081C95.1 53.4081 95.2 53.7081 95.5 53.9081L99.4 56.2081C99.5 56.3081 99.6 56.3081 99.7 56.3081C99.9 56.3081 100.1 56.2081 100.2 56.0081ZM103.2 53.0081C103.5 52.8081 103.6 52.5081 103.4 52.2081L101.2 48.2081C101 47.9081 100.7 47.8081 100.4 48.0081C100.1 48.2081 100 48.5081 100.2 48.8081L102.4 52.8081C102.5 53.0081 102.7 53.1081 102.9 53.1081C103 53.1081 103.1 53.1081 103.2 53.0081Z" fill="url(#paint15_linear_11_760)"/>
<path d="M157.1 60.708C157.1 67.208 152.5 75.108 146.9 78.308C144.5 79.708 142.4 80.008 140.6 79.408L138.3 80.408C137.9 80.608 137.5 80.208 137.5 79.808L137.9 77.308C137.1 76.108 136.7 74.408 136.7 72.408C136.7 65.908 141.3 58.008 146.9 54.808C152.5 51.608 157.1 54.208 157.1 60.708Z" fill="url(#paint16_linear_11_760)"/>
<path d="M139.4 78.408C138.6 77.208 138.2 75.508 138.2 73.508C138.2 67.008 142.8 59.108 148.4 55.908C151.1 54.408 153.5 54.208 155.3 55.108C153.5 53.108 150.4 52.908 146.9 54.808C141.3 58.008 136.7 66.008 136.7 72.408C136.7 74.408 137.1 76.108 137.9 77.308L137.5 79.808C137.4 80.208 137.9 80.608 138.3 80.408L139.1 80.108L139.4 78.408Z" fill="url(#paint17_linear_11_760)"/>
<path d="M148.2 69.2081L146.7 70.0081V68.8081C146.7 68.4081 146.8 68.0081 146.8 67.8081C146.9 67.6081 147 67.2081 147.3 66.7081L148 65.2081C148.1 65.0081 148.2 64.7081 148.2 64.4081C148.2 64.1081 148.2 63.9081 148.1 63.7081C148 63.6081 147.9 63.5081 147.7 63.6081C147.5 63.7081 147.4 63.9081 147.3 64.2081C147.2 64.5081 147.1 64.8081 147.1 65.2081L145.6 66.1081C145.7 65.0081 146 64.1081 146.4 63.3081C146.8 62.5081 147.3 61.9081 147.9 61.6081C148.5 61.3081 149 61.3081 149.3 61.6081C149.7 61.9081 149.8 62.5081 149.8 63.5081C149.8 63.9081 149.7 64.2081 149.7 64.5081C149.6 64.7081 149.6 64.9081 149.6 65.0081C149.6 65.1081 149.5 65.3081 149.4 65.5081C149.3 65.7081 149.2 65.9081 149.2 65.9081C149 66.2081 148.9 66.5081 148.7 66.8081C148.6 67.1081 148.5 67.3081 148.4 67.5081C148.3 67.7081 148.3 67.9081 148.3 68.2081L148.2 69.2081ZM146.8 72.9081C146.6 72.7081 146.6 72.5081 146.6 72.1081C146.6 71.7081 146.7 71.4081 146.9 71.0081C147.1 70.6081 147.3 70.4081 147.5 70.3081C147.7 70.2081 147.9 70.2081 148.1 70.4081C148.3 70.6081 148.3 70.8081 148.3 71.2081C148.3 71.6081 148.2 72.0081 148 72.3081C147.8 72.7081 147.6 72.9081 147.4 73.0081C147.1 73.1081 146.9 73.1081 146.8 72.9081Z" fill="white"/>
<path d="M72.4 1.60807V18.1081C72.4 19.1081 71.9 20.1081 71 20.6081L68.4 22.3081L65.9 27.9081C65.7 28.7081 64.7 29.1081 64 28.8081L60.9 26.7081L38.5 39.6081C37.4 40.2081 36.1 39.5081 36.1 38.2081V21.4081C36.1 20.4081 36.6 19.4081 37.5 18.9081L70 0.208066C71 -0.391934 72.4 0.408067 72.4 1.60807Z" fill="#7EA7DF"/>
<path d="M37.2 38.8081V22.0081C37.2 21.0081 37.7 20.0081 38.6 19.5081L71.1 0.808106C71.4 0.608106 71.7 0.608105 72 0.608105C71.5 0.00810474 70.7 -0.191897 70 0.208103L37.5 18.9081C36.6 19.4081 36.1 20.4081 36.1 21.4081V38.2081C36.1 39.1081 36.8 39.8081 37.7 39.8081C37.4 39.5081 37.2 39.2081 37.2 38.8081Z" fill="url(#paint18_linear_11_760)"/>
<path d="M39.7 22.3081L70.1 4.90808V6.80808L39.7 24.3081V22.3081Z" fill="white"/>
<path d="M39.7 27.4081L70.1 9.90808V11.8081L39.7 29.3081V27.4081Z" fill="white"/>
<path d="M39.7 32.4081L57.1 22.3081V24.3081L39.7 34.4081V32.4081Z" fill="white"/>
<path d="M96.3 156.408C101.4 153.508 109.8 153.508 114.9 156.408C120 159.308 120 164.208 114.9 167.108C109.8 170.008 101.4 170.008 96.3 167.108C91.2 164.208 91.2 159.308 96.3 156.408Z" fill="url(#paint19_radial_11_760)"/>
<path d="M118.3 157.308C118.3 157.008 117.9 156.808 117.5 156.808H115.7C115.4 156.808 114.9 157.108 114.8 157.008C114.7 156.808 114.7 156.708 114.9 156.508L116.2 155.808C116.5 155.608 114.4 155.708 114.1 155.508V153.908C113.8 153.708 113.2 153.708 112.9 153.908L111.6 154.608C111.4 154.708 111.1 154.808 110.8 154.708C110.6 154.708 110.4 154.608 110.2 154.608C109.9 154.508 109.8 154.408 109.8 154.208V153.108C109.8 152.808 109.4 152.608 109 152.608H106C105.5 152.608 105.2 152.808 105.2 153.108V154.108C105.2 154.308 105 154.408 104.7 154.508C104.5 154.508 104.3 154.608 104.2 154.608C103.9 154.708 103.6 154.608 103.4 154.508L102.1 153.808C101.8 153.608 101.2 153.608 100.9 153.808L100.7 155.508C100.4 155.708 98.4 155.508 98.8 155.708L100.1 156.408C100.3 156.508 100.4 156.708 100.2 156.808C100.1 156.908 99.6 156.608 99.3 156.608H97.5C97 156.608 96.7 156.808 96.7 157.108V159.608C96.7 159.908 97.1 160.108 97.5 160.108H98.6V162.108V162.208C98.6 162.308 98.7 162.408 98.8 162.508L100.9 163.708C101.1 163.808 101.4 163.908 101.6 163.808C101.8 163.808 101.9 163.708 102 163.708L103.3 163.008C103.5 162.908 103.8 162.808 104.1 162.908C104.3 162.908 104.5 163.008 104.7 163.008C105 163.108 105.1 163.208 105.1 163.408V164.508C105.1 164.808 105.5 165.008 105.9 165.008H108.8C109.3 165.008 109.6 164.808 109.6 164.508V163.508C109.6 163.308 109.8 163.208 110.1 163.108C110.3 163.108 110.4 163.008 110.6 163.008C110.9 162.908 111.2 163.008 111.4 163.108L112.7 163.808C112.8 163.908 113 163.908 113.1 163.908C113.4 163.908 113.6 163.908 113.8 163.808L115.9 162.608C116 162.508 116.1 162.408 116.1 162.308V160.208H117.1C117.6 160.208 117.9 160.008 117.9 159.708L118.3 157.308ZM111.6 159.408C111.1 160.908 108.4 161.708 106 161.208C104.2 160.808 103 159.608 103.4 158.508C103.9 157.008 106.6 156.208 109 156.708C110.9 157.108 112 158.308 111.6 159.408Z" fill="#3C5185"/>
<path d="M116.4 154.508V153.208H114.5L114.1 153.008C113.8 152.808 113.2 152.808 112.9 153.008L112.5 153.208H109.9V152.208C109.9 151.908 109.5 151.708 109.1 151.708H106C105.5 151.708 105.2 151.908 105.2 152.208V153.208H102.5L102.1 153.008C101.8 152.808 101.2 152.808 100.9 153.008L100.5 153.208H98.6V154.508C98.6 154.608 98.7 154.808 98.8 154.908L100.1 155.608H114.9L116.2 154.908C116.3 154.708 116.4 154.608 116.4 154.508Z" fill="#3C5185"/>
<path d="M115.1 157.908H117.4C117.9 157.908 118.2 157.708 118.2 157.408V155.708C118.2 155.408 117.8 155.208 117.4 155.208H115.6C115.3 155.208 115 155.108 114.9 154.908C114.8 154.808 114.8 154.708 114.7 154.608C114.6 154.408 114.6 154.308 114.8 154.108L116.1 153.408C116.4 153.208 116.4 152.908 116.1 152.708L114 151.508C113.7 151.308 113.1 151.308 112.8 151.508L111.5 152.208C111.3 152.308 111 152.408 110.7 152.308C110.5 152.308 110.3 152.208 110.1 152.208C109.8 152.108 109.7 152.008 109.7 151.808V150.708C109.7 150.408 109.3 150.208 108.9 150.208H106C105.5 150.208 105.2 150.408 105.2 150.708V151.708C105.2 151.908 105 152.008 104.7 152.108C104.5 152.108 104.3 152.208 104.2 152.208C103.9 152.308 103.6 152.208 103.4 152.108L102.1 151.408C101.8 151.208 101.2 151.208 100.9 151.408L98.7999 152.608C98.4999 152.808 98.4999 153.108 98.7999 153.308L100.1 154.008C100.3 154.108 100.4 154.308 100.2 154.408C100.1 154.508 99.9999 154.608 99.9999 154.708C99.8999 154.908 99.5999 155.008 99.3999 155.008H97.5999C97.0999 155.008 96.7999 155.208 96.7999 155.508V157.208C96.7999 157.508 97.1999 157.708 97.5999 157.708H99.3999C99.6999 157.708 99.9999 157.808 100.1 158.008C100.2 158.108 100.2 158.208 100.3 158.308C100.4 158.508 100.4 158.608 100.2 158.808L98.8999 159.508C98.5999 159.708 98.5999 160.008 98.8999 160.208L101 161.408C101.3 161.608 101.9 161.608 102.2 161.408L103.5 160.708C103.7 160.608 104 160.508 104.3 160.608C104.5 160.608 104.7 160.708 104.9 160.708C105.2 160.808 105.3 160.908 105.3 161.108V162.208C105.3 162.508 105.7 162.708 106.1 162.708H109C109.5 162.708 109.8 162.508 109.8 162.208V161.208C109.8 161.008 110 160.908 110.3 160.808C110.5 160.808 110.6 160.708 110.8 160.708C111.1 160.608 111.4 160.708 111.6 160.808L112.9 161.508C113.2 161.708 113.8 161.708 114.1 161.508L116.2 160.308C116.5 160.108 116.5 159.808 116.2 159.608L114.9 158.908C114.7 158.808 114.6 158.608 114.8 158.508C114.9 158.208 115.1 157.908 115.1 157.908ZM103.4 156.208C103.9 154.708 106.6 153.908 109 154.408C110.8 154.808 112 156.008 111.6 157.108C111.1 158.608 108.4 159.408 106 158.908C104.2 158.408 103 157.308 103.4 156.208Z" fill="#4A65A3"/>
<path d="M62 167.208L79.1 157.308V157.008L54.4 143.708L41.5 155.308L62 167.208Z" fill="#63749D"/>
<path d="M62 166.908L79.1 157.008L54.4 143.508L41.5 155.008L62 166.908Z" fill="#3C5185"/>
<path d="M61.3 166.708L78.4 156.808L78.5 153.708L53.7 143.008L40.8 154.608L61.3 166.708Z" fill="#F1F2F2"/>
<path d="M51.7 137.708L79.1 153.308V153.608L62 163.408L34.5 147.608L51.7 137.708Z" fill="#63749D"/>
<path d="M51.7 137.508L79.1 153.308L62 163.208L34.5 147.408L51.7 137.508Z" fill="#3C5185"/>
<path d="M55.3 141.208L63 145.608L49.2 153.608L41.5 149.108L55.3 141.208Z" fill="white"/>
<path d="M34.8 147.508V151.408L62 167.208L62.2 167.008V163.308L34.8 147.508Z" fill="#63749D"/>
<path d="M34.5 147.408V151.208L62 167.208V163.208L34.5 147.408Z" fill="#3C5185"/>
<path d="M57.6 160.808L72 152.508V152.308L51.2 141.108L40.4 150.808L57.6 160.808Z" fill="#E3EDF7"/>
<path d="M57.6 160.608L72 152.308L51.2 140.908L40.4 150.608L57.6 160.608Z" fill="#D1E1F2"/>
<path d="M57 160.408L71.4 152.108L71.5 149.408L50.7 140.508L39.8 150.208L57 160.408Z" fill="white"/>
<path d="M48.9 136.008L72 149.108V149.308L57.6 157.708L34.5 144.408L48.9 136.008Z" fill="#E3EDF7"/>
<path d="M48.9 135.808L72 149.108L57.6 157.508L34.5 144.208L48.9 135.808Z" fill="#D1E1F2"/>
<path d="M51.9 139.008L58.4 142.708L46.8 149.408L40.4 145.608L51.9 139.008Z" fill="white"/>
<path d="M34.7 144.308V147.508L57.6 160.808L57.8 160.708V157.608L34.7 144.308Z" fill="#E3EDF7"/>
<path d="M34.5 144.208V147.408L57.6 160.808V157.508L34.5 144.208Z" fill="#DAE7F5"/>
<defs>
<linearGradient id="paint0_linear_11_760" x1="107.97" y1="174.494" x2="55.6348" y2="3.83595" gradientUnits="userSpaceOnUse">
<stop offset="0.1217" stop-color="white"/>
<stop offset="1" stop-color="#E1EBF7"/>
</linearGradient>
<linearGradient id="paint1_linear_11_760" x1="111.467" y1="68.2168" x2="21.5903" y2="68.2168" gradientUnits="userSpaceOnUse">
<stop stop-color="white"/>
<stop offset="0.3956" stop-color="#D5E7F8"/>
<stop offset="0.7864" stop-color="#B2D3F1"/>
<stop offset="0.9962" stop-color="#A5CBEF"/>
</linearGradient>
<linearGradient id="paint2_linear_11_760" x1="161.851" y1="114.797" x2="37.1809" y2="114.797" gradientUnits="userSpaceOnUse">
<stop offset="0.00380205" stop-color="#A5CBEF"/>
<stop offset="0.2136" stop-color="#B2D3F1"/>
<stop offset="0.6044" stop-color="#D5E7F8"/>
<stop offset="1" stop-color="white"/>
</linearGradient>
<linearGradient id="paint3_linear_11_760" x1="132.328" y1="126.303" x2="137.818" y2="126.303" gradientUnits="userSpaceOnUse">
<stop stop-color="white"/>
<stop offset="1" stop-color="#A8D9FB"/>
</linearGradient>
<linearGradient id="paint4_linear_11_760" x1="125.524" y1="128.044" x2="134.685" y2="128.044" gradientUnits="userSpaceOnUse">
<stop stop-color="white"/>
<stop offset="1" stop-color="#A8D9FB"/>
</linearGradient>
<linearGradient id="paint5_linear_11_760" x1="126.436" y1="106.222" x2="138.165" y2="106.222" gradientUnits="userSpaceOnUse">
<stop stop-color="#5D7DBE"/>
<stop offset="1" stop-color="#3C5185"/>
</linearGradient>
<linearGradient id="paint6_linear_11_760" x1="117.659" y1="111.133" x2="139.128" y2="96.6969" gradientUnits="userSpaceOnUse">
<stop stop-color="#3C5185"/>
<stop offset="0.1361" stop-color="#435A91"/>
<stop offset="0.4277" stop-color="#4F6AA6"/>
<stop offset="0.7171" stop-color="#5674B2"/>
<stop offset="1" stop-color="#5877B6"/>
</linearGradient>
<linearGradient id="paint7_linear_11_760" x1="69.8481" y1="47.0938" x2="85.9387" y2="45.0188" gradientUnits="userSpaceOnUse">
<stop offset="0.1499" stop-color="#FF9800"/>
<stop offset="1" stop-color="#FFC107"/>
</linearGradient>
<linearGradient id="paint8_linear_11_760" x1="57.6945" y1="77.6648" x2="85.9396" y2="77.6648" gradientUnits="userSpaceOnUse">
<stop stop-color="#3C5185"/>
<stop offset="0.128" stop-color="#41588E"/>
<stop offset="0.6948" stop-color="#5573B1"/>
<stop offset="1" stop-color="#5D7DBE"/>
</linearGradient>
<linearGradient id="paint9_linear_11_760" x1="59.2143" y1="74.9492" x2="66.9659" y2="74.9492" gradientUnits="userSpaceOnUse">
<stop stop-color="#3C5185"/>
<stop offset="0.128" stop-color="#41588E"/>
<stop offset="0.6948" stop-color="#5573B1"/>
<stop offset="1" stop-color="#5D7DBE"/>
</linearGradient>
<linearGradient id="paint10_linear_11_760" x1="53.7215" y1="53.0006" x2="82.5443" y2="52.7614" gradientUnits="userSpaceOnUse">
<stop offset="0.1499" stop-color="#FF9800"/>
<stop offset="1" stop-color="#FFC107"/>
</linearGradient>
<linearGradient id="paint11_linear_11_760" x1="72.1859" y1="48.8514" x2="66.6063" y2="39.2139" gradientUnits="userSpaceOnUse">
<stop stop-color="#3C5185"/>
<stop offset="0.128" stop-color="#41588E"/>
<stop offset="0.6948" stop-color="#5573B1"/>
<stop offset="1" stop-color="#5D7DBE"/>
</linearGradient>
<linearGradient id="paint12_linear_11_760" x1="69.8919" y1="47.364" x2="66.8179" y2="42.0545" gradientUnits="userSpaceOnUse">
<stop stop-color="#3C5185"/>
<stop offset="0.128" stop-color="#41588E"/>
<stop offset="0.6948" stop-color="#5573B1"/>
<stop offset="1" stop-color="#5D7DBE"/>
</linearGradient>
<radialGradient id="paint13_radial_11_760" cx="0" cy="0" r="1" gradientUnits="userSpaceOnUse" gradientTransform="translate(107.206 74.1408) scale(10.0533 5.19957)">
<stop stop-color="#3C5185"/>
<stop offset="0.0519354" stop-color="#596B97"/>
<stop offset="0.1411" stop-color="#8592B3"/>
<stop offset="0.2346" stop-color="#ABB4CA"/>
<stop offset="0.3312" stop-color="#C9CFDD"/>
<stop offset="0.432" stop-color="#E1E4EC"/>
<stop offset="0.5389" stop-color="#F2F3F7"/>
<stop offset="0.6559" stop-color="#FCFCFD"/>
<stop offset="0.8023" stop-color="white"/>
</radialGradient>
<linearGradient id="paint14_linear_11_760" x1="99.9137" y1="61.2372" x2="114.538" y2="61.2372" gradientUnits="userSpaceOnUse">
<stop offset="0.0212325" stop-color="#FFC107"/>
<stop offset="0.1431" stop-color="#FFBC06"/>
<stop offset="1" stop-color="#FF9800"/>
</linearGradient>
<linearGradient id="paint15_linear_11_760" x1="95.1963" y1="51.268" x2="119.335" y2="51.268" gradientUnits="userSpaceOnUse">
<stop offset="0.0212325" stop-color="#FFC107"/>
<stop offset="0.1431" stop-color="#FFBC06"/>
<stop offset="1" stop-color="#FF9800"/>
</linearGradient>
<linearGradient id="paint16_linear_11_760" x1="155.858" y1="78.929" x2="140.191" y2="60.0956" gradientUnits="userSpaceOnUse">
<stop stop-color="#3C5185"/>
<stop offset="0.128" stop-color="#41588E"/>
<stop offset="0.6948" stop-color="#5573B1"/>
<stop offset="1" stop-color="#5D7DBE"/>
</linearGradient>
<linearGradient id="paint17_linear_11_760" x1="152.099" y1="50.9374" x2="131.848" y2="85.3738" gradientUnits="userSpaceOnUse">
<stop stop-color="#5D7DBE"/>
<stop offset="0.3052" stop-color="#5573B1"/>
<stop offset="0.872" stop-color="#41588E"/>
<stop offset="1" stop-color="#3C5185"/>
</linearGradient>
<linearGradient id="paint18_linear_11_760" x1="36.0353" y1="19.8987" x2="71.9789" y2="19.8987" gradientUnits="userSpaceOnUse">
<stop stop-color="#7EA7DF"/>
<stop offset="0.3579" stop-color="#A1BFE7"/>
<stop offset="0.7751" stop-color="#C4D8EF"/>
<stop offset="1" stop-color="#D1E1F2"/>
</linearGradient>
<radialGradient id="paint19_radial_11_760" cx="0" cy="0" r="1" gradientUnits="userSpaceOnUse" gradientTransform="translate(105.605 162.137) scale(13.2552 6.85559)">
<stop stop-color="#3C5185"/>
<stop offset="0.0574451" stop-color="#506291"/>
<stop offset="0.2541" stop-color="#8D9AB8"/>
<stop offset="0.4339" stop-color="#BEC5D7"/>
<stop offset="0.5909" stop-color="#E2E5ED"/>
<stop offset="0.719" stop-color="#F7F8FA"/>
<stop offset="0.8023" stop-color="white"/>
</radialGradient>
</defs>
</svg>
