<?xml version="1.0" encoding="utf-8"?>
<!-- Generator: Adobe Illustrator 19.0.0, SVG Export Plug-In . SVG Version: 6.00 Build 0)  -->
<svg version="1.1" id="Layer_1" xmlns="http://www.w3.org/2000/svg" xmlns:xlink="http://www.w3.org/1999/xlink" x="0px" y="0px"
	 viewBox="0 0 256 256" style="enable-background:new 0 0 256 256;" xml:space="preserve">
<style type="text/css">
	.st0{fill:url(#XMLID_4_);}
	.st1{opacity:0.7;}
	.st2{opacity:0;fill:#3C5185;}
	.st3{opacity:2.439000e-002;fill:#3C5185;}
	.st4{opacity:4.878000e-002;fill:#3C5185;}
	.st5{opacity:7.317100e-002;fill:#3C5185;}
	.st6{opacity:9.756100e-002;fill:#3C5185;}
	.st7{opacity:0.122;fill:#3C5185;}
	.st8{opacity:0.1463;fill:#3C5185;}
	.st9{opacity:0.1707;fill:#3C5185;}
	.st10{opacity:0.1951;fill:#3C5185;}
	.st11{opacity:0.2195;fill:#3C5185;}
	.st12{opacity:0.2439;fill:#3C5185;}
	.st13{opacity:0.2683;fill:#3C5185;}
	.st14{opacity:0.2927;fill:#3C5185;}
	.st15{opacity:0.3171;fill:#3C5185;}
	.st16{opacity:0.3415;fill:#3C5185;}
	.st17{opacity:0.3659;fill:#3C5185;}
	.st18{opacity:0.3902;fill:#3C5185;}
	.st19{opacity:0.4146;fill:#3C5185;}
	.st20{opacity:0.439;fill:#3C5185;}
	.st21{opacity:0.4634;fill:#3C5185;}
	.st22{opacity:0.4878;fill:#3C5185;}
	.st23{opacity:0.5122;fill:#3C5185;}
	.st24{opacity:0.5366;fill:#3C5185;}
	.st25{opacity:0.561;fill:#3C5185;}
	.st26{opacity:0.5854;fill:#3C5185;}
	.st27{opacity:0.6098;fill:#3C5185;}
	.st28{opacity:0.6341;fill:#3C5185;}
	.st29{opacity:0.6585;fill:#3C5185;}
	.st30{opacity:0.6829;fill:#3C5185;}
	.st31{opacity:0.7073;fill:#3C5185;}
	.st32{opacity:0.7317;fill:#3C5185;}
	.st33{opacity:0.7561;fill:#3C5185;}
	.st34{opacity:0.7805;fill:#3C5185;}
	.st35{opacity:0.8049;fill:#3C5185;}
	.st36{opacity:0.8293;fill:#3C5185;}
	.st37{opacity:0.8537;fill:#3C5185;}
	.st38{opacity:0.878;fill:#3C5185;}
	.st39{opacity:0.9024;fill:#3C5185;}
	.st40{opacity:0.9268;fill:#3C5185;}
	.st41{opacity:0.9512;fill:#3C5185;}
	.st42{opacity:0.9756;fill:#3C5185;}
	.st43{fill:#3C5185;}
	.st44{fill:url(#XMLID_7_);}
	.st45{fill:#EDF3FA;}
	.st46{fill:url(#XMLID_9_);}
	.st47{fill:#FFFFFF;}
	.st48{fill:#D1E1F2;}
	.st49{fill:#48486A;}
	.st50{fill:url(#XMLID_10_);}
	.st51{fill:url(#XMLID_11_);}
	.st52{opacity:0.3;fill:#48486A;}
	.st53{fill:url(#XMLID_12_);}
	.st54{fill:#F2B1B5;}
	.st55{fill:url(#XMLID_16_);}
	.st56{opacity:0.3;fill:#3C5185;}
	.st57{fill:url(#XMLID_37_);}
	.st58{fill:url(#XMLID_41_);}
	.st59{opacity:0.3;fill:#2D3D64;}
	.st60{fill:#EF9EA3;}
	.st61{fill:url(#XMLID_42_);}
	.st62{fill:url(#XMLID_43_);}
	.st63{fill:#FFCD39;}
	.st64{fill:url(#XMLID_44_);}
	.st65{fill:#4A65A3;}
	.st66{fill:url(#XMLID_45_);}
	.st67{fill:url(#XMLID_46_);}
	.st68{fill:#2842A2;}
	.st69{opacity:0.83;fill:url(#XMLID_47_);}
	.st70{opacity:0.49;fill:#6E84B5;}
	.st71{fill:url(#XMLID_48_);}
	.st72{fill:url(#XMLID_49_);}
	.st73{fill:url(#XMLID_50_);}
	.st74{fill:#7EA7DF;}
	.st75{fill:url(#XMLID_51_);}
	.st76{fill:url(#XMLID_52_);}
	.st77{fill:#63749D;}
	.st78{fill:#F1F2F2;}
	.st79{fill:#E3EDF7;}
	.st80{fill:#DAE7F5;}
</style>
<g id="XMLID_2_">
	<linearGradient id="XMLID_4_" gradientUnits="userSpaceOnUse" x1="151.9698" y1="214.8857" x2="99.6348" y2="44.2279">
		<stop  offset="0.1217" style="stop-color:#FFFFFF"/>
		<stop  offset="1" style="stop-color:#E1EBF7"/>
	</linearGradient>
	<path id="XMLID_277_" class="st0" d="M211.1,134.8c0,42.4-41.9,80.9-84.4,80.9s-81.9-38.4-81.9-80.9s15.2-88.9,57.6-88.9
		S211.1,92.3,211.1,134.8z"/>
	<g id="XMLID_830_">
		<g id="XMLID_947_" class="st1">
			<path id="XMLID_1186_" class="st2" d="M160.5,120.3l48.1,27.5c1,0.6,1,2.1,0,2.7l-74.8,43.2c-1.9,1.1-4.3,1.1-6.2,0l-48.1-27.5
				c-1-0.6-1-2.1,0-2.7l74.8-43.2C156.3,119.2,158.6,119.2,160.5,120.3z"/>
			<path id="XMLID_1185_" class="st3" d="M160.5,120.3l47.9,27.4c1,0.6,1,2.1,0,2.7l-74.6,43.1c-1.9,1.1-4.2,1.1-6.2,0l-47.9-27.4
				c-1-0.6-1-2.1,0-2.7l74.6-43.1C156.2,119.2,158.6,119.2,160.5,120.3z"/>
			<path id="XMLID_1184_" class="st4" d="M160.4,120.3l47.8,27.3c1,0.6,1,2.1,0,2.7l-74.4,42.9c-1.9,1.1-4.2,1.1-6.1,0L79.9,166
				c-1-0.6-1-2.1,0-2.7l74.4-42.9C156.2,119.3,158.5,119.3,160.4,120.3z"/>
			<path id="XMLID_1039_" class="st5" d="M160.4,120.4l47.6,27.2c1,0.6,1,2.1,0,2.7l-74.1,42.8c-1.9,1.1-4.2,1.1-6.1,0l-47.6-27.2
				c-1-0.6-1-2.1,0-2.7l74.1-42.8C156.2,119.3,158.5,119.3,160.4,120.4z"/>
			<path id="XMLID_1038_" class="st6" d="M160.3,120.4l47.5,27.1c1,0.6,1,2.1,0,2.7l-73.9,42.7c-1.9,1.1-4.2,1.1-6.1,0l-47.5-27.1
				c-1-0.6-1-2.1,0-2.7l73.9-42.7C156.1,119.4,158.4,119.4,160.3,120.4z"/>
			<path id="XMLID_1037_" class="st7" d="M160.3,120.5l47.3,27.1c1,0.6,1,2.1,0,2.7l-73.7,42.5c-1.9,1.1-4.2,1.1-6.1,0l-47.3-27.1
				c-1-0.6-1-2.1,0-2.7l73.7-42.5C156.1,119.4,158.4,119.4,160.3,120.5z"/>
			<path id="XMLID_1036_" class="st8" d="M160.2,120.5l47.2,27c1,0.6,1,2.1,0,2.7L134,192.6c-1.9,1.1-4.2,1.1-6.1,0l-47.2-27
				c-1-0.6-1-2.1,0-2.7l73.4-42.4C156,119.5,158.3,119.5,160.2,120.5z"/>
			<path id="XMLID_1035_" class="st9" d="M160.2,120.6l47,26.9c1,0.6,1,2.1,0,2.6L134,192.4c-1.9,1.1-4.2,1.1-6,0l-47-26.9
				c-1-0.6-1-2.1,0-2.6l73.2-42.3C156,119.5,158.3,119.5,160.2,120.6z"/>
			<path id="XMLID_1034_" class="st10" d="M160.1,120.6l46.9,26.8c1,0.6,1,2.1,0,2.6l-73,42.1c-1.9,1.1-4.2,1.1-6,0l-46.9-26.8
				c-1-0.6-1-2.1,0-2.6l73-42.1C156,119.6,158.3,119.5,160.1,120.6z"/>
			<path id="XMLID_1033_" class="st11" d="M160.1,120.7l46.7,26.7c1,0.6,1,2,0,2.6l-72.8,42c-1.9,1.1-4.1,1.1-6,0l-46.7-26.7
				c-1-0.6-1-2,0-2.6l72.8-42C155.9,119.6,158.2,119.6,160.1,120.7z"/>
			<path id="XMLID_1032_" class="st12" d="M160,120.7l46.6,26.6c1,0.6,1,2,0,2.6l-72.5,41.9c-1.9,1.1-4.1,1.1-6,0l-46.6-26.6
				c-1-0.6-1-2,0-2.6l72.5-41.9C155.9,119.6,158.2,119.6,160,120.7z"/>
			<path id="XMLID_1031_" class="st13" d="M160,120.7l46.4,26.5c1,0.6,1,2,0,2.6l-72.3,41.7c-1.8,1.1-4.1,1.1-6,0l-46.4-26.5
				c-1-0.6-1-2,0-2.6l72.3-41.7C155.9,119.7,158.1,119.7,160,120.7z"/>
			<path id="XMLID_1030_" class="st14" d="M159.9,120.8l46.3,26.5c1,0.6,1,2,0,2.6l-72.1,41.6c-1.8,1.1-4.1,1.1-6,0L81.9,165
				c-1-0.6-1-2,0-2.6l72.1-41.6C155.8,119.7,158.1,119.7,159.9,120.8z"/>
			<path id="XMLID_1029_" class="st15" d="M159.9,120.8l46.2,26.4c1,0.6,1,2,0,2.6l-71.9,41.5c-1.8,1.1-4.1,1.1-5.9,0l-46.2-26.4
				c-1-0.6-1-2,0-2.6l71.9-41.5C155.8,119.8,158,119.8,159.9,120.8z"/>
			<path id="XMLID_1028_" class="st16" d="M159.8,120.9l46,26.3c1,0.6,1,2,0,2.6l-71.6,41.4c-1.8,1.1-4.1,1.1-5.9,0l-46-26.3
				c-1-0.6-1-2,0-2.6l71.6-41.4C155.7,119.8,158,119.8,159.8,120.9z"/>
			<path id="XMLID_1027_" class="st17" d="M159.8,120.9l45.9,26.2c1,0.6,1,2,0,2.6l-71.4,41.2c-1.8,1.1-4.1,1.1-5.9,0l-45.9-26.2
				c-1-0.6-1-2,0-2.6l71.4-41.2C155.7,119.9,158,119.9,159.8,120.9z"/>
			<path id="XMLID_1026_" class="st18" d="M159.7,121l45.7,26.1c1,0.6,1,2,0,2.6l-71.2,41.1c-1.8,1-4.1,1.1-5.9,0l-45.7-26.1
				c-1-0.6-1-2,0-2.6l71.2-41.1C155.7,119.9,157.9,119.9,159.7,121z"/>
			<path id="XMLID_1025_" class="st19" d="M159.7,121l45.6,26c1,0.6,1,2,0,2.6l-70.9,41c-1.8,1-4,1.1-5.9,0l-45.6-26
				c-1-0.6-1-2,0-2.6l70.9-41C155.6,120,157.9,120,159.7,121z"/>
			<path id="XMLID_1024_" class="st20" d="M159.6,121.1l45.4,26c1,0.6,1,2,0,2.6l-70.7,40.8c-1.8,1-4,1-5.8,0l-45.4-26
				c-1-0.6-1-2,0-2.6l70.7-40.8C155.6,120,157.8,120,159.6,121.1z"/>
			<path id="XMLID_1023_" class="st21" d="M159.6,121.1l45.3,25.9c1,0.6,1,2,0,2.5l-70.5,40.7c-1.8,1-4,1-5.8,0l-45.3-25.9
				c-1-0.6-1-2,0-2.5l70.5-40.7C155.6,120.1,157.8,120.1,159.6,121.1z"/>
			<path id="XMLID_1022_" class="st22" d="M159.5,121.1l45.1,25.8c1,0.6,1,2,0,2.5l-70.3,40.6c-1.8,1-4,1-5.8,0l-45.1-25.8
				c-1-0.6-1-2,0-2.5l70.3-40.6C155.5,120.1,157.7,120.1,159.5,121.1z"/>
			<path id="XMLID_1017_" class="st23" d="M159.5,121.2l45,25.7c1,0.6,1,2,0,2.5l-70,40.4c-1.8,1-4,1-5.8,0l-45-25.7
				c-1-0.6-1-2,0-2.5l70-40.4C155.5,120.2,157.7,120.2,159.5,121.2z"/>
			<path id="XMLID_1016_" class="st24" d="M159.4,121.2l44.8,25.6c1,0.6,1,2,0,2.5l-69.8,40.3c-1.8,1-4,1-5.8,0l-44.8-25.6
				c-1-0.6-1-2,0-2.5l69.8-40.3C155.4,120.2,157.6,120.2,159.4,121.2z"/>
			<path id="XMLID_981_" class="st25" d="M159.4,121.3l44.7,25.5c1,0.6,1,2,0,2.5l-69.6,40.2c-1.8,1-4,1-5.7,0L84.1,164
				c-1-0.6-1-2,0-2.5l69.6-40.2C155.4,120.3,157.6,120.3,159.4,121.3z"/>
			<path id="XMLID_980_" class="st26" d="M159.3,121.3l44.5,25.5c1,0.6,1,1.9,0,2.5l-69.4,40c-1.8,1-4,1-5.7,0l-44.5-25.5
				c-1-0.6-1-1.9,0-2.5l69.4-40C155.4,120.3,157.6,120.3,159.3,121.3z"/>
			<path id="XMLID_979_" class="st27" d="M159.3,121.4l44.4,25.4c1,0.6,1,1.9,0,2.5l-69.1,39.9c-1.8,1-3.9,1-5.7,0l-44.4-25.4
				c-1-0.6-1-1.9,0-2.5l69.1-39.9C155.3,120.4,157.5,120.4,159.3,121.4z"/>
			<path id="XMLID_978_" class="st28" d="M159.2,121.4l44.3,25.3c1,0.5,1,1.9,0,2.5L134.6,189c-1.8,1-3.9,1-5.7,0l-44.3-25.3
				c-1-0.6-1-1.9,0-2.5l68.9-39.8C155.3,120.4,157.5,120.4,159.2,121.4z"/>
			<path id="XMLID_977_" class="st29" d="M159.2,121.5l44.1,25.2c1,0.5,1,1.9,0,2.5l-68.7,39.6c-1.8,1-3.9,1-5.7,0l-44.1-25.2
				c-1-0.5-1-1.9,0-2.5l68.7-39.6C155.3,120.5,157.4,120.5,159.2,121.5z"/>
			<path id="XMLID_976_" class="st30" d="M159.1,121.5l44,25.1c1,0.5,1,1.9,0,2.5l-68.4,39.5c-1.7,1-3.9,1-5.7,0l-44-25.1
				c-1-0.5-1-1.9,0-2.5l68.4-39.5C155.2,120.5,157.4,120.5,159.1,121.5z"/>
			<path id="XMLID_975_" class="st31" d="M159.1,121.6l43.8,25c1,0.5,1,1.9,0,2.5l-68.2,39.4c-1.7,1-3.9,1-5.6,0l-43.8-25
				c-1-0.5-1-1.9,0-2.5l68.2-39.4C155.2,120.6,157.3,120.6,159.1,121.6z"/>
			<path id="XMLID_974_" class="st32" d="M159,121.6l43.7,25c0.9,0.5,1,1.9,0,2.5l-68,39.3c-1.7,1-3.9,1-5.6,0l-43.7-25
				c-0.9-0.5-1-1.9,0-2.5l68-39.3C155.1,120.6,157.3,120.6,159,121.6z"/>
			<path id="XMLID_973_" class="st33" d="M159,121.6l43.5,24.9c0.9,0.5,0.9,1.9,0,2.4l-67.8,39.1c-1.7,1-3.9,1-5.6,0l-43.5-24.9
				c-0.9-0.5-0.9-1.9,0-2.4l67.8-39.1C155.1,120.7,157.2,120.6,159,121.6z"/>
			<path id="XMLID_972_" class="st34" d="M158.9,121.7l43.4,24.8c0.9,0.5,0.9,1.9,0,2.4l-67.5,39c-1.7,1-3.8,1-5.6,0l-43.4-24.8
				c-0.9-0.5-0.9-1.9,0-2.4l67.5-39C155.1,120.7,157.2,120.7,158.9,121.7z"/>
			<path id="XMLID_971_" class="st35" d="M158.9,121.7l43.2,24.7c0.9,0.5,0.9,1.9,0,2.4l-67.3,38.9c-1.7,1-3.8,1-5.6,0L86,163
				c-0.9-0.5-0.9-1.9,0-2.4l67.3-38.9C155,120.7,157.2,120.7,158.9,121.7z"/>
			<path id="XMLID_966_" class="st36" d="M158.8,121.8l43.1,24.6c0.9,0.5,0.9,1.9,0,2.4l-67.1,38.7c-1.7,1-3.8,1-5.5,0l-43.1-24.6
				c-0.9-0.5-0.9-1.9,0-2.4l67.1-38.7C155,120.8,157.1,120.8,158.8,121.8z"/>
			<path id="XMLID_965_" class="st37" d="M158.8,121.8l42.9,24.5c0.9,0.5,0.9,1.9,0,2.4l-66.8,38.6c-1.7,1-3.8,1-5.5,0l-42.9-24.5
				c-0.9-0.5-0.9-1.9,0-2.4l66.8-38.6C155,120.8,157.1,120.8,158.8,121.8z"/>
			<path id="XMLID_964_" class="st38" d="M158.7,121.9l42.8,24.5c0.9,0.5,0.9,1.9,0,2.4l-66.6,38.5c-1.7,1-3.8,1-5.5,0l-42.8-24.5
				c-0.9-0.5-0.9-1.9,0-2.4l66.6-38.5C154.9,120.9,157,120.9,158.7,121.9z"/>
			<path id="XMLID_963_" class="st39" d="M158.7,121.9l42.6,24.4c0.9,0.5,0.9,1.9,0,2.4L134.9,187c-1.7,1-3.8,1-5.5,0l-42.6-24.4
				c-0.9-0.5-0.9-1.9,0-2.4l66.4-38.3C154.9,120.9,157,120.9,158.7,121.9z"/>
			<path id="XMLID_962_" class="st40" d="M158.6,122l42.5,24.3c0.9,0.5,0.9,1.9,0,2.4L135,186.8c-1.7,1-3.8,1-5.5,0L87,162.6
				c-0.9-0.5-0.9-1.9,0-2.4l66.2-38.2C154.9,121,156.9,121,158.6,122z"/>
			<path id="XMLID_951_" class="st41" d="M158.6,122l42.4,24.2c0.9,0.5,0.9,1.9,0,2.4L135,186.7c-1.7,1-3.8,1-5.4,0l-42.4-24.2
				c-0.9-0.5-0.9-1.9,0-2.4l65.9-38.1C154.8,121,156.9,121,158.6,122z"/>
			<path id="XMLID_949_" class="st42" d="M158.5,122l42.2,24.1c0.9,0.5,0.9,1.8,0,2.4L135,186.5c-1.7,1-3.7,1-5.4,0l-42.2-24.1
				c-0.9-0.5-0.9-1.8,0-2.4l65.7-37.9C154.8,121.1,156.8,121.1,158.5,122z"/>
			<path id="XMLID_948_" class="st43" d="M158.5,122.1l42.1,24c0.9,0.5,0.9,1.8,0,2.4l-65.5,37.8c-1.7,1-3.7,1-5.4,0l-42.1-24
				c-0.9-0.5-0.9-1.8,0-2.4l65.5-37.8C154.7,121.1,156.8,121.1,158.5,122.1z"/>
		</g>
		
			<linearGradient id="XMLID_7_" gradientUnits="userSpaceOnUse" x1="-638.502" y1="108.6087" x2="-548.6251" y2="108.6087" gradientTransform="matrix(-1 0 0 1 -483.0348 0)">
			<stop  offset="0" style="stop-color:#FFFFFF"/>
			<stop  offset="0.3956" style="stop-color:#D5E7F8"/>
			<stop  offset="0.7864" style="stop-color:#B2D3F1"/>
			<stop  offset="0.9962" style="stop-color:#A5CBEF"/>
		</linearGradient>
		<path id="XMLID_945_" class="st44" d="M67.2,100.2l72.6-41.9c1-0.6,2.2,0.1,2.2,1.3l13.5,54.7c0,1.1-0.6,2.2-1.6,2.8l-72.6,41.9
			c-1,0.6-1.7,0.1-2.2-1.3l-13.5-54.7C65.6,101.8,66.2,100.7,67.2,100.2z"/>
		<path id="XMLID_896_" class="st43" d="M68.1,100.8l72.6-41.9c1-0.6,2.2,0.1,2.2,1.3l13.5,54.7c0,1.1-0.6,2.2-1.6,2.8l-72.6,41.9
			c-1,0.6-1.9-0.5-2.2-1.3l-13.5-54.7C66.5,102.4,67.1,101.4,68.1,100.8z"/>
		<polygon id="XMLID_895_" class="st45" points="70.8,104.3 140.1,64.1 152.6,114.6 83.3,154.8 		"/>
		
			<linearGradient id="XMLID_9_" gradientUnits="userSpaceOnUse" x1="-688.8859" y1="155.1885" x2="-564.2157" y2="155.1885" gradientTransform="matrix(-1 0 0 1 -483.0348 0)">
			<stop  offset="3.802050e-003" style="stop-color:#A5CBEF"/>
			<stop  offset="0.2136" style="stop-color:#B2D3F1"/>
			<stop  offset="0.6044" style="stop-color:#D5E7F8"/>
			<stop  offset="1" style="stop-color:#FFFFFF"/>
		</linearGradient>
		<path id="XMLID_891_" class="st46" d="M159.3,120.3l46.5,24.5c0,0,0.3,3.6-0.7,4.2l-71.2,41.1c-1.8,1-4.1,1.1-5.9,0L82.3,164
			c-1.9-1.2-0.7-4.2-0.7-4.2l71.9-39.5C155.3,119.2,157.5,119.2,159.3,120.3z"/>
		<path id="XMLID_890_" class="st47" d="M159.3,117.5l45.7,26.1c1,0.6,1,2,0,2.6l-71.2,41.1c-1.8,1-4.1,1.1-5.9,0l-45.7-26.1
			c-1-0.6-1-2,0-2.6l71.2-41.1C155.3,116.4,157.5,116.4,159.3,117.5z"/>
		<path id="XMLID_889_" class="st48" d="M163.4,151.3l12.1,6.9c0.3,0.1,0.3,0.5,0,0.7l-18.8,10.8c-0.5,0.3-1.1,0.3-1.5,0l-12.1-6.9
			c-0.3-0.1-0.3-0.5,0-0.7l18.8-10.8C162.3,151,162.9,151,163.4,151.3z"/>
		<path id="XMLID_888_" class="st48" d="M154.3,121.4l-3.9,2.3c-0.2,0.1-0.2,0.3,0,0.4l2,1.1c0.2,0.1,0.4,0.1,0.5,0l3.9-2.3
			c0.2-0.1,0.2-0.3,0-0.4l-2-1.1C154.7,121.4,154.5,121.4,154.3,121.4z"/>
		<path id="XMLID_887_" class="st48" d="M148.5,124.9l-3.9,2.3c-0.2,0.1-0.2,0.3,0,0.4l2,1.1c0.2,0.1,0.4,0.1,0.5,0l3.9-2.3
			c0.2-0.1,0.2-0.3,0-0.4l-2-1.1C148.9,124.8,148.7,124.8,148.5,124.9z"/>
		<path id="XMLID_886_" class="st48" d="M142.7,128.1l-3.9,2.3c-0.2,0.1-0.2,0.3,0,0.4l2,1.1c0.2,0.1,0.4,0.1,0.5,0l3.9-2.3
			c0.2-0.1,0.2-0.3,0-0.4l-2-1.1C143.1,128.1,142.9,128.1,142.7,128.1z"/>
		<path id="XMLID_885_" class="st48" d="M136.8,131.5l-3.9,2.3c-0.2,0.1-0.2,0.3,0,0.4l2,1.1c0.2,0.1,0.4,0.1,0.5,0l3.9-2.3
			c0.2-0.1,0.2-0.3,0-0.4l-2-1.1C137.1,131.4,136.9,131.4,136.8,131.5z"/>
		<path id="XMLID_884_" class="st48" d="M131,134.7l-3.9,2.3c-0.2,0.1-0.2,0.3,0,0.4l2,1.1c0.2,0.1,0.4,0.1,0.5,0l3.9-2.3
			c0.2-0.1,0.2-0.3,0-0.4l-2-1.1C131.4,134.6,131.2,134.6,131,134.7z"/>
		<path id="XMLID_883_" class="st48" d="M125.5,138.1l-3.9,2.3c-0.2,0.1-0.2,0.3,0,0.4l2,1.1c0.2,0.1,0.4,0.1,0.5,0l3.9-2.3
			c0.2-0.1,0.2-0.3,0-0.4l-2-1.1C125.8,138.1,125.6,138.1,125.5,138.1z"/>
		<path id="XMLID_882_" class="st48" d="M119.6,141.4l-3.9,2.3c-0.2,0.1-0.2,0.3,0,0.4l2,1.1c0.2,0.1,0.4,0.1,0.5,0l3.9-2.3
			c0.2-0.1,0.2-0.3,0-0.4l-2-1.1C120,141.3,119.8,141.3,119.6,141.4z"/>
		<path id="XMLID_881_" class="st48" d="M113.9,144.8l-3.9,2.3c-0.2,0.1-0.2,0.3,0,0.4l2,1.1c0.2,0.1,0.4,0.1,0.5,0l3.9-2.3
			c0.2-0.1,0.2-0.3,0-0.4l-2-1.1C114.2,144.7,114,144.7,113.9,144.8z"/>
		<path id="XMLID_880_" class="st48" d="M108.2,148.1l-3.9,2.3c-0.2,0.1-0.2,0.3,0,0.4l2,1.1c0.2,0.1,0.4,0.1,0.5,0l3.9-2.3
			c0.2-0.1,0.2-0.3,0-0.4l-2-1.1C108.6,148,108.4,148,108.2,148.1z"/>
		<path id="XMLID_879_" class="st48" d="M102.3,151.6l-3.9,2.3c-0.2,0.1-0.2,0.3,0,0.4l2,1.1c0.2,0.1,0.4,0.1,0.5,0l3.9-2.3
			c0.2-0.1,0.2-0.3,0-0.4l-2-1.1C102.6,151.5,102.4,151.5,102.3,151.6z"/>
		<path id="XMLID_878_" class="st48" d="M96.5,154.8l-3.9,2.3c-0.2,0.1-0.2,0.3,0,0.4l2,1.1c0.2,0.1,0.4,0.1,0.5,0l3.9-2.3
			c0.2-0.1,0.2-0.3,0-0.4l-2-1.1C96.8,154.7,96.6,154.7,96.5,154.8z"/>
		<g id="XMLID_866_">
			<path id="XMLID_877_" class="st48" d="M162.3,125.7l-2.7-1.6c-0.3-0.2-0.8-0.2-1.1,0l-2.6,1.5c-0.4,0.2-0.4,0.7,0,1l2.6,1.6
				c0.3,0.2,0.8,0.2,1.1,0l2.7-1.5C162.7,126.5,162.7,126,162.3,125.7z"/>
			<path id="XMLID_876_" class="st48" d="M156.3,129.2l-2.7-1.6c-0.3-0.2-0.8-0.2-1.1,0l-2.6,1.5c-0.4,0.2-0.4,0.7,0,1l2.6,1.6
				c0.3,0.2,0.8,0.2,1.1,0l2.7-1.5C156.7,129.9,156.7,129.4,156.3,129.2z"/>
			<path id="XMLID_875_" class="st48" d="M150.5,132.4l-2.7-1.6c-0.3-0.2-0.8-0.2-1.1,0l-2.6,1.5c-0.4,0.2-0.4,0.7,0,1l2.6,1.6
				c0.3,0.2,0.8,0.2,1.1,0l2.7-1.5C150.9,133.2,150.9,132.6,150.5,132.4z"/>
			<path id="XMLID_874_" class="st48" d="M144.4,135.8l-2.7-1.6c-0.3-0.2-0.8-0.2-1.1,0l-2.6,1.5c-0.4,0.2-0.4,0.7,0,1l2.6,1.6
				c0.3,0.2,0.8,0.2,1.1,0l2.7-1.5C144.7,136.5,144.7,136,144.4,135.8z"/>
			<path id="XMLID_873_" class="st48" d="M138.9,139l-2.7-1.6c-0.3-0.2-0.8-0.2-1.1,0l-2.6,1.5c-0.4,0.2-0.4,0.7,0,1l2.6,1.6
				c0.3,0.2,0.8,0.2,1.1,0l2.7-1.5C139.3,139.7,139.3,139.2,138.9,139z"/>
			<path id="XMLID_872_" class="st48" d="M133.4,142.4l-2.7-1.6c-0.3-0.2-0.8-0.2-1.1,0l-2.6,1.5c-0.4,0.2-0.4,0.7,0,1l2.6,1.6
				c0.3,0.2,0.8,0.2,1.1,0l2.7-1.5C133.8,143.2,133.8,142.6,133.4,142.4z"/>
			<path id="XMLID_871_" class="st48" d="M127.5,145.6l-2.7-1.6c-0.3-0.2-0.8-0.2-1.1,0l-2.6,1.5c-0.4,0.2-0.4,0.7,0,1l2.6,1.6
				c0.3,0.2,0.8,0.2,1.1,0l2.7-1.5C127.9,146.4,127.9,145.9,127.5,145.6z"/>
			<path id="XMLID_870_" class="st48" d="M121.7,148.9l-2.7-1.6c-0.3-0.2-0.8-0.2-1.1,0l-2.6,1.5c-0.4,0.2-0.4,0.7,0,1l2.6,1.6
				c0.3,0.2,0.8,0.2,1.1,0l2.7-1.5C122.1,149.7,122.1,149.1,121.7,148.9z"/>
			<path id="XMLID_869_" class="st48" d="M116,152.4l-2.7-1.6c-0.3-0.2-0.8-0.2-1.1,0l-2.6,1.5c-0.4,0.2-0.4,0.7,0,1l2.6,1.6
				c0.3,0.2,0.8,0.2,1.1,0l2.7-1.5C116.4,153.2,116.4,152.6,116,152.4z"/>
			<path id="XMLID_868_" class="st48" d="M109.8,156.1l-2.7-1.6c-0.3-0.2-0.8-0.2-1.1,0l-2.6,1.5c-0.4,0.2-0.4,0.7,0,1l2.6,1.6
				c0.3,0.2,0.8,0.2,1.1,0l2.7-1.5C110.2,156.8,110.2,156.3,109.8,156.1z"/>
			<path id="XMLID_867_" class="st48" d="M104.2,159.1l-2.7-1.6c-0.3-0.2-0.8-0.2-1.1,0l-2.6,1.5c-0.4,0.2-0.4,0.7,0,1l2.6,1.6
				c0.3,0.2,0.8,0.2,1.1,0l2.7-1.5C104.6,159.8,104.6,159.3,104.2,159.1z"/>
		</g>
		<g id="XMLID_854_">
			<path id="XMLID_865_" class="st48" d="M168.3,129l-2.7-1.6c-0.3-0.2-0.8-0.2-1.1,0l-2.6,1.5c-0.4,0.2-0.4,0.7,0,1l2.6,1.6
				c0.3,0.2,0.8,0.2,1.1,0l2.7-1.5C168.6,129.7,168.6,129.2,168.3,129z"/>
			<path id="XMLID_864_" class="st48" d="M162.3,132.4l-2.7-1.6c-0.3-0.2-0.8-0.2-1.1,0l-2.6,1.5c-0.4,0.2-0.4,0.7,0,1l2.6,1.6
				c0.3,0.2,0.8,0.2,1.1,0l2.7-1.5C162.7,133.2,162.7,132.6,162.3,132.4z"/>
			<path id="XMLID_863_" class="st48" d="M156.5,135.7l-2.7-1.6c-0.3-0.2-0.8-0.2-1.1,0l-2.6,1.5c-0.4,0.2-0.4,0.7,0,1l2.6,1.6
				c0.3,0.2,0.8,0.2,1.1,0l2.7-1.5C156.9,136.4,156.9,135.9,156.5,135.7z"/>
			<path id="XMLID_862_" class="st48" d="M150.3,139l-2.7-1.6c-0.3-0.2-0.8-0.2-1.1,0l-2.6,1.5c-0.4,0.2-0.4,0.7,0,1l2.6,1.6
				c0.3,0.2,0.8,0.2,1.1,0l2.7-1.5C150.7,139.8,150.7,139.2,150.3,139z"/>
			<path id="XMLID_861_" class="st48" d="M144.9,142.2l-2.7-1.6c-0.3-0.2-0.8-0.2-1.1,0l-2.6,1.5c-0.4,0.2-0.4,0.7,0,1l2.6,1.6
				c0.3,0.2,0.8,0.2,1.1,0l2.7-1.5C145.2,143,145.2,142.4,144.9,142.2z"/>
			<path id="XMLID_860_" class="st48" d="M139.3,145.6l-2.7-1.6c-0.3-0.2-0.8-0.2-1.1,0l-2.6,1.5c-0.4,0.2-0.4,0.7,0,1l2.6,1.6
				c0.3,0.2,0.8,0.2,1.1,0l2.7-1.5C139.7,146.4,139.7,145.9,139.3,145.6z"/>
			<path id="XMLID_859_" class="st48" d="M133.4,148.9l-2.7-1.6c-0.3-0.2-0.8-0.2-1.1,0l-2.6,1.5c-0.4,0.2-0.4,0.7,0,1l2.6,1.6
				c0.3,0.2,0.8,0.2,1.1,0l2.7-1.5C133.8,149.6,133.8,149.1,133.4,148.9z"/>
			<path id="XMLID_858_" class="st48" d="M127.7,152.2l-2.7-1.6c-0.3-0.2-0.8-0.2-1.1,0l-2.6,1.5c-0.4,0.2-0.4,0.7,0,1l2.6,1.6
				c0.3,0.2,0.8,0.2,1.1,0l2.7-1.5C128,152.9,128,152.4,127.7,152.2z"/>
			<path id="XMLID_857_" class="st48" d="M122,155.6l-2.7-1.6c-0.3-0.2-0.8-0.2-1.1,0l-2.6,1.5c-0.4,0.2-0.4,0.7,0,1l2.6,1.6
				c0.3,0.2,0.8,0.2,1.1,0l2.7-1.5C122.3,156.4,122.4,155.9,122,155.6z"/>
			<path id="XMLID_856_" class="st48" d="M115.8,159.3l-2.7-1.6c-0.3-0.2-0.8-0.2-1.1,0l-2.6,1.5c-0.4,0.2-0.4,0.7,0,1l2.6,1.6
				c0.3,0.2,0.8,0.2,1.1,0l2.7-1.5C116.2,160,116.2,159.5,115.8,159.3z"/>
			<path id="XMLID_855_" class="st48" d="M110.2,162.3l-2.7-1.6c-0.3-0.2-0.8-0.2-1.1,0l-2.6,1.5c-0.4,0.2-0.4,0.7,0,1l2.6,1.6
				c0.3,0.2,0.8,0.2,1.1,0l2.7-1.5C110.6,163.1,110.6,162.5,110.2,162.3z"/>
		</g>
		<g id="XMLID_842_">
			<path id="XMLID_853_" class="st48" d="M174.2,132.2l-2.7-1.6c-0.3-0.2-0.8-0.2-1.1,0l-2.6,1.5c-0.4,0.2-0.4,0.7,0,1l2.6,1.6
				c0.3,0.2,0.8,0.2,1.1,0l2.7-1.5C174.6,133,174.6,132.4,174.2,132.2z"/>
			<path id="XMLID_852_" class="st48" d="M168.2,135.6l-2.7-1.6c-0.3-0.2-0.8-0.2-1.1,0l-2.6,1.5c-0.4,0.2-0.4,0.7,0,1l2.6,1.6
				c0.3,0.2,0.8,0.2,1.1,0l2.7-1.5C168.6,136.4,168.6,135.9,168.2,135.6z"/>
			<path id="XMLID_851_" class="st48" d="M162.4,138.9l-2.7-1.6c-0.3-0.2-0.8-0.2-1.1,0l-2.6,1.5c-0.4,0.2-0.4,0.7,0,1l2.6,1.6
				c0.3,0.2,0.8,0.2,1.1,0l2.7-1.5C162.8,139.6,162.8,139.1,162.4,138.9z"/>
			<path id="XMLID_850_" class="st48" d="M156.3,142.3l-2.7-1.6c-0.3-0.2-0.8-0.2-1.1,0l-2.6,1.5c-0.4,0.2-0.4,0.7,0,1l2.6,1.6
				c0.3,0.2,0.8,0.2,1.1,0l2.7-1.5C156.6,143,156.6,142.5,156.3,142.3z"/>
			<path id="XMLID_849_" class="st48" d="M150.8,145.5l-2.7-1.6c-0.3-0.2-0.8-0.2-1.1,0l-2.6,1.5c-0.4,0.2-0.4,0.7,0,1l2.6,1.6
				c0.3,0.2,0.8,0.2,1.1,0l2.7-1.5C151.2,146.2,151.2,145.7,150.8,145.5z"/>
			<path id="XMLID_848_" class="st48" d="M145.3,148.9l-2.7-1.6c-0.3-0.2-0.8-0.2-1.1,0l-2.6,1.5c-0.4,0.2-0.4,0.7,0,1l2.6,1.6
				c0.3,0.2,0.8,0.2,1.1,0l2.7-1.5C145.7,149.6,145.7,149.1,145.3,148.9z"/>
			<path id="XMLID_847_" class="st48" d="M139.4,152.1l-2.7-1.6c-0.3-0.2-0.8-0.2-1.1,0l-2.6,1.5c-0.4,0.2-0.4,0.7,0,1l2.6,1.6
				c0.3,0.2,0.8,0.2,1.1,0l2.7-1.5C139.8,152.9,139.8,152.3,139.4,152.1z"/>
			<path id="XMLID_846_" class="st48" d="M133.6,155.4l-2.7-1.6c-0.3-0.2-0.8-0.2-1.1,0l-2.6,1.5c-0.4,0.2-0.4,0.7,0,1l2.6,1.6
				c0.3,0.2,0.8,0.2,1.1,0l2.7-1.5C134,156.1,134,155.6,133.6,155.4z"/>
			<path id="XMLID_845_" class="st48" d="M127.9,158.9l-2.7-1.6c-0.3-0.2-0.8-0.2-1.1,0l-2.6,1.5c-0.4,0.2-0.4,0.7,0,1l2.6,1.6
				c0.3,0.2,0.8,0.2,1.1,0l2.7-1.5C128.3,159.6,128.3,159.1,127.9,158.9z"/>
			<path id="XMLID_844_" class="st48" d="M121.7,162.5l-2.7-1.6c-0.3-0.2-0.8-0.2-1.1,0l-2.6,1.5c-0.4,0.2-0.4,0.7,0,1l2.6,1.6
				c0.3,0.2,0.8,0.2,1.1,0l2.7-1.5C122.1,163.3,122.1,162.7,121.7,162.5z"/>
			<path id="XMLID_843_" class="st48" d="M116.1,165.6l-2.7-1.6c-0.3-0.2-0.8-0.2-1.1,0l-2.6,1.5c-0.4,0.2-0.4,0.7,0,1l2.6,1.6
				c0.3,0.2,0.8,0.2,1.1,0l2.7-1.5C116.5,166.3,116.5,165.8,116.1,165.6z"/>
		</g>
		<g id="XMLID_832_">
			<path id="XMLID_841_" class="st48" d="M180.2,135.4l-2.7-1.6c-0.3-0.2-0.8-0.2-1.1,0l-2.6,1.5c-0.4,0.2-0.4,0.7,0,1l2.6,1.6
				c0.3,0.2,0.8,0.2,1.1,0l2.7-1.5C180.5,136.2,180.5,135.7,180.2,135.4z"/>
			<path id="XMLID_840_" class="st48" d="M174.2,138.9l-2.7-1.6c-0.3-0.2-0.8-0.2-1.1,0l-2.6,1.5c-0.4,0.2-0.4,0.7,0,1l2.6,1.6
				c0.3,0.2,0.8,0.2,1.1,0l2.7-1.5C174.6,139.6,174.6,139.1,174.2,138.9z"/>
			<path id="XMLID_839_" class="st48" d="M168.4,142.1l-2.7-1.6c-0.3-0.2-0.8-0.2-1.1,0l-2.6,1.5c-0.4,0.2-0.4,0.7,0,1l2.6,1.6
				c0.3,0.2,0.8,0.2,1.1,0l2.7-1.5C168.7,142.9,168.8,142.3,168.4,142.1z"/>
			<path id="XMLID_838_" class="st48" d="M162.2,145.5l-2.7-1.6c-0.3-0.2-0.8-0.2-1.1,0l-2.6,1.5c-0.4,0.2-0.4,0.7,0,1l2.6,1.6
				c0.3,0.2,0.8,0.2,1.1,0l2.7-1.5C162.6,146.2,162.6,145.7,162.2,145.5z"/>
			<path id="XMLID_837_" class="st48" d="M156.3,149l-2.7-1.6c-0.3-0.2-0.8-0.2-1.1,0l-13.6,7.8c-0.4,0.2-0.4,0.7,0,1l2.6,1.6
				c0.3,0.2,0.8,0.2,1.1,0l13.6-7.9C156.6,149.8,156.6,149.3,156.3,149z"/>
			<path id="XMLID_836_" class="st48" d="M139.6,158.6l-2.7-1.6c-0.3-0.2-0.8-0.2-1.1,0l-2.6,1.5c-0.4,0.2-0.4,0.7,0,1l2.6,1.6
				c0.3,0.2,0.8,0.2,1.1,0l2.7-1.5C139.9,159.4,139.9,158.8,139.6,158.6z"/>
			<path id="XMLID_835_" class="st48" d="M133.9,162.1l-2.7-1.6c-0.3-0.2-0.8-0.2-1.1,0l-2.6,1.5c-0.4,0.2-0.4,0.7,0,1l2.6,1.6
				c0.3,0.2,0.8,0.2,1.1,0l2.7-1.5C134.2,162.9,134.2,162.3,133.9,162.1z"/>
			<path id="XMLID_834_" class="st48" d="M127.7,165.8l-2.7-1.6c-0.3-0.2-0.8-0.2-1.1,0l-2.6,1.5c-0.4,0.2-0.4,0.7,0,1l2.6,1.6
				c0.3,0.2,0.8,0.2,1.1,0l2.7-1.5C128.1,166.5,128.1,166,127.7,165.8z"/>
			<path id="XMLID_833_" class="st48" d="M122.1,168.8l-2.7-1.6c-0.3-0.2-0.8-0.2-1.1,0l-2.6,1.5c-0.4,0.2-0.4,0.7,0,1l2.6,1.6
				c0.3,0.2,0.8,0.2,1.1,0l2.7-1.5C122.5,169.5,122.5,169,122.1,168.8z"/>
		</g>
	</g>
	<g id="XMLID_1187_">
		<g id="XMLID_1210_">
			<path id="XMLID_1211_" class="st43" d="M180.8,151.8c0.6,0,1.1-0.3,1.3-0.9l3-8.1c0.7-1.9,0.3-4-0.9-5.5l-3.1-3.8
				c-0.5-0.6-1.3-0.7-1.9-0.2c-0.6,0.5-0.7,1.3-0.2,1.9l3.1,3.8c0.6,0.8,0.8,1.9,0.5,2.9l-3,8.1c-0.3,0.7,0.1,1.5,0.8,1.8
				C180.5,151.7,180.7,151.8,180.8,151.8z"/>
		</g>
		<path id="XMLID_1209_" class="st43" d="M173.2,190.7l-1.6-1v-0.7l-1.7-0.2l-3.8-2.2c-1-0.6-0.8-2,0.2-2.4l0,0
			c0.7-0.3,1.5-0.2,2.2,0.1l3,1.4l4.1,1.5l-0.1,1.5c-0.1,1.1-1,2-2.1,2H173.2z"/>
		<path id="XMLID_1208_" class="st49" d="M173.9,190.3h-0.2l-1.6-1v-0.7l-1.7-0.2l-3.8-2.2c-0.7-0.4-0.8-1.2-0.5-1.8
			c-0.8,0.5-0.9,1.7,0,2.2l3.8,2.2l1.7,0.2v0.7l1.6,1h0.2c0.7,0,1.3-0.3,1.7-0.9C174.7,190.1,174.3,190.3,173.9,190.3z"/>
		<path id="XMLID_1207_" class="st43" d="M179.5,186.5l-1.6-1v-0.7l-1.7-0.2l-3.8-2.2c-1-0.6-0.8-2,0.2-2.4l0,0
			c0.7-0.3,1.5-0.2,2.2,0.1l3,1.4l4.1,1.5l-0.1,1.5c-0.1,1.1-1,2-2.1,2H179.5z"/>
		<path id="XMLID_1206_" class="st49" d="M180.1,186H180l-1.6-1v-0.7l-1.7-0.2l-3.8-2.2c-0.7-0.4-0.8-1.2-0.5-1.8
			c-0.8,0.5-0.9,1.7,0,2.2l3.8,2.2l1.7,0.2v0.7l1.6,1h0.2c0.7,0,1.3-0.3,1.7-0.9C181,185.8,180.6,186,180.1,186z"/>
		<g id="XMLID_1204_">
			<linearGradient id="XMLID_10_" gradientUnits="userSpaceOnUse" x1="176.3282" y1="166.6949" x2="181.8181" y2="166.6949">
				<stop  offset="0" style="stop-color:#FFFFFF"/>
				<stop  offset="1" style="stop-color:#A8D9FB"/>
			</linearGradient>
			<path id="XMLID_1205_" class="st50" d="M179.7,184.5c-1.2,0-2.1-0.5-2.1-1.7l-1.2-31.8c0-1.2,2.2-2.1,3.3-2.1
				c1.2,0,2.1,1,2.1,2.1v31.8C181.8,184,180.9,184.5,179.7,184.5z"/>
		</g>
		<g id="XMLID_1202_">
			<linearGradient id="XMLID_11_" gradientUnits="userSpaceOnUse" x1="169.5242" y1="168.4363" x2="178.6855" y2="168.4363">
				<stop  offset="0" style="stop-color:#FFFFFF"/>
				<stop  offset="1" style="stop-color:#A8D9FB"/>
			</linearGradient>
			<path id="XMLID_1203_" class="st51" d="M173.6,188.2c-1.1,0-2-0.1-2.1-1.3l-1.9-18.6l0-0.2l1.9-17.4c0.1-1.2,1.1-2.1,2.3-2
				c1.2,0.1,5.1,1.1,5,2.3l-3.6,17.3l0.6,18.3c0.1,1.2-0.8,1.5-2,1.6C173.7,188.2,173.6,188.2,173.6,188.2z"/>
		</g>
		<g id="XMLID_1199_">
			<path id="XMLID_1201_" class="st52" d="M182.1,138.9l-3.1-3.8c-0.5-0.6-0.4-1.5,0.2-1.9c0.6-0.5,1.5-0.4,1.9,0.2l1.6,2.1
				c0.1,1.6-0.1,3.3-0.2,4.7C182.6,139.7,182.4,139.3,182.1,138.9z"/>
			<path id="XMLID_1200_" class="st52" d="M182.1,150.9c-0.2,0.6-0.7,0.9-1.3,0.9c-0.2,0-0.3,0-0.5-0.1c-0.7-0.3-1.1-1.1-0.8-1.8
				l2.9-7.7c0,0.3-0.1,0.5-0.1,0.5l0.1,7.3L182.1,150.9z"/>
		</g>
		<linearGradient id="XMLID_12_" gradientUnits="userSpaceOnUse" x1="170.4364" y1="146.6144" x2="182.165" y2="146.6144">
			<stop  offset="0" style="stop-color:#5D7DBE"/>
			<stop  offset="1" style="stop-color:#3C5185"/>
		</linearGradient>
		<path id="XMLID_1198_" class="st53" d="M182,133.8c-0.3-2-2.2-3.4-4-2.4l0,0c-0.2,0.1-0.4,0.2-0.6,0.3c-5.2,3.3-6.4,7.6-6.4,12.3
			l0.1,3.9l-0.7,14.1c0.4,0.2,4.1-0.9,6.5-1.5c0.4-0.1,1.2-3.7,1.2-3.7s0.7,3.2,1.1,3.1c2.1-0.6,2.3-0.5,2.8-1.4l-0.4-15.9
			C181.7,142.7,182.5,137.2,182,133.8z"/>
		<path id="XMLID_1197_" class="st54" d="M177.6,134.3L177.6,134.3c-0.6,0-1.1-0.5-1.1-1.1v-4.9h2.1v4.9
			C178.7,133.8,178.2,134.3,177.6,134.3z"/>
		<path id="XMLID_1196_" class="st54" d="M180.1,132.3L180.1,132.3c-3.5,0-6.3-1.5-6.3-5v-4.1h6.3V132.3z"/>
		<path id="XMLID_1195_" class="st43" d="M182.2,127.9c0-0.2,0-0.5,0-0.7c0-0.9,0.1-1.8,0-2.8c-0.2-1.1-0.7-2.3-1.8-2.8
			c-0.6-0.3-1.4-0.3-2-0.3c-1.4,0-2.8,0-4.2,0c-0.6,0-1.3,0-1.8,0.4c-1,0.7-0.5,2,0.1,2.7c0.3,0.4,0.7,0.8,1.2,1
			c0.5,0.2,1.2,0,1.5,0.5c0.4,0.6-0.4,2.7,0.5,2.9c0.7,0.2,0.6-0.5,0.7-0.9c0.1-0.3,0.3-0.5,0.5-0.5c0.3,0,0.5,0.3,0.6,0.7
			c0.1,0.6-0.1,1.3-0.1,1.9c-0.1,0.6,0,1.4,0.5,1.8c0.2,0.2,0.4,0.3,0.6,0.3c0.6,0.2,1.8,0.5,2.4,0.1c0.8-0.7,1.4-1.3,1.5-2.4
			C182.3,129.2,182.2,128.5,182.2,127.9z"/>
		<path id="XMLID_1194_" class="st52" d="M171.2,148l-0.1-3.9c0-2.2,0.3-4.3,1.1-6.3l1.3-1.8c0.4-0.6,1.3-0.7,1.9-0.3
			c0.6,0.4,0.5,0.8,0.1,1.4l-3,4.9c-1.1,1.5-1.3,3.5-0.5,5.1c0.6,1.2,1.2,2.4,1.6,3.6l1,2.8c0.5,0.6-1.6-0.2-1.9-0.5l-1.6-2.3
			L171.2,148z"/>
		<circle id="XMLID_1193_" class="st54" cx="173" cy="154" r="1.6"/>
		<circle id="XMLID_1192_" class="st54" cx="171.7" cy="154.1" r="0.7"/>
		<g id="XMLID_1190_">
			<path id="XMLID_1191_" class="st54" d="M172.4,154.1c0.2,0,0.5-0.1,0.7-0.2c0.6-0.4,0.8-1.2,0.4-1.8l-2.8-4.5
				c-1.2-1.9-0.9-4.4,0.7-6l3.7-3.8c0.5-0.5,0.5-1.4,0-1.9c-0.5-0.5-1.4-0.5-1.9,0l-3.7,3.8c-2.5,2.5-2.9,6.3-1,9.3l2.8,4.5
				C171.5,153.9,172,154.1,172.4,154.1z"/>
		</g>
		<linearGradient id="XMLID_16_" gradientUnits="userSpaceOnUse" x1="161.6586" y1="151.5252" x2="183.1281" y2="137.0888">
			<stop  offset="0" style="stop-color:#3C5185"/>
			<stop  offset="0.1361" style="stop-color:#435A91"/>
			<stop  offset="0.4277" style="stop-color:#4F6AA6"/>
			<stop  offset="0.7171" style="stop-color:#5674B2"/>
			<stop  offset="1" style="stop-color:#5877B6"/>
		</linearGradient>
		<path id="XMLID_1188_" class="st55" d="M170.2,152.5l-1.7-3.2c-1.9-3.1-1.5-7.1,1.1-9.7l3.9-3.9c0.5-0.5,1.4-0.5,1.9,0
			c0.5,0.5,0.5,1.4,0,1.9l-3.9,3.9c-1.7,1.7-1.9,4.3-0.7,6.3l2.5,3.6C173.8,152,170.5,152.9,170.2,152.5z"/>
	</g>
	<path id="XMLID_144_" class="st56" d="M139.3,121.9c0.3,0,0.5,0,0.8,0l10.6-0.3c1.2-0.1,2.1-0.9,2.3-1.9c-0.6-0.1-1.3-0.2-1.9-0.1
		c0.4-0.5,0.6-1.2,0.6-1.9l-0.3-1c-0.6-0.3-1.2-0.5-1.8-0.5l-2.8,0.1l0.5-1c0.2-0.5,0-1.1-0.5-1.4c-0.5-0.3-1.2-0.2-1.4,0.3
		l-1.1,2.1l-5.2,0.2c-5.3,0.2-10.5-2.6-13.4-7.2l-3.7-5.9l-1.2-4.2c-0.5-1.9-1.8-3.5-3.4-4.5c0-0.2,0.1-0.5,0.1-0.7
		c0-0.3,0.1-0.6,0.2-0.9l0.1-0.1c0.3-0.2,0.4-0.4,0.4-0.7c0.2-0.2,0.3-0.4,0.4-0.5c0.4-0.6,0.4-1.5,0.4-2.3
		c-0.1-2.3-0.5-4.6-0.3-6.9c0.1-1.6,1.1-3.6,0.7-5.3c-0.3-1.1-1-2.1-2-2.8l0-0.3c-0.1-0.8-0.4-1.6-0.8-2.3L96.5,83.3
		c0.2,0.8,0.3,1.5,0.4,2.3c0.2,2-0.2,4.6-0.8,6.9c-0.4,1.7-0.9,3.3-1.4,4.5c-0.4,1.1-0.9,2.1-1.4,3.2c-1.7,4.5-1.4,9.8,0.8,14.6
		c0.3,0.7,0.8,1.5,1.4,2c0.6,0.5,1.4,0.7,2.2,0.7c0.2,0,0.3,0,0.5,0c0.9,10.7,3,24,3.5,26.6l1.9-1.1l5-3l0,0l17.7-10.6
		c-0.3-1.1-0.6-2.2-1-3.1c-1.1-3.1-0.7-6.6-0.4-9.7C128.9,119.9,134.1,121.9,139.3,121.9z"/>
	<g id="XMLID_110_">
		<g id="XMLID_1242_">
			<path id="XMLID_1243_" class="st43" d="M127.2,72.5h-1.9v-0.4c0-1.5-0.8-2.8-2-3.5c-1.3-0.7-2.8-0.8-4.1,0l-0.9-1.6
				c1.9-1,4.1-1,5.9,0.1c1.8,1.1,2.9,3,2.9,5.1V72.5z"/>
		</g>
		<g id="XMLID_1241_">
			
				<linearGradient id="XMLID_37_" gradientUnits="userSpaceOnUse" x1="12.098" y1="109.0908" x2="28.3216" y2="109.0908" gradientTransform="matrix(0.9918 -0.1279 0.1279 0.9918 87.8966 -19.1632)">
				<stop  offset="0.1499" style="stop-color:#FF9800"/>
				<stop  offset="1" style="stop-color:#FFC107"/>
			</linearGradient>
			<path id="XMLID_39_" class="st57" d="M116.1,79.1c0.3-0.9,0.7-1.8,1.2-2.7c0.7-1.5,1.4-2.9,2.6-4.1c2.8-3,8.4-0.9,8.8,3.2
				c0.2,1.7-1.1,3.8-1.4,5.5c-0.5,2.3-0.5,4.8-0.7,7.1c-0.1,0.8-0.2,1.7-0.7,2.4c-0.2,0.3-0.6,0.6-0.8,0.9c-0.3,0.4-0.4,0.9-0.6,1.4
				c-0.4,1.3-0.7,2.7-1.1,4c-0.5,1.7-1,3.5-2.3,4.7c-1.3,1.2-3.6,1.4-4.7,0c-0.3-0.4-0.5-1-0.6-1.5c-1-3.6-1.2-7.4-0.8-11.1
				C115.3,85.7,115.1,82,116.1,79.1z"/>
		</g>
		<g id="XMLID_1239_">
			<path id="XMLID_1240_" class="st54" d="M141.5,121.5c-7.2,0-13.6-4.2-16.5-10.8l-4-9c-0.6-1.4,0-3.1,1.4-3.7
				c1.4-0.6,3.1,0,3.7,1.4l4,9c2.1,4.7,6.7,7.6,11.9,7.4l10.3-0.3c1.5-0.1,2.8,1.1,2.9,2.7c0.1,1.5-1.1,2.8-2.7,2.9l-10.3,0.3
				C142,121.5,141.8,121.5,141.5,121.5z"/>
		</g>
		<linearGradient id="XMLID_41_" gradientUnits="userSpaceOnUse" x1="101.6945" y1="118.0567" x2="129.9396" y2="118.0567">
			<stop  offset="0" style="stop-color:#3C5185"/>
			<stop  offset="0.128" style="stop-color:#41588E"/>
			<stop  offset="0.6948" style="stop-color:#5573B1"/>
			<stop  offset="1" style="stop-color:#5D7DBE"/>
		</linearGradient>
		<path id="XMLID_136_" class="st58" d="M127.3,125.8c-0.7-3.9,0.9-8.5,1.6-12.2c1.2-1.7,1.4-3.9,0.6-5.9l-2-4.9l-0.6-4.8
			c-0.7-5.2-6.7-7.8-11-4.7l-9.5,7c-2.2,1.6-2.5,4.4-3,7.1c-1.9,10.3-1.6,33.2-1.6,36.7l26.1-15.1
			C127.7,127.9,127.5,126.8,127.3,125.8z"/>
		<path id="XMLID_1237_" class="st54" d="M120,110.9c0,0,4.4-6.7,0-18.3c-0.6-1.6-3-6-3-6l-6.6,0.9l1.1,8.9
			C111.8,98.2,114.6,110.6,120,110.9z"/>
		<path id="XMLID_1236_" class="st59" d="M114.9,121c7.8-3.9,5.4-5.5,6.4-5.7c2.1-0.3,2,0.6,5.9-1.3c1.6-0.8,2.5-2.6,2.5-4.4v1.4
			c0,1.8-1,3.5-2.5,4.4l-3.2,1.4c-1.2,0.5-2.4,1.2-3.6,1.9l-5.5,3.7c-2,1.2-4.6-0.3-4.6-2.7v-1.4C110.3,120.7,112.8,122.1,114.9,121
			z"/>
		<path id="XMLID_1235_" class="st60" d="M111.3,94l0.6-6.7l5.2-0.7c0,0,2.4,4.4,3,6c0.2,0.6,0.9,2.6,1.1,3.2c0,0,0,0,0,0
			c-1.4,0.2-2.8,0.1-4.2-0.3L111.3,94L111.3,94z"/>
		<path id="XMLID_132_" class="st54" d="M108.8,136.2c-0.3-3.5-0.3-7,0-10.5l1.1-14.1c0.1-1.5-1-2.9-2.6-3c-1.5-0.1-2.9,1-3,2.6
			l-1.1,14.1c-0.3,3.8-0.3,7.6,0,11.4l0.5,6.4l5.3-3.1L108.8,136.2z"/>
		<path id="XMLID_1232_" class="st54" d="M111.3,94l6.5-0.8c7.2-0.9,9-7.1,8.1-14.3l0,0c-0.4-2.8-2.9-4.8-5.8-4.4l-11.1,1.4
			L111.3,94z"/>
		<g id="XMLID_1230_">
			<linearGradient id="XMLID_42_" gradientUnits="userSpaceOnUse" x1="103.2143" y1="115.3412" x2="110.9659" y2="115.3412">
				<stop  offset="0" style="stop-color:#3C5185"/>
				<stop  offset="0.128" style="stop-color:#41588E"/>
				<stop  offset="0.6948" style="stop-color:#5573B1"/>
				<stop  offset="1" style="stop-color:#5D7DBE"/>
			</linearGradient>
			<path id="XMLID_1231_" class="st61" d="M106.9,123.2c1.6-0.1,2.9-1.4,3.1-3l1-9c0.2-1.9-1.1-3.5-3-3.7c-1.9-0.2-3.5,1.1-3.7,3
				l-1,9c-0.2,1.9,1.1,3.5,3,3.7C106.4,123.2,106.7,123.2,106.9,123.2z"/>
		</g>
		<g id="XMLID_1229_">
			
				<linearGradient id="XMLID_43_" gradientUnits="userSpaceOnUse" x1="6.8405" y1="92.8086" x2="35.6633" y2="92.8086" gradientTransform="matrix(1 -8.300000e-003 8.300000e-003 1 90.1107 0.6407)">
				<stop  offset="0.1499" style="stop-color:#FF9800"/>
				<stop  offset="1" style="stop-color:#FFC107"/>
			</linearGradient>
			<path id="XMLID_38_" class="st62" d="M103.9,91c0.9-2.4,1.7-5.1,1.8-7.1c0.3-4-1.5-8.1,1.8-11.3c2.4-2.4,6.2-2.6,9.5-2.6
				c2.3,0,8-1.1,9.2,1.7c0.2,0.4,0.2,0.8,0.1,1.2c-0.1,2.1-0.8,4.3-2.2,5.8c-1,1-2.3,1.6-3.2,2.7c-1.1,1.3-0.7,3.1-1.6,4.5
				c-1.1,1.7-2.4,3.4-4,4.8c-3.5,2.9-3,4.9-2.9,9.3c0,3.9-0.2,8.4-3.2,10.9c-0.4,0.3-0.8,0.6-1.1,0.9c-0.4,0.5-0.6,1.2-1,1.8
				c-0.9,1.8-2.8,3-4.8,3.1c-0.9,0-1.9-0.2-2.5-0.8c-0.6-0.5-0.9-1.3-1.1-2c-1.5-4.9-1-10.4,1.3-15c0.6-1.1,1.2-2.2,1.8-3.3
				C102.5,94.4,103.2,92.8,103.9,91z"/>
		</g>
		<g id="XMLID_1228_">
			<path id="XMLID_40_" class="st63" d="M126.2,71.7c-0.8-1.9-3.5-2-6-1.9c1.9,0.1,3.7,0.5,4.3,1.9c0.2,0.4,0.2,0.8,0.1,1.2
				c-0.1,2.1-0.8,4.3-2.2,5.8c-1,1-2.3,1.6-3.2,2.7c-1.1,1.3-0.7,3.1-1.6,4.5c-1.1,1.7-2.4,3.4-4,4.8c-3.5,2.9-3,4.9-2.9,9.3
				c0,3.9-0.2,8.4-3.2,10.9c-0.4,0.3-0.8,0.6-1.1,0.9c-0.4,0.5-0.6,1.2-1,1.8c-0.8,1.6-2.3,2.7-4.1,3c0.3,0.1,0.6,0.1,0.9,0.1
				c2-0.1,3.9-1.3,4.8-3.1c0.3-0.6,0.5-1.3,1-1.8c0.3-0.4,0.7-0.6,1.1-0.9c3-2.5,3.2-6.9,3.2-10.9c0-4.4-0.6-6.5,2.9-9.3
				c1.6-1.3,2.8-3,4-4.8c0.9-1.4,0.6-3.2,1.6-4.5c0.9-1.1,2.3-1.7,3.2-2.7c1.5-1.5,2.1-3.7,2.2-5.8
				C126.4,72.5,126.4,72.1,126.2,71.7z"/>
		</g>
		<g id="XMLID_1226_">
			<path id="XMLID_1227_" class="st43" d="M113.1,87.4h-1.9V79c0-5,2.7-9.6,7-12l0.9,1.6c-3.8,2.1-6.1,6.1-6.1,10.4V87.4z"/>
		</g>
		<g id="XMLID_1224_">
			<path id="XMLID_1225_" class="st43" d="M120.6,92.8c-0.5,0-1-0.1-1.5-0.4l-4.7-2.7l0.3-0.6l4.7,2.7c0.7,0.4,1.5,0.4,2.2,0
				l1.9-1.1l0.3,0.6l-1.9,1.1C121.6,92.7,121.1,92.8,120.6,92.8z"/>
		</g>
		<g id="XMLID_1219_">
			<path id="XMLID_1223_" class="st43" d="M112.2,80.4c-2.1-1.2-3.8-0.2-3.8,2.2c0,2.4,1.7,5.4,3.8,6.6c2.1,1.2,3.8,0.2,3.8-2.2
				C116,84.6,114.3,81.6,112.2,80.4z"/>
			<linearGradient id="XMLID_44_" gradientUnits="userSpaceOnUse" x1="116.1859" y1="89.2433" x2="110.6063" y2="79.6058">
				<stop  offset="0" style="stop-color:#3C5185"/>
				<stop  offset="0.128" style="stop-color:#41588E"/>
				<stop  offset="0.6948" style="stop-color:#5573B1"/>
				<stop  offset="1" style="stop-color:#5D7DBE"/>
			</linearGradient>
			<path id="XMLID_1222_" class="st64" d="M112.2,80.4c-1.3-0.7-2.4-0.6-3.1,0c0.6-0.1,1.3,0,2,0.5c2.1,1.2,3.8,4.2,3.8,6.6
				c0,1-0.3,1.7-0.8,2.2c1.1-0.2,1.8-1.1,1.8-2.7C116,84.6,114.3,81.6,112.2,80.4z"/>
			<path id="XMLID_1221_" class="st65" d="M111.7,82.9c-1.2-0.7-2.1-0.1-2.1,1.2c0,1.3,0.9,3,2.1,3.7c1.2,0.7,2.1,0.1,2.1-1.2
				C113.8,85.2,112.9,83.5,111.7,82.9z"/>
			<linearGradient id="XMLID_45_" gradientUnits="userSpaceOnUse" x1="113.8919" y1="87.7559" x2="110.8179" y2="82.4464">
				<stop  offset="0" style="stop-color:#3C5185"/>
				<stop  offset="0.128" style="stop-color:#41588E"/>
				<stop  offset="0.6948" style="stop-color:#5573B1"/>
				<stop  offset="1" style="stop-color:#5D7DBE"/>
			</linearGradient>
			<path id="XMLID_1220_" class="st66" d="M111.7,82.9c-0.7-0.4-1.3-0.4-1.7,0c0.3-0.1,0.7,0,1.1,0.3c1.2,0.7,2.1,2.3,2.1,3.7
				c0,0.5-0.2,1-0.4,1.2c0.6-0.1,1-0.6,1-1.5C113.8,85.2,112.9,83.5,111.7,82.9z"/>
		</g>
		<g id="XMLID_1217_">
			<path id="XMLID_1218_" class="st43" d="M123.2,92.4c-0.3,0-0.6-0.2-0.8-0.5c-0.3-0.4-0.1-1,0.3-1.3l1.2-0.7
				c0.4-0.3,1-0.1,1.3,0.3c0.3,0.4,0.1,1-0.3,1.3l-1.2,0.7C123.5,92.4,123.4,92.4,123.2,92.4z"/>
		</g>
		<path id="XMLID_1213_" class="st54" d="M146.9,118.1L146.9,118.1c-0.5-0.3-0.6-1-0.3-1.4l1.9-3.1c0.3-0.5,1-0.6,1.4-0.3l0,0
			c0.5,0.3,0.6,1,0.3,1.4l-1.9,3.1C148,118.2,147.4,118.4,146.9,118.1z"/>
	</g>
	<g id="XMLID_89_">
		
			<radialGradient id="XMLID_46_" cx="151.2057" cy="7748.894" r="10.0533" gradientTransform="matrix(1 0 0 0.5172 0 -3893.1953)" gradientUnits="userSpaceOnUse">
			<stop  offset="0" style="stop-color:#3C5185"/>
			<stop  offset="5.193542e-002" style="stop-color:#596B97"/>
			<stop  offset="0.1411" style="stop-color:#8592B3"/>
			<stop  offset="0.2346" style="stop-color:#ABB4CA"/>
			<stop  offset="0.3312" style="stop-color:#C9CFDD"/>
			<stop  offset="0.432" style="stop-color:#E1E4EC"/>
			<stop  offset="0.5389" style="stop-color:#F2F3F7"/>
			<stop  offset="0.6559" style="stop-color:#FCFCFD"/>
			<stop  offset="0.8023" style="stop-color:#FFFFFF"/>
		</radialGradient>
		<path id="XMLID_1081_" class="st67" d="M144.2,110.1c3.9-2.2,10.2-2.2,14.1,0c3.9,2.2,3.9,5.9,0,8.1c-3.9,2.2-10.2,2.2-14.1,0
			C140.3,116,140.3,112.3,144.2,110.1z"/>
		<g id="XMLID_1066_">
			<path id="XMLID_1080_" class="st43" d="M153.3,113.5l-0.4,0.3h-3.5l-0.4-0.3c-1.1-1-1.8-2.5-1.8-4V108h8v1.4
				C155.2,111,154.5,112.5,153.3,113.5z"/>
			<path id="XMLID_1079_" class="st43" d="M151.7,114.9h-1.3c-0.6,0-1.2-0.5-1.2-1.2l0,0h3.6l0,0
				C152.9,114.4,152.4,114.9,151.7,114.9z"/>
			<path id="XMLID_1078_" class="st68" d="M154,106.4c-1.6-0.9-4.1-0.9-5.6,0c-1.6,0.9-1.6,2.4,0,3.3c1.6,0.9,4.1,0.9,5.6,0
				C155.6,108.7,155.6,107.2,154,106.4z"/>
			<linearGradient id="XMLID_47_" gradientUnits="userSpaceOnUse" x1="143.9137" y1="101.629" x2="158.5385" y2="101.629">
				<stop  offset="2.123250e-002" style="stop-color:#FFC107"/>
				<stop  offset="0.1431" style="stop-color:#FFBC06"/>
				<stop  offset="1" style="stop-color:#FF9800"/>
			</linearGradient>
			<path id="XMLID_1077_" class="st69" d="M151.2,93c-4,0-7.3,3.3-7.3,7.3c0,2.6,1.3,4.8,3.3,6.1v1.7l0,0c0,0.6,0.4,1.1,1.2,1.6
				c1.5,0.9,4.1,0.9,5.6,0c0.7-0.4,1.1-1,1.2-1.6h0v-1.7c2-1.3,3.3-3.6,3.3-6.1C158.5,96.2,155.3,93,151.2,93z"/>
			<path id="XMLID_1076_" class="st47" d="M147.1,101.1c0-2.6,2.1-4.8,4.8-4.8c2.4,0,2.3-2-0.9-2c-3.1,0-5.6,2.5-5.6,5.6
				C145.4,101.9,147.1,102.8,147.1,101.1z"/>
			<path id="XMLID_1075_" class="st70" d="M154,110.3c-1.5,0.9-4.1,0.9-5.6,0c-0.7-0.4-1.2-1-1.2-1.6v0.5c0,0.6,0.4,1.1,1.2,1.6
				c1.5,0.9,4.1,0.9,5.6,0c0.7-0.4,1.1-1,1.2-1.6h0v-0.5h0C155.2,109.3,154.8,109.8,154,110.3z"/>
			<path id="XMLID_1074_" class="st70" d="M154,111.8c-1.5,0.9-4.1,0.9-5.6,0c-0.4-0.3-0.8-0.6-1-0.9c0.1,0.4,0.2,0.7,0.4,1
				c0.2,0.1,0.3,0.3,0.6,0.4c1.5,0.9,4.1,0.9,5.6,0c0.2-0.1,0.3-0.2,0.5-0.3c0.2-0.4,0.4-0.7,0.5-1.1
				C154.8,111.3,154.5,111.6,154,111.8z"/>
			<linearGradient id="XMLID_48_" gradientUnits="userSpaceOnUse" x1="139.1963" y1="91.6599" x2="163.3346" y2="91.6599">
				<stop  offset="2.123250e-002" style="stop-color:#FFC107"/>
				<stop  offset="0.1431" style="stop-color:#FFBC06"/>
				<stop  offset="1" style="stop-color:#FF9800"/>
			</linearGradient>
			<path id="XMLID_91_" class="st71" d="M151.2,92.4C151.2,92.4,151.2,92.4,151.2,92.4c-0.3,0-0.6-0.3-0.6-0.6l0-4.6
				c0-0.3,0.3-0.6,0.6-0.6c0,0,0,0,0,0c0.3,0,0.6,0.3,0.6,0.6l0,4.6C151.8,92.1,151.5,92.4,151.2,92.4z M156.1,93.2l2.3-3.9
				c0.2-0.3,0.1-0.6-0.2-0.8c-0.3-0.2-0.6-0.1-0.8,0.2l-2.3,3.9c-0.2,0.3-0.1,0.6,0.2,0.8c0.1,0.1,0.2,0.1,0.3,0.1
				C155.8,93.5,156,93.4,156.1,93.2z M159.1,96.6l4-2.3c0.3-0.2,0.4-0.5,0.2-0.8c-0.2-0.3-0.5-0.4-0.8-0.2l-4,2.3
				c-0.3,0.2-0.4,0.5-0.2,0.8c0.1,0.2,0.3,0.3,0.5,0.3C158.9,96.7,159,96.7,159.1,96.6z M144.2,96.4c0.2-0.3,0.1-0.6-0.2-0.8
				l-3.9-2.3c-0.3-0.2-0.6-0.1-0.8,0.2c-0.2,0.3-0.1,0.6,0.2,0.8l3.9,2.3c0.1,0.1,0.2,0.1,0.3,0.1C143.9,96.7,144.1,96.6,144.2,96.4
				z M147.2,93.4c0.3-0.2,0.4-0.5,0.2-0.8l-2.2-4c-0.2-0.3-0.5-0.4-0.8-0.2c-0.3,0.2-0.4,0.5-0.2,0.8l2.2,4c0.1,0.2,0.3,0.3,0.5,0.3
				C147,93.5,147.1,93.5,147.2,93.4z"/>
		</g>
	</g>
	<g id="XMLID_75_">
		<g id="XMLID_85_">
			<linearGradient id="XMLID_49_" gradientUnits="userSpaceOnUse" x1="199.8578" y1="119.321" x2="184.1911" y2="100.4876">
				<stop  offset="0" style="stop-color:#3C5185"/>
				<stop  offset="0.128" style="stop-color:#41588E"/>
				<stop  offset="0.6948" style="stop-color:#5573B1"/>
				<stop  offset="1" style="stop-color:#5D7DBE"/>
			</linearGradient>
			<path id="XMLID_87_" class="st72" d="M201.1,101.1c0,6.5-4.6,14.4-10.2,17.6c-2.4,1.4-4.5,1.7-6.3,1.1l-2.3,1
				c-0.4,0.2-0.8-0.2-0.8-0.6l0.4-2.5c-0.8-1.2-1.2-2.9-1.2-4.9c0-6.5,4.6-14.4,10.2-17.6C196.5,92,201.1,94.6,201.1,101.1z"/>
			<linearGradient id="XMLID_50_" gradientUnits="userSpaceOnUse" x1="196.0995" y1="91.3294" x2="175.848" y2="125.7658">
				<stop  offset="0" style="stop-color:#5D7DBE"/>
				<stop  offset="0.3052" style="stop-color:#5573B1"/>
				<stop  offset="0.872" style="stop-color:#41588E"/>
				<stop  offset="1" style="stop-color:#3C5185"/>
			</linearGradient>
			<path id="XMLID_86_" class="st73" d="M183.4,118.8c-0.8-1.2-1.2-2.9-1.2-4.9c0-6.5,4.6-14.4,10.2-17.6c2.7-1.5,5.1-1.7,6.9-0.8
				c-1.8-2-4.9-2.2-8.4-0.3c-5.6,3.2-10.2,11.2-10.2,17.6c0,2,0.4,3.7,1.2,4.9l-0.4,2.5c-0.1,0.4,0.4,0.8,0.8,0.6l0.8-0.3
				L183.4,118.8z"/>
		</g>
		<g id="XMLID_76_">
			<g id="XMLID_70_">
				<path id="XMLID_71_" class="st47" d="M192.2,109.6l-1.5,0.8l0-1.2c0-0.4,0.1-0.8,0.1-1c0.1-0.2,0.2-0.6,0.5-1.1l0.7-1.5
					c0.1-0.2,0.2-0.5,0.2-0.8c0-0.3,0-0.5-0.1-0.7c-0.1-0.1-0.2-0.2-0.4-0.1c-0.2,0.1-0.3,0.3-0.4,0.6c-0.1,0.3-0.2,0.6-0.2,1
					l-1.5,0.9c0.1-1.1,0.4-2,0.8-2.8c0.4-0.8,0.9-1.4,1.5-1.7c0.6-0.3,1.1-0.3,1.4,0c0.4,0.3,0.5,0.9,0.5,1.9c0,0.4-0.1,0.7-0.1,1
					c-0.1,0.2-0.1,0.4-0.1,0.5c0,0.1-0.1,0.3-0.2,0.5c-0.1,0.2-0.2,0.4-0.2,0.4c-0.2,0.3-0.3,0.6-0.5,0.9c-0.1,0.3-0.2,0.5-0.3,0.7
					c-0.1,0.2-0.1,0.4-0.1,0.7L192.2,109.6z M190.8,113.3c-0.2-0.2-0.2-0.4-0.2-0.8c0-0.4,0.1-0.7,0.3-1.1c0.2-0.4,0.4-0.6,0.6-0.7
					c0.2-0.1,0.4-0.1,0.6,0.1c0.2,0.2,0.2,0.4,0.2,0.8c0,0.4-0.1,0.8-0.3,1.1c-0.2,0.4-0.4,0.6-0.6,0.7
					C191.1,113.5,190.9,113.5,190.8,113.3z"/>
			</g>
		</g>
	</g>
	<g id="XMLID_68_">
		<path id="XMLID_1091_" class="st74" d="M116.4,42v16.5c0,1-0.5,2-1.4,2.5l-2.6,1.7l-2.5,5.6c-0.2,0.8-1.2,1.2-1.9,0.9l-3.1-2.1
			L82.5,80c-1.1,0.6-2.4-0.1-2.4-1.4V61.8c0-1,0.5-2,1.4-2.5l32.5-18.7C115,40,116.4,40.8,116.4,42z"/>
		<g id="XMLID_1089_">
			<linearGradient id="XMLID_51_" gradientUnits="userSpaceOnUse" x1="80.0353" y1="60.2906" x2="115.9789" y2="60.2906">
				<stop  offset="0" style="stop-color:#7EA7DF"/>
				<stop  offset="0.3579" style="stop-color:#A1BFE7"/>
				<stop  offset="0.7751" style="stop-color:#C4D8EF"/>
				<stop  offset="1" style="stop-color:#D1E1F2"/>
			</linearGradient>
			<path id="XMLID_1090_" class="st75" d="M81.2,79.2V62.4c0-1,0.5-2,1.4-2.5l32.5-18.7c0.3-0.2,0.6-0.2,0.9-0.2
				c-0.5-0.6-1.3-0.8-2-0.4L81.5,59.3c-0.9,0.5-1.4,1.5-1.4,2.5v16.8c0,0.9,0.7,1.6,1.6,1.6C81.4,79.9,81.2,79.6,81.2,79.2z"/>
		</g>
		<polygon id="XMLID_1088_" class="st47" points="83.7,62.7 114.1,45.3 114.1,47.2 83.7,64.7 		"/>
		<polygon id="XMLID_1087_" class="st47" points="83.7,67.8 114.1,50.3 114.1,52.2 83.7,69.7 		"/>
		<polygon id="XMLID_1086_" class="st47" points="83.7,72.8 101.1,62.7 101.1,64.7 83.7,74.8 		"/>
	</g>
	<g id="XMLID_53_">
		
			<radialGradient id="XMLID_52_" cx="149.6047" cy="7919.0337" r="13.2552" gradientTransform="matrix(1 0 0 0.5172 0 -3893.1953)" gradientUnits="userSpaceOnUse">
			<stop  offset="0" style="stop-color:#3C5185"/>
			<stop  offset="5.744506e-002" style="stop-color:#506291"/>
			<stop  offset="0.2541" style="stop-color:#8D9AB8"/>
			<stop  offset="0.4339" style="stop-color:#BEC5D7"/>
			<stop  offset="0.5909" style="stop-color:#E2E5ED"/>
			<stop  offset="0.719" style="stop-color:#F7F8FA"/>
			<stop  offset="0.8023" style="stop-color:#FFFFFF"/>
		</radialGradient>
		<path id="XMLID_13_" class="st76" d="M140.3,196.8c5.1-2.9,13.5-2.9,18.6,0c5.1,2.9,5.1,7.8,0,10.7c-5.1,2.9-13.5,2.9-18.6,0
			C135.2,204.6,135.2,199.7,140.3,196.8z"/>
		<g id="XMLID_54_">
			<path id="XMLID_64_" class="st43" d="M162.3,197.7c0-0.3-0.4-0.5-0.8-0.5l-1.8,0c-0.3,0-0.8,0.3-0.9,0.2
				c-0.1-0.2-0.1-0.3,0.1-0.5l1.3-0.7c0.3-0.2-1.8-0.1-2.1-0.3l0-1.6c-0.3-0.2-0.9-0.2-1.2,0l-1.3,0.7c-0.2,0.1-0.5,0.2-0.8,0.1
				c-0.2,0-0.4-0.1-0.6-0.1c-0.3-0.1-0.4-0.2-0.4-0.4v-1.1c0-0.3-0.4-0.5-0.8-0.5H150c-0.5,0-0.8,0.2-0.8,0.5v1
				c0,0.2-0.2,0.3-0.5,0.4c-0.2,0-0.4,0.1-0.5,0.1c-0.3,0.1-0.6,0-0.8-0.1l-1.3-0.7c-0.3-0.2-0.9-0.2-1.2,0l-0.2,1.7
				c-0.3,0.2-2.3,0-1.9,0.2l1.3,0.7c0.2,0.1,0.3,0.3,0.1,0.4c-0.1,0.1-0.6-0.2-0.9-0.2l-1.8,0c-0.5,0-0.8,0.2-0.8,0.5l0,2.5
				c0,0.3,0.4,0.5,0.8,0.5l1.1,0l0,2c0,0,0,0.1,0,0.1l0,0h0c0,0.1,0.1,0.2,0.2,0.3l2.1,1.2c0.2,0.1,0.5,0.2,0.7,0.1l0,0v0
				c0.2,0,0.3-0.1,0.4-0.1l1.3-0.7c0.2-0.1,0.5-0.2,0.8-0.1c0.2,0,0.4,0.1,0.6,0.1c0.3,0.1,0.4,0.2,0.4,0.4l0,1.1
				c0,0.3,0.4,0.5,0.8,0.5l2.9,0c0.5,0,0.8-0.2,0.8-0.5l0-1c0-0.2,0.2-0.3,0.5-0.4c0.2,0,0.3-0.1,0.5-0.1c0.3-0.1,0.6,0,0.8,0.1
				l1.3,0.7c0.1,0.1,0.3,0.1,0.4,0.1v0l0,0c0.3,0,0.5,0,0.7-0.1l2.1-1.2c0.1-0.1,0.2-0.2,0.2-0.3l0,0l0,0c0,0,0,0,0,0l0-2.1l1,0
				c0.5,0,0.8-0.2,0.8-0.5L162.3,197.7z M155.6,199.8c-0.5,1.5-3.2,2.3-5.6,1.8c-1.8-0.4-3-1.6-2.6-2.7c0.5-1.5,3.2-2.3,5.6-1.8
				C154.9,197.5,156,198.7,155.6,199.8z"/>
			<path id="XMLID_63_" class="st43" d="M160.4,194.9l0-1.3h-1.9l-0.4-0.2c-0.3-0.2-0.9-0.2-1.2,0l-0.4,0.2h-2.6v-1
				c0-0.3-0.4-0.5-0.8-0.5H150c-0.5,0-0.8,0.2-0.8,0.5v1h-2.7l-0.4-0.2c-0.3-0.2-0.9-0.2-1.2,0l-0.4,0.2h-1.9v1.3
				c0,0.1,0.1,0.3,0.2,0.4l1.3,0.7l14.8,0l1.3-0.7C160.3,195.1,160.4,195,160.4,194.9L160.4,194.9z"/>
			<g id="XMLID_3_">
				<path id="XMLID_5_" class="st65" d="M159.1,198.3l2.3,0c0.5,0,0.8-0.2,0.8-0.5l0-1.7c0-0.3-0.4-0.5-0.8-0.5l-1.8,0
					c-0.3,0-0.6-0.1-0.7-0.3c-0.1-0.1-0.1-0.2-0.2-0.3c-0.1-0.2-0.1-0.3,0.1-0.5l1.3-0.7c0.3-0.2,0.3-0.5,0-0.7l-2.1-1.2
					c-0.3-0.2-0.9-0.2-1.2,0l-1.3,0.7c-0.2,0.1-0.5,0.2-0.8,0.1c-0.2,0-0.4-0.1-0.6-0.1c-0.3-0.1-0.4-0.2-0.4-0.4v-1.1
					c0-0.3-0.4-0.5-0.8-0.5H150c-0.5,0-0.8,0.2-0.8,0.5v1c0,0.2-0.2,0.3-0.5,0.4c-0.2,0-0.4,0.1-0.5,0.1c-0.3,0.1-0.6,0-0.8-0.1
					l-1.3-0.7c-0.3-0.2-0.9-0.2-1.2,0l-2.1,1.2c-0.3,0.2-0.3,0.5,0,0.7l1.3,0.7c0.2,0.1,0.3,0.3,0.1,0.4c-0.1,0.1-0.2,0.2-0.2,0.3
					c-0.1,0.2-0.4,0.3-0.6,0.3l-1.8,0c-0.5,0-0.8,0.2-0.8,0.5l0,1.7c0,0.3,0.4,0.5,0.8,0.5l1.8,0c0.3,0,0.6,0.1,0.7,0.3
					c0.1,0.1,0.1,0.2,0.2,0.3c0.1,0.2,0.1,0.3-0.1,0.5l-1.3,0.7c-0.3,0.2-0.3,0.5,0,0.7l2.1,1.2c0.3,0.2,0.9,0.2,1.2,0l1.3-0.7
					c0.2-0.1,0.5-0.2,0.8-0.1c0.2,0,0.4,0.1,0.6,0.1c0.3,0.1,0.4,0.2,0.4,0.4l0,1.1c0,0.3,0.4,0.5,0.8,0.5l2.9,0
					c0.5,0,0.8-0.2,0.8-0.5l0-1c0-0.2,0.2-0.3,0.5-0.4c0.2,0,0.3-0.1,0.5-0.1c0.3-0.1,0.6,0,0.8,0.1l1.3,0.7c0.3,0.2,0.9,0.2,1.2,0
					l2.1-1.2c0.3-0.2,0.3-0.5,0-0.7l-1.3-0.7c-0.2-0.1-0.3-0.3-0.1-0.4C158.9,198.6,159.1,198.3,159.1,198.3z M147.4,196.6
					c0.5-1.5,3.2-2.3,5.6-1.8c1.8,0.4,3,1.6,2.6,2.7c-0.5,1.5-3.2,2.3-5.6,1.8C148.2,198.8,147,197.7,147.4,196.6z"/>
			</g>
		</g>
	</g>
	<g id="XMLID_14_">
		<g id="XMLID_25_">
			<polygon id="XMLID_33_" class="st77" points="106,207.6 123.1,197.7 123.1,197.4 98.4,184.1 85.5,195.7 			"/>
			<polygon id="XMLID_32_" class="st43" points="106,207.3 123.1,197.4 98.4,183.9 85.5,195.4 			"/>
			<polygon id="XMLID_31_" class="st78" points="105.3,207.1 122.4,197.2 122.5,194.1 97.7,183.4 84.8,195 			"/>
			<polygon id="XMLID_30_" class="st77" points="95.7,178.1 123.1,193.7 123.1,194 106,203.8 78.5,188 			"/>
			<polygon id="XMLID_29_" class="st43" points="95.7,177.9 123.1,193.7 106,203.6 78.5,187.8 			"/>
			<polygon id="XMLID_28_" class="st47" points="99.3,181.6 107,186 93.2,194 85.5,189.5 			"/>
			<polygon id="XMLID_27_" class="st77" points="78.8,187.9 78.8,191.8 106,207.6 106.2,207.4 106.2,203.7 			"/>
			<polygon id="XMLID_26_" class="st43" points="78.5,187.8 78.5,191.6 106,207.6 106,203.6 			"/>
		</g>
		<g id="XMLID_15_">
			<polygon id="XMLID_24_" class="st79" points="101.6,201.2 116,192.9 116,192.7 95.2,181.5 84.4,191.2 			"/>
			<polygon id="XMLID_23_" class="st48" points="101.6,201 116,192.7 95.2,181.3 84.4,191 			"/>
			<polygon id="XMLID_22_" class="st47" points="101,200.8 115.4,192.5 115.5,189.8 94.7,180.9 83.8,190.6 			"/>
			<polygon id="XMLID_21_" class="st79" points="92.9,176.4 116,189.5 116,189.7 101.6,198.1 78.5,184.8 			"/>
			<polygon id="XMLID_20_" class="st48" points="92.9,176.2 116,189.5 101.6,197.9 78.5,184.6 			"/>
			<polygon id="XMLID_19_" class="st47" points="95.9,179.4 102.4,183.1 90.8,189.8 84.4,186 			"/>
			<polygon id="XMLID_18_" class="st79" points="78.7,184.7 78.7,187.9 101.6,201.2 101.8,201.1 101.8,198 			"/>
			<polygon id="XMLID_17_" class="st80" points="78.5,184.6 78.5,187.8 101.6,201.2 101.6,197.9 			"/>
		</g>
	</g>
</g>
</svg>
